<svg xmlns="http://www.w3.org/2000/svg" width="100" height="100" viewBox="0 0 100 100">
  <g id="Group_1102584" data-name="Group 1102584" transform="translate(0.242)">
    <g id="Group_1098742" data-name="Group 1098742" transform="translate(0)">
      <rect id="Rectangle_400898" data-name="Rectangle 400898" width="100" height="100" rx="50" transform="translate(-0.242)" fill="#fff" opacity="0.859"/>
      <g id="Rectangle_400907" data-name="Rectangle 400907" transform="translate(-0.242)" fill="none" stroke="#6018ec" stroke-linecap="round" stroke-width="2" stroke-dasharray="7">
        <rect width="100" height="100" rx="50" stroke="none"/>
        <rect x="1" y="1" width="98" height="98" rx="49" fill="none"/>
      </g>
    </g>
    <g id="Group_1100243" data-name="Group 1100243" transform="translate(20.482 18)">
      <path id="Path_874614" data-name="Path 874614" d="M112.417,104.325H61.228c-.939.564-1.221,6.3-1.221,6.3v25.536h54.57V107.049Z" transform="translate(-58.568 -93.371)" fill="#f7f9f8"/>
      <path id="Path_874615" data-name="Path 874615" d="M114.577,195.567c-8.626,8.261-25.171,16.819-54.57,9.469V213.9h54.57Z" transform="translate(-58.568 -171.103)" fill="#e2e2e2"/>
      <path id="Path_874616" data-name="Path 874616" d="M110.977,232.025l-7.686,4.1-1.628,8.954h47.655l-4.155-5.893-6.62-5.378-4.022-1.787-6.5,5.168-2.534,1.04-3.6.525-2.576-.2-3.435-3.054Z" transform="translate(-94.057 -202.163)" fill="#98f9f2"/>
      <path id="Path_874617" data-name="Path 874617" d="M145.164,253.969l-5.658-4.6c-1.926,3.747-9.43,12.124-37.134,6.592l-.709,3.9h47.655Z" transform="translate(-94.057 -216.942)" fill="#56d1c5"/>
      <path id="Path_874618" data-name="Path 874618" d="M110.691,318.1H75.755l-18.127.748c-1.691,7.041,2.348,9.428,2.348,9.428H112.2l1.972-2.127v-1.6l-1.267-4.143a2.881,2.881,0,0,1-2.212-2.307Z" transform="translate(-56.188 -275.497)" fill="#947bff"/>
      <path id="Path_874619" data-name="Path 874619" d="M233.307,318.1h-14.3c-2.519,3.9-7.678,8.895-17.867,10.176h33.673l1.972-2.127v-1.6l-1.267-4.143a2.881,2.881,0,0,1-2.212-2.307Z" transform="translate(-178.805 -275.497)" fill="#7b5cff"/>
      <path id="Path_874620" data-name="Path 874620" d="M168.589,37.082s-14.137,3.708-13.1,18.479c0,0,12.747-11.3,26,0,0,0,.2-18.479-12.9-18.479Z" transform="translate(-139.863 -36.084)" fill="#98f9f2"/>
      <g id="Group_1100241" data-name="Group 1100241" transform="translate(15.246 1.376)">
        <path id="Path_874621" data-name="Path 874621" d="M257.63,39.634c1.674,3.658,3.381,9.679-1.262,13.149a19.565,19.565,0,0,1,11.112,4.952s.169-15.479-9.85-18.1Z" transform="translate(-241.102 -39.634)" fill="#56d1c5"/>
        <path id="Path_874622" data-name="Path 874622" d="M155.935,147.32l-2.677,5.448s3.193,9.659,6.387,9.9,4.508-4.172,4.508-4.172l-6.856-12.3Z" transform="translate(-153.258 -130.415)" fill="#56d1c5"/>
        <path id="Path_874623" data-name="Path 874623" d="M271.118,146.192s-3.376,9.932-5.938,10.789.443,5.491.584,5.686a16.85,16.85,0,0,0,1.869,1.135s4.376-4.18,5.363-6.387,1.925-4.837,1.925-4.837v-3.24Z" transform="translate(-247.731 -130.415)" fill="#56d1c5"/>
      </g>
      <path id="Path_874624" data-name="Path 874624" d="M331.287,279.23s-6.142,8.954-6.535,9.985-1.862,2.721-.752,4.036a9.14,9.14,0,0,0,2.675,2.066h7.559l5.465-.156,1.44-3.288-1.263-4.464-5.643-8Z" transform="translate(-283.127 -242.379)" fill="#ff786e"/>
      <path id="Path_874625" data-name="Path 874625" d="M334.236,328.029l5.465-.156,1.44-3.288-1.263-4.464-1.758-2.494c-2.4,3.5-7.109,8.219-14.475,6.769a1.746,1.746,0,0,0,.357,1.567,9.14,9.14,0,0,0,2.675,2.066Z" transform="translate(-283.129 -275.091)" fill="#ea433f"/>
      <g id="Group_1100242" data-name="Group 1100242">
        <path id="Path_874626" data-name="Path 874626" d="M95.05,93.165H90.872l-4.543-9.994a1.11,1.11,0,0,0-1.106-1.021H54.974a2.467,2.467,0,0,1-2.464-2.464V74.64H87.69a1.11,1.11,0,0,0,0-2.221H58.632l1.435-5.677a3.815,3.815,0,0,1,1.958-2.459l5.6-2.871A23.478,23.478,0,0,0,71.96,65.6a11.636,11.636,0,0,0,6.611,2.375q.235.009.469.009a11.786,11.786,0,0,0,6.316-1.837,19.9,19.9,0,0,0,5.256-4.664l5.473,2.805A1.11,1.11,0,0,0,97.1,62.307l-5.262-2.7a10.885,10.885,0,0,0,1.486-5.185c0-.007,0-.014,0-.021,1.279-10.883-3.68-17.794-8.075-21.679a9.529,9.529,0,0,0-12.83.2c-3.839,3.6-8.308,10.262-7.8,21.5a1.108,1.108,0,0,0,.087.381,12.506,12.506,0,0,0,1.659,4.754l-5.356,2.745a6.037,6.037,0,0,0-3.1,3.891l-1.573,6.221H52.51V44.731a2.467,2.467,0,0,1,2.464-2.464h6.7a1.11,1.11,0,1,0,0-2.221h-6.7a4.69,4.69,0,0,0-4.685,4.685V79.685a4.69,4.69,0,0,0,4.685,4.685H70.805l-4,8.794H62.629a1.11,1.11,0,1,0,0,2.221H95.05a1.11,1.11,0,1,0,0-2.221ZM66.891,52.492a5.312,5.312,0,0,1,2.2-3.561A25.092,25.092,0,0,0,70.8,53.949a12.47,12.47,0,0,0,4.244,5.273c-.14,1.134-.654,3.337-1.935,4.454C69.944,61.227,66.386,57.342,66.891,52.492Zm12.45,5.791c-5.9,0-7.9-8.8-8.238-10.583.131-.063.257-.121.377-.173a20.15,20.15,0,0,1,7.952-1.546,17.779,17.779,0,0,1,7.8,1.619C85.884,52.688,83.756,58.282,79.341,58.282Zm-4.3,6.6a9.834,9.834,0,0,0,2.089-4.689,7.814,7.814,0,0,0,2.208.312,7.2,7.2,0,0,0,1.557-.167A9.677,9.677,0,0,0,82.984,64.9,9.424,9.424,0,0,1,75.044,64.879Zm9.922-1.143-.011-.01c-1.306-1.085-1.787-3.18-1.951-4.237a10.286,10.286,0,0,0,3.386-3.6,28.462,28.462,0,0,0,2.783-6.98,5.866,5.866,0,0,1,1.933,5.332c0,.037-.007.072-.008.108,0,.01,0,.02,0,.03s0,.035,0,.053c.009.208.138,4.962-6.133,9.3ZM73.939,34.542a7.273,7.273,0,0,1,9.839-.153,21.647,21.647,0,0,1,7.288,13.258,9.761,9.761,0,0,0-1.151-1C84.865,42.9,75.95,43.133,70.586,45.493a12.651,12.651,0,0,0-3.376,2.116,22.574,22.574,0,0,1,6.729-13.067ZM73.245,84.37h11.19l4,8.794H69.247Z" transform="translate(-50.289 -30.34)" fill="#0a0a0a"/>
        <path id="Path_874627" data-name="Path 874627" d="M221.974,346.667a1.11,1.11,0,0,0,0,2.221h4.37a1.11,1.11,0,1,0,0-2.221Z" transform="translate(-195.609 -299.831)" fill="#0a0a0a"/>
        <path id="Path_874628" data-name="Path 874628" d="M356.088,98.117h6.194a2.467,2.467,0,0,1,2.464,2.464v21.45a1.11,1.11,0,0,0,2.221,0v-21.45a4.69,4.69,0,0,0-4.685-4.685h-6.194a1.11,1.11,0,1,0,0,2.221Z" transform="translate(-309.865 -86.19)" fill="#0a0a0a"/>
        <path id="Path_874629" data-name="Path 874629" d="M335.508,283.97l-5.233-9.064a4.63,4.63,0,0,0-8.02,0l-5.233,9.064a4.63,4.63,0,0,0,4.01,6.945H331.5a4.62,4.62,0,0,0,4.01-6.945Zm-1.923,3.52a2.385,2.385,0,0,1-2.086,1.2H321.033a2.4,2.4,0,0,1-2.087-3.614l5.233-9.064a2.409,2.409,0,0,1,4.173,0l5.233,9.064a2.385,2.385,0,0,1,0,2.409Z" transform="translate(-276.995 -236.723)" fill="#0a0a0a"/>
        <path id="Path_874630" data-name="Path 874630" d="M376.67,307.3a1.11,1.11,0,0,0-1.11,1.11v2.474a1.11,1.11,0,1,0,2.221,0v-2.474A1.11,1.11,0,0,0,376.67,307.3Z" transform="translate(-327.4 -266.295)" fill="#0a0a0a"/>
        <path id="Path_874631" data-name="Path 874631" d="M377.7,355.542a1.125,1.125,0,0,0-.1-.191,1.092,1.092,0,0,0-.139-.169,1.007,1.007,0,0,0-.169-.138,1.026,1.026,0,0,0-.191-.1,1.038,1.038,0,0,0-.207-.064,1.122,1.122,0,0,0-1,.3,1.1,1.1,0,0,0-.139.169,1.026,1.026,0,0,0-.1.191,1.125,1.125,0,0,0-.086.425,1.086,1.086,0,0,0,.022.218,1.015,1.015,0,0,0,.064.207,1.026,1.026,0,0,0,.1.191,1.109,1.109,0,0,0,1.848,0,1.125,1.125,0,0,0,.1-.191,1.111,1.111,0,0,0,.062-.207,1.086,1.086,0,0,0,.022-.218,1.062,1.062,0,0,0-.022-.216A1.161,1.161,0,0,0,377.7,355.542Z" transform="translate(-327.4 -306.809)" fill="#0a0a0a"/>
      </g>
    </g>
  </g>
</svg>
