<svg xmlns="http://www.w3.org/2000/svg" width="80" height="80" viewBox="0 0 80 80">
  <g id="Group_1103070" data-name="Group 1103070" transform="translate(-209.688 -1614)">
    <rect id="Rectangle_403232" data-name="Rectangle 403232" width="80" height="80" rx="10" transform="translate(209.688 1614)" fill="#6018ec"/>
    <g id="Group_1103069" data-name="Group 1103069" transform="translate(219.024 1557.324)">
      <g id="Group_1103067" data-name="Group 1103067" transform="translate(0.898 75.892)">
        <g id="Group_1103066" data-name="Group 1103066" transform="translate(0 0)">
          <path id="Path_879353" data-name="Path 879353" d="M37.617,84.291v32.27l50.041,2.4V84.291a1.8,1.8,0,0,0-1.8-1.8H39.414A1.8,1.8,0,0,0,37.617,84.291Z" transform="translate(-34.01 -82.494)" fill="#80b6fc"/>
          <path id="Path_879354" data-name="Path 879354" d="M432.977,82.494h-3.594a1.8,1.8,0,0,1,1.8,1.8v34.665l3.593-2.4V84.291a1.8,1.8,0,0,0-1.8-1.8Z" transform="translate(-378.849 -82.494)" fill="#62a4fb"/>
          <path id="Path_879355" data-name="Path 879355" d="M89.012,217.024,84.671,220.1h33l-4.341-3.077,8.658-6.137a.6.6,0,0,0-.37-1.087l-11.849.475.615-9.453a.6.6,0,0,0-.991-.491l-8.221,7.148-8.221-7.148a.6.6,0,0,0-.991.491l.615,9.453L80.724,209.8a.6.6,0,0,0-.37,1.087Z" transform="translate(-71.404 -186.086)" fill="#fd8087"/>
          <path id="Path_879356" data-name="Path 879356" d="M200.044,134.343,206.4,136.6V132.44l-6.271-2.225a.359.359,0,0,0-.479.339v3.225A.6.6,0,0,0,200.044,134.343Z" transform="translate(-176.63 -124.48)" fill="#ffe282"/>
          <path id="Path_879357" data-name="Path 879357" d="M262.232,135.1l-1.977.864L256,137.477V133.32l3.988-1.415,2.163-.69a.359.359,0,0,1,.479.339v2.985A.6.6,0,0,1,262.232,135.1Z" transform="translate(-226.234 -125.36)" fill="#ffe282"/>
          <path id="Path_879358" data-name="Path 879358" d="M291.576,130.215l-2.283.81a.372.372,0,0,1,.367.371v3.356a.621.621,0,0,1-.1.335l2.1-.744a.6.6,0,0,0,.4-.564v-3.225a.359.359,0,0,0-.48-.339Z" transform="translate(-255.539 -124.48)" fill="#ffd368"/>
          <path id="Path_879359" data-name="Path 879359" d="M226.845,138.5H225.26v-6.6a1.405,1.405,0,0,0-1.483-1.483,1.558,1.558,0,0,0-.779.082,1.6,1.6,0,0,0-.823,1.4v6.6h-1.585a1.2,1.2,0,0,0-1.2,1.2v6.757l.12,2.269a4.267,4.267,0,0,0,8.53,0V139.7A1.2,1.2,0,0,0,226.845,138.5Z" transform="translate(-194.012 -124.675)" fill="#f7f9fa"/>
          <path id="Path_879360" data-name="Path 879360" d="M253.466,197.942h-1.557a1.2,1.2,0,0,1,1.2,1.2v9.027a4.138,4.138,0,0,1-3.606,4.075,4.4,4.4,0,0,0,.779.07,3.987,3.987,0,0,0,4.145-4.145l.24-2.27V199.14A1.2,1.2,0,0,0,253.466,197.942Z" transform="translate(-220.513 -184.113)" fill="#e9edf1"/>
          <path id="Path_879361" data-name="Path 879361" d="M219.393,264.355v2.269a4.386,4.386,0,0,0,3.5,4.3,4.521,4.521,0,0,0,.884-.031,4.085,4.085,0,0,0,4.145-4.265v-2.269Z" transform="translate(-194.012 -242.571)" fill="#978ecb"/>
          <path id="Path_879362" data-name="Path 879362" d="M250.279,271.009a4.385,4.385,0,0,0,4.385-4.385v-2.269h-1.557v2.269a4.385,4.385,0,0,1-3.606,4.315A4.416,4.416,0,0,0,250.279,271.009Z" transform="translate(-220.513 -242.571)" fill="#6e61b6"/>
          <path id="Path_879363" data-name="Path 879363" d="M62.839,374.4H10.495A3,3,0,0,1,7.5,371.4V368.1a1.2,1.2,0,0,1,1.2-1.2H30.215l7.475,1.2,6.625-1.2h20.32a1.2,1.2,0,0,1,1.2,1.2V371.4A3,3,0,0,1,62.839,374.4Z" transform="translate(-7.5 -332.833)" fill="#f7f9fa"/>
          <g id="Group_1103065" data-name="Group 1103065" transform="translate(22.715 5.628)">
            <path id="Path_879364" data-name="Path 879364" d="M454.89,366.9H451.3a1.2,1.2,0,0,1,1.2,1.2V371.4A3,3,0,0,1,449.5,374.4h3.594a3,3,0,0,0,2.995-2.995V368.1A1.2,1.2,0,0,0,454.89,366.9Z" transform="translate(-419.272 -338.461)" fill="#e9edf1"/>
            <path id="Path_879365" data-name="Path 879365" d="M210.044,370.648h-11.7a1.2,1.2,0,0,1-1.2-1.2V366.9h14.1v2.552A1.2,1.2,0,0,1,210.044,370.648Z" transform="translate(-197.141 -338.46)" fill="#e9edf1"/>
            <path id="Path_879366" data-name="Path 879366" d="M250.324,131.086v6a.6.6,0,0,0,.6.6h.958v-6.557a1.629,1.629,0,0,0-1.452-1.636,1.6,1.6,0,0,0-.929.2A1.6,1.6,0,0,1,250.324,131.086Z" transform="translate(-243.228 -129.483)" fill="#e9edf1"/>
          </g>
        </g>
      </g>
      <g id="Group_1103068" data-name="Group 1103068" transform="translate(0 74.994)">
        <path id="Path_879367" data-name="Path 879367" d="M113.946,143.126a.9.9,0,0,0-.2,1.255l2.209,3.035a.9.9,0,1,0,1.453-1.058l-2.209-3.035A.9.9,0,0,0,113.946,143.126Z" transform="translate(-99.972 -134.813)"/>
        <path id="Path_879368" data-name="Path 879368" d="M365.879,147.785a.9.9,0,0,0,.727-.37l2.209-3.035a.9.9,0,0,0-1.453-1.058l-2.209,3.035a.9.9,0,0,0,.726,1.427Z" transform="translate(-321.263 -134.813)"/>
        <path id="Path_879369" data-name="Path 879369" d="M59.232,109.06H57.721V77.689a2.7,2.7,0,0,0-2.7-2.7H20.454a.9.9,0,1,0,0,1.8H55.026a.9.9,0,0,1,.9.9V109.06h-8.4l-3.147-2.23,7.624-5.4a1.5,1.5,0,0,0-.926-2.718l-4.707.189a.9.9,0,1,0,.072,1.8l3.7-.148L42.3,106.1a.9.9,0,0,0,0,1.466l2.113,1.5h-27.5l2.113-1.5a.9.9,0,0,0,0-1.466l-7.835-5.552,10.84.435a.9.9,0,0,0,.932-.956L22.4,91.287l2.985,2.6v6.063a5.283,5.283,0,0,0,10.567,0V93.882l2.985-2.6-.568,8.736a.9.9,0,0,0,.9.957H39.3l3.227-.129a.9.9,0,0,0-.035-1.8h-.037l-2.23.089.55-8.457A1.5,1.5,0,0,0,38.3,89.46L35.947,91.5v-.583a2.1,2.1,0,0,0-2.1-2.1h-.686v-.747L37.316,86.6a1.5,1.5,0,0,0,1-1.411V81.966a1.258,1.258,0,0,0-1.678-1.185l-3.7,1.311a2.5,2.5,0,0,0-4.551,0L24.694,80.78a1.258,1.258,0,0,0-1.678,1.185V85.19a1.5,1.5,0,0,0,1,1.411l4.152,1.473v.748h-.686a2.1,2.1,0,0,0-2.1,2.1V91.5L23.032,89.46a1.5,1.5,0,0,0-2.476,1.227l.55,8.457-10.852-.435a1.5,1.5,0,0,0-.926,2.718l7.624,5.4-3.147,2.23H5.4V77.689a.9.9,0,0,1,.9-.9H16.538a.9.9,0,1,0,0-1.8H6.3a2.7,2.7,0,0,0-2.7,2.7V109.06H2.1a2.1,2.1,0,0,0-2.1,2.1v3.307a3.9,3.9,0,0,0,3.893,3.893H44.617a.9.9,0,1,0,0-1.8H3.893a2.1,2.1,0,0,1-2.1-2.1v-3.307a.3.3,0,0,1,.3-.3H22.715v1.653a2.1,2.1,0,0,0,2.1,2.1h11.7a2.1,2.1,0,0,0,2.1-2.1v-1.653H59.232a.3.3,0,0,1,.3.3v3.307a2.1,2.1,0,0,1-2.1,2.1h-8.9a.9.9,0,1,0,0,1.8h8.9a3.9,3.9,0,0,0,3.893-3.893v-3.307a2.1,2.1,0,0,0-2.1-2.1Zm-28.568-5.628a3.49,3.49,0,0,1-3.486-3.486V98.574H34.15v1.371A3.49,3.49,0,0,1,30.664,103.432Zm5.852-18.453-3.351,1.189v-2.25l3.351-1.189Zm-11.7,0v-2.25l3.351,1.189v2.25Zm2.665,5.64h1.585a.9.9,0,0,0,.9-.9v-6.6a.7.7,0,0,1,1.408,0v6.6a.9.9,0,0,0,.9.9h1.585a.3.3,0,0,1,.3.3v5.859H27.178V90.919a.3.3,0,0,1,.3-.3Zm9.339,21.891a.3.3,0,0,1-.3.3h-11.7a.3.3,0,0,1-.3-.3v-1.653h12.3Z" transform="translate(0 -74.994)"/>
      </g>
    </g>
  </g>
</svg>
