<svg xmlns="http://www.w3.org/2000/svg" width="100" height="100" viewBox="0 0 100 100">
  <g id="Group_1100965" data-name="Group 1100965" transform="translate(0.242)">
    <g id="Group_1098742" data-name="Group 1098742" transform="translate(0)">
      <rect id="Rectangle_400898" data-name="Rectangle 400898" width="100" height="100" rx="50" transform="translate(-0.242)" fill="#fff" opacity="0.859"/>
      <g id="Rectangle_400907" data-name="Rectangle 400907" transform="translate(-0.242)" fill="none" stroke="#6018ec" stroke-linecap="round" stroke-width="2" stroke-dasharray="7">
        <rect width="100" height="100" rx="50" stroke="none"/>
        <rect x="1" y="1" width="98" height="98" rx="49" fill="none"/>
      </g>
    </g>
    <g id="Group_1103333" data-name="Group 1103333" transform="translate(10.305 11.127)">
      <g id="Group_1103332" data-name="Group 1103332" transform="translate(4.969 4.939)">
        <path id="Path_880236" data-name="Path 880236" d="M12.127,160.919c4.5-11.483,10.732-17.817,21.543-17.944,10.81.126,17.045,6.46,21.543,17.944,2.071,5.288,1.5,7.918-2.887,8.864s-11.523,1.34-18.656,1.34-14.266-.394-18.656-1.34-4.958-3.575-2.887-8.864Z" transform="translate(-10.971 -124.684)" fill="#5d689e" fill-rule="evenodd"/>
        <path id="Path_880237" data-name="Path 880237" d="M12.126,161.469c4.231-10.8,10-17.047,19.667-17.855,9.691.823,15.47,7.294,19.706,18.5,1.738,4.6,1.618,7.253-1.06,8.568a117.019,117.019,0,0,1-16.771.992c-7.133,0-14.266-.394-18.656-1.34s-4.958-3.575-2.887-8.864Z" transform="translate(-10.97 -125.235)" fill="#7986bf" fill-rule="evenodd"/>
        <path id="Path_880238" data-name="Path 880238" d="M87.364,103.359C84.506,96.525,78.959,80.244,72.608,76.4,81.8,60.172,96,66.751,100.943,76.4c-6.351,3.841-10.72,20.122-13.579,26.956Z" transform="translate(-64.077 -58.833)" fill="#323e66" fill-rule="evenodd"/>
        <path id="Path_880239" data-name="Path 880239" d="M124.935,72.2c-9.435-.612-11.927-19.329,0-19.329S134.37,71.584,124.935,72.2Z" transform="translate(-102.237 -47.048)" fill="#fdb0a0" fill-rule="evenodd"/>
        <path id="Path_880240" data-name="Path 880240" d="M123.987,72.345c-8.384-1.712-10.436-18.207,0-19.154C134.423,54.138,132.371,70.633,123.987,72.345Z" transform="translate(-102.246 -47.327)" fill="#ffcec0" fill-rule="evenodd"/>
        <path id="Path_880241" data-name="Path 880241" d="M119.428,58.667a7.995,7.995,0,0,1,15.375,0,18.893,18.893,0,0,1-15.375,0Z" transform="translate(-104.417 -47.049)" fill="#ff6161" fill-rule="evenodd"/>
        <path id="Path_880242" data-name="Path 880242" d="M72.608,28.394c8.642-9.928,19.693-9.928,28.335,0C97.058,4.967,76.493,4.967,72.608,28.394Z" transform="translate(-64.077 -10.824)" fill="#909cd1" fill-rule="evenodd"/>
        <path id="Path_880243" data-name="Path 880243" d="M174.97,20.949c4.923,0,9.847,2.482,14.168,7.446-1.942-11.714-8.055-17.57-14.168-17.57Z" transform="translate(-152.271 -10.824)" fill="#7986bf" fill-rule="evenodd"/>
      </g>
      <rect id="Rectangle_404738" data-name="Rectangle 404738" width="27.386" height="18.973" rx="5.087" transform="translate(13.975 35.036)" fill="#2dcffc"/>
      <path id="Path_880244" data-name="Path 880244" d="M76.74,228.27h23.894a.7.7,0,0,1,.7.7v17.565a.7.7,0,0,1-.7.7H76.74a.7.7,0,0,1-.7-.7V228.974a.7.7,0,0,1,.7-.7Z" transform="translate(-62.061 -193.235)" fill="#66deff"/>
      <path id="Path_880245" data-name="Path 880245" d="M0,0H9.822V4.236H0Z" transform="translate(35.757 61.063) rotate(-45)" fill="#909cd1"/>
      <path id="Path_880246" data-name="Path 880246" d="M0,0H9.822V1.448H0Z" transform="translate(37.729 63.034) rotate(-45)" fill="#7986bf"/>
      <circle id="Ellipse_11725" data-name="Ellipse 11725" cx="17.948" cy="17.948" r="17.948" transform="translate(34.876 60.55) rotate(-82.996)" fill="#2a92fa"/>
      <path id="Path_880247" data-name="Path 880247" d="M259.388,170.266A17.948,17.948,0,1,0,276.9,188.209,17.948,17.948,0,0,0,259.388,170.266Zm-.441,4.231c.148,0,.294,0,.441.008s.293-.008.441-.008a13.712,13.712,0,0,1,0,27.424c-.148,0-.295,0-.441-.008s-.293.008-.441.008a13.712,13.712,0,0,1,0-27.424Z" transform="translate(-204.952 -143.259)" fill="#4eb1fc" fill-rule="evenodd"/>
      <path id="Path_880248" data-name="Path 880248" d="M171.119,410.155l8.186-8.186a1.469,1.469,0,0,1,2.073,0l2.224,2.224a1.469,1.469,0,0,1,0,2.073l-8.186,8.186a3.038,3.038,0,1,1-4.3-4.3Z" transform="translate(-143.221 -342.523)" fill="#495586" fill-rule="evenodd"/>
      <path id="Path_880249" data-name="Path 880249" d="M191.76,416.088l.638.638a1.469,1.469,0,0,1,0,2.073l-8.186,8.186a3.05,3.05,0,0,1-3.77.421l11.318-11.318Z" transform="translate(-152.017 -355.057)" fill="#323e66" fill-rule="evenodd"/>
      <circle id="Ellipse_11726" data-name="Ellipse 11726" cx="13.712" cy="13.712" r="13.712" transform="translate(35.478 44.951) rotate(-45)" fill="#f3f3ff"/>
      <path id="Path_880250" data-name="Path 880250" d="M315.875,11.763l7.7,13.345a1.425,1.425,0,0,1-1.234,2.138H306.937a1.425,1.425,0,0,1-1.234-2.138l7.7-13.345a1.425,1.425,0,0,1,2.468,0Z" transform="translate(-259.771 -6.079)" fill="#e8333c" fill-rule="evenodd"/>
      <path id="Path_880251" data-name="Path 880251" d="M320.074,30.751H306.937a1.425,1.425,0,0,1-1.234-2.138l7.7-13.345a1.538,1.538,0,0,1,.1-.149,1.561,1.561,0,0,1,.1.149l7.7,13.345a1.425,1.425,0,0,1-1.234,2.138Z" transform="translate(-259.771 -9.586)" fill="#ff6161" fill-rule="evenodd"/>
      <path id="Path_880252" data-name="Path 880252" d="M310,271.567A13.194,13.194,0,0,1,319.88,276a13.226,13.226,0,0,1-19.761,0A13.194,13.194,0,0,1,310,271.567Z" transform="translate(-255.13 -230.539)" fill="#495586" fill-rule="evenodd"/>
      <path id="Path_880253" data-name="Path 880253" d="M310,271.567a13.173,13.173,0,0,1,8.589,3.169,13.958,13.958,0,0,1-9.964,4.362,13.172,13.172,0,0,1-8.5-3.1,13.194,13.194,0,0,1,9.88-4.434Z" transform="translate(-255.131 -230.539)" fill="#5d689e" fill-rule="evenodd"/>
      <circle id="Ellipse_11727" data-name="Ellipse 11727" cx="3.211" cy="3.211" r="3.211" transform="matrix(0.987, -0.16, 0.16, 0.987, 51.175, 41.662)" fill="#b6dbff"/>
      <path id="Path_880254" data-name="Path 880254" d="M357.4,279.594a1.22,1.22,0,1,0-1.22-1.22A1.222,1.222,0,0,0,357.4,279.594Z" transform="translate(-303.433 -235.354)" fill="#f3f3ff" fill-rule="evenodd"/>
      <path id="Path_880255" data-name="Path 880255" d="M53.9,17.974V17.86a.969.969,0,0,1,1.938,0v.114a.969.969,0,0,1-1.938,0Zm0-3.114V10.034a.969.969,0,0,1,1.938,0v4.825a.969.969,0,0,1-1.938,0Zm-7.14,4.66a.457.457,0,0,0,.4.686H62.583a.458.458,0,0,0,.4-.686L55.267,6.16a.458.458,0,0,0-.792,0Zm.4,2.624H62.583a2.4,2.4,0,0,0,2.075-3.592L56.945,5.192a2.4,2.4,0,0,0-4.149,0L45.084,18.551a2.4,2.4,0,0,0,2.075,3.592Zm11.8,16.472.72-1.248a.969.969,0,0,1,1.678.969l-.721,1.248a.968.968,0,1,1-1.677-.969ZM53.9,38.465v-1.73a.969.969,0,0,1,1.938,0v1.73a.969.969,0,0,1-1.938,0Zm-5.516-.129a.969.969,0,0,1,1.679-.969l.72,1.248a.968.968,0,1,1-1.677.969l-.722-1.248Zm6.485,10.593a12.276,12.276,0,0,1-8.539-3.466,12.277,12.277,0,0,1,4.722-2.851,4.181,4.181,0,1,0,7.635,0,12.266,12.266,0,0,1,4.723,2.85A12.279,12.279,0,0,1,54.871,48.929Zm0-6.858a2.242,2.242,0,1,0,2.242,2.242,2.245,2.245,0,0,0-2.242-2.242Zm10.6,2.747a14.2,14.2,0,0,0-21.209,0,.973.973,0,0,0,0,1.29,14.2,14.2,0,0,0,21.209,0A.971.971,0,0,0,65.475,44.818Zm-10.6,12.864A12.724,12.724,0,1,0,42.147,44.957,12.74,12.74,0,0,0,54.871,57.681Zm0-27.386A14.661,14.661,0,1,0,69.531,44.957,14.678,14.678,0,0,0,54.871,30.3Zm0,31.615A16.953,16.953,0,1,0,37.918,44.957,16.974,16.974,0,0,0,54.871,61.911Zm-14.09-1.243-1.62-1.62,1.574-1.574a18.61,18.61,0,0,0,1.62,1.62l-1.574,1.574Zm-1.07,2.37-8.176,8.174a2.065,2.065,0,0,1-2.919,0,2.07,2.07,0,0,1,0-2.919l8.174-8.176a.5.5,0,0,1,.7,0l2.221,2.22a.5.5,0,0,1,0,.7ZM14.967,53.018v-17H38.234a18.869,18.869,0,0,0-.447,17H14.966ZM13.029,35.746a1.673,1.673,0,0,1,1.672-1.67h6.026a49.984,49.984,0,0,0-3.847-6.708c-3.993,2.722-7.138,7.256-9.848,14.176C5.9,44.428,5.658,46.293,6.26,47.416c.43.8,1.4,1.354,2.96,1.69,1.071.231,2.35.434,3.809.609V35.746ZM19.756,9.989a10.635,10.635,0,0,1,7.913-4.057,10.637,10.637,0,0,1,7.914,4.057A23.385,23.385,0,0,1,40.2,19.465c-3.855-3.511-8.137-5.348-12.531-5.348s-8.675,1.837-12.53,5.348a23.37,23.37,0,0,1,4.617-9.477Zm7.913,7.256a18.355,18.355,0,0,0,4.316-.505,13.935,13.935,0,0,0-8.631,0A18.375,18.375,0,0,0,27.669,17.245Zm-6.97.694a19.508,19.508,0,0,0,6.97,1.244,19.5,19.5,0,0,0,6.97-1.244,11.683,11.683,0,0,1-2.183,8.435,6.724,6.724,0,0,1-4.787,2.763,6.722,6.722,0,0,1-4.786-2.763A11.69,11.69,0,0,1,20.7,17.939Zm2.181,16.136c-2.793-5.874-5.4-9.724-7.921-11.709a24.025,24.025,0,0,1,3.709-3.255,13.7,13.7,0,0,0,2.681,8.447,8.52,8.52,0,0,0,6.258,3.515c.02,0,.041,0,.062,0s.041,0,.063,0a8.516,8.516,0,0,0,6.256-3.515,13.7,13.7,0,0,0,2.682-8.447,24.018,24.018,0,0,1,3.711,3.257c-2.476,1.969-4.843,5.743-7.356,11.707H22.879ZM42.3,30.863a19.032,19.032,0,0,0-2.867,3.212h-4.3a46.025,46.025,0,0,1,3.428-6.638A19.544,19.544,0,0,1,42.3,30.863Zm12.566-4.8a18.793,18.793,0,0,0-11.056,3.582,21.488,21.488,0,0,0-4.133-3.791,10.33,10.33,0,0,1,2.653-2.5v0a.963.963,0,0,0,.456-.984c-.941-5.679-2.927-10.4-5.741-13.651a12.533,12.533,0,0,0-9.38-4.727A12.53,12.53,0,0,0,18.29,8.721c-2.815,3.251-4.8,7.972-5.743,13.651a.966.966,0,0,0,.457.984l0,0a11.279,11.279,0,0,1,2.7,2.465c-4.288,2.955-7.635,7.761-10.476,15.013-1.37,3.5-1.578,5.812-.674,7.5.714,1.332,2.108,2.2,4.259,2.669,1.185.254,2.6.478,4.217.665v1.618A1.674,1.674,0,0,0,14.7,54.956H38.849q.317.506.667,1l-2.1,2.1a2.426,2.426,0,0,0-1.993.693l-8.174,8.176a4,4,0,0,0,5.659,5.66l8.176-8.174a2.425,2.425,0,0,0,.694-1.993l2.1-2.1A18.888,18.888,0,1,0,54.871,26.066Z" transform="translate(0 0)" fill="#021047" fill-rule="evenodd"/>
    </g>
  </g>
</svg>
