<svg id="Group_1102644" data-name="Group 1102644" xmlns="http://www.w3.org/2000/svg" width="122.487" height="122.486" viewBox="0 0 122.487 122.486">
  <rect id="Rectangle_402033" data-name="Rectangle 402033" width="122.486" height="122.486" rx="5" transform="translate(0)" fill="#bfa2f7"/>
  <g id="Group_1103364" data-name="Group 1103364" transform="translate(21.004 21.157)">
    <g id="Group_1103362" data-name="Group 1103362" transform="translate(1.29 1.29)">
      <g id="Group_1103353" data-name="Group 1103353" transform="translate(0 10.321)">
        <path id="Path_880294" data-name="Path 880294" d="M16.482,9v7.741H4.87A3.87,3.87,0,0,1,4.87,9Z" transform="translate(-1 -9)" fill="#f0d0b4"/>
      </g>
      <g id="Group_1103354" data-name="Group 1103354" transform="translate(23.222)">
        <path id="Path_880295" data-name="Path 880295" d="M47.383,52.605a2.588,2.588,0,0,0-2.58,2.58V8.741H19V1H52.543V39.833a8.954,8.954,0,0,0-2.58,6.322v6.451Z" transform="translate(-19 -1)" fill="#f0d0b4"/>
      </g>
      <g id="Group_1103355" data-name="Group 1103355" transform="translate(15.482 7.741)">
        <path id="Path_880296" data-name="Path 880296" d="M46.543,7V56.025H41.383V52.8a3.868,3.868,0,0,0-1.548-3.1l-3.612-2.709v-25.8a3.865,3.865,0,0,0-3.87-3.87H13V7H46.543Z" transform="translate(-13 -7)" fill="#e6e9ed"/>
      </g>
      <g id="Group_1103356" data-name="Group 1103356" transform="translate(7.741 18.062)">
        <path id="Path_880297" data-name="Path 880297" d="M17.321,53.7h25.8V50.479a3.868,3.868,0,0,0-1.548-3.1l-3.612-2.709V18.87A3.865,3.865,0,0,0,34.093,15H7V74.346H39.253a3.865,3.865,0,0,0,3.87-3.87v-1.29h-25.8a5.159,5.159,0,0,1-5.161-5.161V58.865A5.159,5.159,0,0,1,17.321,53.7Z" transform="translate(-7 -15)" fill="#ff826e"/>
      </g>
      <g id="Group_1103357" data-name="Group 1103357" transform="translate(0 14.191)">
        <path id="Path_880298" data-name="Path 880298" d="M4.87,15.87h3.87V75.217H4.87A3.865,3.865,0,0,1,1,71.346V12A3.865,3.865,0,0,0,4.87,15.87Z" transform="translate(-1 -12)" fill="#fc6e51"/>
      </g>
      <g id="Group_1103358" data-name="Group 1103358" transform="translate(12.901 23.222)">
        <path id="Path_880299" data-name="Path 880299" d="M11,19H31.642V29.321H11Z" transform="translate(-11 -19)" fill="#fcd770"/>
      </g>
      <g id="Group_1103359" data-name="Group 1103359" transform="translate(54.186 36.124)">
        <path id="Path_880300" data-name="Path 880300" d="M61.062,38.031v6.451H55.9V38.031a3.87,3.87,0,0,0-7.741,0v6.451H43V38.031a8.954,8.954,0,0,1,2.58-6.322l.065-.065a9.031,9.031,0,0,1,15.417,6.386Z" transform="translate(-43 -29)" fill="#969faa"/>
      </g>
      <g id="Group_1103360" data-name="Group 1103360" transform="translate(49.025 51.605)">
        <path id="Path_880301" data-name="Path 880301" d="M67.383,43.58V64.222A2.588,2.588,0,0,1,64.8,66.8H41.58A2.588,2.588,0,0,1,39,64.222v-2.58h5.161a5.159,5.159,0,0,0,5.161-5.161V51.321a5.159,5.159,0,0,0-5.161-5.161H39V43.58A2.588,2.588,0,0,1,41.58,41H64.8A2.588,2.588,0,0,1,67.383,43.58Z" transform="translate(-39 -41)" fill="#b4dd7f"/>
      </g>
      <g id="Group_1103361" data-name="Group 1103361" transform="translate(12.901 56.766)">
        <path id="Path_880302" data-name="Path 880302" d="M57.445,50.161v5.161a5.159,5.159,0,0,1-5.161,5.161H16.161A5.159,5.159,0,0,1,11,55.321V50.161A5.159,5.159,0,0,1,16.161,45H52.284A5.159,5.159,0,0,1,57.445,50.161Z" transform="translate(-11 -45)" fill="#ffeaa7"/>
      </g>
    </g>
    <g id="Group_1103363" data-name="Group 1103363">
      <path id="Path_880303" data-name="Path 880303" d="M76.118,51.605h-1.29V46.445A10.3,10.3,0,0,0,59.346,37.52V0H23.222V7.741H15.482v2.58H5.161A5.166,5.166,0,0,0,0,15.482V74.828a5.166,5.166,0,0,0,5.161,5.161H41.284a5.166,5.166,0,0,0,5.161-5.161h2.58v1.29a3.875,3.875,0,0,0,3.87,3.87H76.118a3.875,3.875,0,0,0,3.87-3.87V55.476A3.875,3.875,0,0,0,76.118,51.605Zm-3.87-5.161v5.161h-2.58V46.445a5.161,5.161,0,1,0-10.321,0v5.161h-2.58V46.445a7.741,7.741,0,1,1,15.482,0Zm-5.161,5.161H61.926V46.445a2.58,2.58,0,1,1,5.161,0ZM49.025,10.321v38.7h2.58V7.741H25.8V2.58H56.766v37.06a10.266,10.266,0,0,0-2.58,6.8v5.161H52.9a3.875,3.875,0,0,0-3.87,3.87v1.29h-2.58V54.831A5.184,5.184,0,0,0,44.379,50.7l-3.1-2.322V23.222a5.166,5.166,0,0,0-5.161-5.161H18.062V10.321Zm6.451,49.025a3.875,3.875,0,0,1,3.87,3.87v5.161a3.875,3.875,0,0,1-3.87,3.87H19.352a3.875,3.875,0,0,1-3.87-3.87V63.217a3.875,3.875,0,0,1,3.87-3.87ZM5.161,12.9H15.482v5.161H5.161a2.58,2.58,0,0,1,0-5.161ZM2.58,74.828v-54.9a5.107,5.107,0,0,0,2.58.717h2.58V77.408H5.161A2.583,2.583,0,0,1,2.58,74.828Zm38.7,2.58H10.321V20.642h25.8a2.583,2.583,0,0,1,2.58,2.58V49.67l4.127,3.1a2.593,2.593,0,0,1,1.033,2.066v1.935H19.352A6.458,6.458,0,0,0,12.9,63.217v5.161a6.458,6.458,0,0,0,6.451,6.451H43.865A2.583,2.583,0,0,1,41.284,77.408Zm36.124-1.29a1.291,1.291,0,0,1-1.29,1.29H52.9a1.291,1.291,0,0,1-1.29-1.29v-1.29h3.87a6.458,6.458,0,0,0,6.451-6.451V63.217a6.458,6.458,0,0,0-6.451-6.451h-3.87v-1.29a1.291,1.291,0,0,1,1.29-1.29H76.118a1.291,1.291,0,0,1,1.29,1.29Z"/>
      <path id="Path_880304" data-name="Path 880304" d="M14,50.58v2.58h2.58v2.58h2.58v-2.58h2.58V50.58h-2.58V48H16.58v2.58Z" transform="translate(4.062 13.926)"/>
      <path id="Path_880305" data-name="Path 880305" d="M24.58,55.741h2.58v-2.58h2.58V50.58h-2.58V48H24.58v2.58H22v2.58h2.58Z" transform="translate(6.383 13.926)"/>
      <path id="Path_880306" data-name="Path 880306" d="M32.58,55.741h2.58v-2.58h2.58V50.58h-2.58V48H32.58v2.58H30v2.58h2.58Z" transform="translate(8.704 13.926)"/>
      <path id="Path_880307" data-name="Path 880307" d="M40.58,55.741h2.58v-2.58h2.58V50.58h-2.58V48H40.58v2.58H38v2.58h2.58Z" transform="translate(11.025 13.926)"/>
      <path id="Path_880308" data-name="Path 880308" d="M16,10h2.58v2.58H16Z" transform="translate(4.642 2.901)"/>
      <path id="Path_880309" data-name="Path 880309" d="M20,10H40.642v2.58H20Z" transform="translate(5.803 2.901)"/>
      <path id="Path_880310" data-name="Path 880310" d="M33.222,18H10V30.9H33.222Zm-2.58,10.321H12.58V20.58H30.642Z" transform="translate(2.901 5.222)"/>
      <path id="Path_880311" data-name="Path 880311" d="M10,30h2.58v2.58H10Z" transform="translate(2.901 8.704)"/>
      <path id="Path_880312" data-name="Path 880312" d="M14,30H32.062v2.58H14Z" transform="translate(4.062 8.704)"/>
      <path id="Path_880313" data-name="Path 880313" d="M10,34H33.222v2.58H10Z" transform="translate(2.901 9.865)"/>
      <path id="Path_880314" data-name="Path 880314" d="M56.58,57.741H54v2.58h5.161V50H56.58Z" transform="translate(15.667 14.507)"/>
      <path id="Path_880315" data-name="Path 880315" d="M50,56h2.58v2.58H50Z" transform="translate(14.507 16.247)"/>
    </g>
  </g>
</svg>
