<svg id="Group_1102660" data-name="Group 1102660" xmlns="http://www.w3.org/2000/svg" width="122.487" height="122.486" viewBox="0 0 122.487 122.486">
  <rect id="Rectangle_402033" data-name="Rectangle 402033" width="122.486" height="122.486" rx="5" transform="translate(0)" fill="#bfa2f7"/>
  <g id="Group_1103386" data-name="Group 1103386" transform="translate(21.224 20.757)">
    <g id="Group_1103384" data-name="Group 1103384" transform="translate(1.303 1.303)">
      <g id="Group_1103379" data-name="Group 1103379" transform="translate(36.485)">
        <path id="Path_880331" data-name="Path 880331" d="M41.353,53.2A15.615,15.615,0,0,0,65.485,40.091V21.849A15.646,15.646,0,0,0,52.455,6.434l-2.606-.222A15.628,15.628,0,0,0,34.277,20.676a3.289,3.289,0,0,0-.951-.13,3.492,3.492,0,0,0-3.453,3L29,29.654V21.849a20.783,20.783,0,0,1,1.512-7.818l1.277-2.606A20.864,20.864,0,0,1,60.273,3.789l2.606,1.785A20.8,20.8,0,0,1,70.7,21.849V40.091A20.843,20.843,0,0,1,58.97,58.842L56.364,59.9a20.8,20.8,0,0,1-17.018-1.811Z" transform="translate(-29 -1)" fill="#ccd1d9"/>
      </g>
      <g id="Group_1103380" data-name="Group 1103380" transform="translate(41.698 5.212)">
        <path id="Path_880332" data-name="Path 880332" d="M48.637,54.516A15.654,15.654,0,0,1,33,38.879V20.637a15.637,15.637,0,1,1,31.273,0V38.879A15.654,15.654,0,0,1,48.637,54.516Z" transform="translate(-33 -5)" fill="#e6e9ed"/>
      </g>
      <g id="Group_1103381" data-name="Group 1103381" transform="translate(46.91 10.424)">
        <path id="Path_880333" data-name="Path 880333" d="M47.424,48.091A10.425,10.425,0,0,1,37,37.667V19.424a10.424,10.424,0,0,1,20.849,0V37.667A10.425,10.425,0,0,1,47.424,48.091Z" transform="translate(-37 -9)" fill="#ccd1d9"/>
      </g>
      <g id="Group_1103382" data-name="Group 1103382" transform="translate(52.122 15.637)">
        <path id="Path_880334" data-name="Path 880334" d="M43.372,35.712a2.992,2.992,0,0,0,.235-1.173v-.182a3.112,3.112,0,0,0-.912-2.2A3.064,3.064,0,0,0,41,31.295V18.212a5.2,5.2,0,0,1,.7-2.606l1.9-1.9a5.2,5.2,0,0,1,7.818,4.509V36.455a5.213,5.213,0,0,1-2.606,4.509l-2.606.7a5.206,5.206,0,0,1-4.326-2.306Z" transform="translate(-41 -13)" fill="#e6e9ed"/>
      </g>
      <g id="Group_1103383" data-name="Group 1103383" transform="translate(0 15.637)">
        <path id="Path_880335" data-name="Path 880335" d="M42.763,17.039A3.46,3.46,0,0,1,45.3,20.4v.2c0,.143-.013.3-.026.443L42.815,40.69a16.445,16.445,0,0,0-.117,1.968v.065a1.554,1.554,0,0,0,3,.573l4.039-10.1a3.116,3.116,0,0,1,2.88-1.955,2.17,2.17,0,0,1,.508.052,3.064,3.064,0,0,1,1.694.86,3.112,3.112,0,0,1,.912,2.2v.182a2.992,2.992,0,0,1-.235,1.173l-1.485,3.649-2.15,5.251-2.02,4.952L47.832,54.45,44,63.819V75.546H12.727V63.819L1.339,41.029A3.112,3.112,0,0,1,1,39.621a3.159,3.159,0,0,1,3.166-3.166,6.265,6.265,0,0,1,5.212,2.789l2.841,4.274a1.709,1.709,0,0,0,1.42.756,1.691,1.691,0,0,0,1.694-1.694,9.149,9.149,0,0,0-.182-1.8L11.49,22.46a4,4,0,0,1-.065-.691v-.052a3.5,3.5,0,0,1,3.505-3.505A3.488,3.488,0,0,1,18.383,21.2l3.284,21.891a1.4,1.4,0,0,0,1.381,1.186h.013a1.4,1.4,0,0,0,1.394-1.394V16.909a3.909,3.909,0,0,1,7.818,0v25.97a1.395,1.395,0,0,0,2.775.2L37.485,26.03v-.013l.873-6.111a3.492,3.492,0,0,1,3.453-3,3.289,3.289,0,0,1,.951.13Z" transform="translate(-1 -13)" fill="#f0d0b4"/>
      </g>
    </g>
    <g id="Group_1103385" data-name="Group 1103385" transform="translate(0)">
      <path id="Path_880336" data-name="Path 880336" d="M49.462,2.606A19.542,19.542,0,0,1,59.234,5.22L60.54,2.964a22.165,22.165,0,0,0-30.265,8.11l2.254,1.306A19.625,19.625,0,0,1,49.462,2.606Z" transform="translate(9.175)"/>
      <path id="Path_880337" data-name="Path 880337" d="M56,3.729,54.375,5.763A19.468,19.468,0,0,1,61.7,21.022V31.446h2.606V21.022A22.057,22.057,0,0,0,56,3.729Z" transform="translate(16.478 1.13)"/>
      <path id="Path_880338" data-name="Path 880338" d="M62.557,32.212a19.427,19.427,0,0,1-11,17.582L52.7,52.137A22.018,22.018,0,0,0,65.163,32.212V27H62.557Z" transform="translate(15.626 8.182)"/>
      <path id="Path_880339" data-name="Path 880339" d="M58.637,61.334a22.138,22.138,0,0,0,6.923-1.1l-.814-2.476A19.727,19.727,0,0,1,49.8,56.562l.981-2.4a16.9,16.9,0,0,0,24.8-14.982V23.546H72.971V39.182a14.311,14.311,0,0,1-21.2,12.564l.994-2.429a11.709,11.709,0,0,0,17.6-10.135H67.759A9.132,9.132,0,0,1,58.637,48.3a8.983,8.983,0,0,1-4.871-1.448l1-2.445a6.5,6.5,0,0,0,3.87,1.286V43.091a3.884,3.884,0,0,1-2.821-1.244l1.19-2.91a4.4,4.4,0,0,0,.328-1.669v1.914a1.3,1.3,0,1,0,2.606,0V20.94a1.3,1.3,0,1,0-2.606,0V37.082a4.369,4.369,0,0,0-2.606-4.016V20.94a3.891,3.891,0,0,1,.524-1.952L53,17.679a6.5,6.5,0,0,0-.876,3.26V32.752a4.379,4.379,0,0,0-3.293,2.692l-4.042,10.1h0a.257.257,0,0,1-.483-.155,14.485,14.485,0,0,1,.113-1.814l2.456-19.651a5.05,5.05,0,0,0,.036-.594v-.2a4.775,4.775,0,0,0-2.441-4.15A14.374,14.374,0,0,1,58.637,6.606V4A16.994,16.994,0,0,0,41.924,18.352a4.765,4.765,0,0,0-2.759,1.027,19.4,19.4,0,0,1,1.346-5.769L38.1,12.631a22.05,22.05,0,0,0-1.611,8.308v7.58L33.972,45.7a.093.093,0,0,1-.093-.093V19.637a5.212,5.212,0,1,0-10.424,0V45.605c0,.051-.04.094-.192.014L19.978,23.728a4.809,4.809,0,1,0-9.461,1.716l3.664,18.314a7.894,7.894,0,0,1,.152,1.544.41.41,0,0,1-.723.219l-2.85-4.273a7.548,7.548,0,0,0-6.3-3.37A4.471,4.471,0,0,0,0,42.345a4.518,4.518,0,0,0,.47,2L11.727,66.854V79.577H45.607V66.8L48.8,59.01a22.111,22.111,0,0,0,9.842,2.325ZM43,66.29V76.971H14.334V66.239L2.8,43.179a1.861,1.861,0,0,1,1.663-2.693,4.953,4.953,0,0,1,4.128,2.209l2.85,4.273a3,3,0,0,0,5.5-1.664,10.576,10.576,0,0,0-.2-2.055L13.073,24.936a2.487,2.487,0,0,1-.043-.5,2.2,2.2,0,0,1,4.37-.326l3.285,21.89a2.7,2.7,0,0,0,5.375-.4V19.637a2.606,2.606,0,1,1,5.212,0V45.605a2.7,2.7,0,0,0,5.371.382l3.31-23.171a2.186,2.186,0,0,1,4.35.31v.2a2.074,2.074,0,0,1-.017.271L41.832,43.248a17.158,17.158,0,0,0-.134,2.2,2.857,2.857,0,0,0,5.509,1.061l4.042-10.1a1.8,1.8,0,0,1,1.673-1.134h0a1.8,1.8,0,0,1,1.8,1.8v.186a1.788,1.788,0,0,1-.136.683Z" transform="translate(0 1.212)"/>
      <path id="Path_880340" data-name="Path 880340" d="M61.384,20.885A16.889,16.889,0,0,0,47.267,4.18l-.433,2.571A14.286,14.286,0,0,1,58.778,20.885Z" transform="translate(14.193 1.267)"/>
      <path id="Path_880341" data-name="Path 880341" d="M59.434,35.364V19.727A11.728,11.728,0,0,0,36.07,18.263l2.585.323a9.122,9.122,0,0,1,18.172,1.141V35.364Z" transform="translate(10.931 2.424)"/>
      <path id="Path_880342" data-name="Path 880342" d="M47.71,40.143,49.018,42.4a6.539,6.539,0,0,0,3.255-5.64V18.515A6.514,6.514,0,0,0,42.5,12.874L43.8,15.129a3.91,3.91,0,0,1,5.862,3.387V36.758a3.924,3.924,0,0,1-1.957,3.385Z" transform="translate(12.879 3.637)"/>
      <path id="Path_880343" data-name="Path 880343" d="M40,50h2.606v2.606H40Z" transform="translate(12.122 15.152)"/>
      <path id="Path_880344" data-name="Path 880344" d="M44,50H62.243v2.606H44Z" transform="translate(13.334 15.152)"/>
      <path id="Path_880345" data-name="Path 880345" d="M40,54H63.455v2.606H40Z" transform="translate(12.122 16.365)"/>
    </g>
  </g>
</svg>
