<svg xmlns="http://www.w3.org/2000/svg" xmlns:xlink="http://www.w3.org/1999/xlink" width="170" height="110" viewBox="0 0 170 110">
  <defs>
    <clipPath id="clip-path">
      <rect id="Rectangle_404695" data-name="Rectangle 404695" width="104.884" height="15.848" transform="translate(0 0)" fill="none" stroke="#6018ec" stroke-width="1"/>
    </clipPath>
    <clipPath id="clip-path-3">
      <rect id="Rectangle_404696" data-name="Rectangle 404696" width="41.456" height="41.456" transform="translate(-1 -1)" fill="none" stroke="#6018ec" stroke-width="2"/>
    </clipPath>
  </defs>
  <g id="Group_1103436" data-name="Group 1103436" transform="translate(-304.755 -5649)">
    <path id="Path_880380" data-name="Path 880380" d="M10,0H160a10,10,0,0,1,10,10v90a10,10,0,0,1-10,10H10A10,10,0,0,1,0,100V10A10,10,0,0,1,10,0Z" transform="translate(304.755 5649)" fill="#ffc3b7"/>
    <g id="Group_1103434" data-name="Group 1103434" transform="translate(3524.691 11631)">
      <g id="Group_1103244" data-name="Group 1103244" transform="translate(-3216.937 -5907.988)">
        <g id="Group_1103243" data-name="Group 1103243" clip-path="url(#clip-path)">
          <line id="Line_4997" data-name="Line 4997" x1="15.23" y2="15.23" transform="translate(0.309 0.309)" fill="none" stroke="#6018ec" stroke-miterlimit="10" stroke-width="0.874"/>
          <line id="Line_4998" data-name="Line 4998" x1="15.23" y2="15.23" transform="translate(7.729 0.309)" fill="none" stroke="#6018ec" stroke-miterlimit="10" stroke-width="0.874"/>
          <line id="Line_4999" data-name="Line 4999" x1="15.23" y2="15.23" transform="translate(15.148 0.309)" fill="none" stroke="#6018ec" stroke-miterlimit="10" stroke-width="0.874"/>
          <line id="Line_5000" data-name="Line 5000" x1="15.23" y2="15.23" transform="translate(22.568 0.309)" fill="none" stroke="#6018ec" stroke-miterlimit="10" stroke-width="0.874"/>
          <line id="Line_5001" data-name="Line 5001" x1="15.23" y2="15.23" transform="translate(29.988 0.309)" fill="none" stroke="#6018ec" stroke-miterlimit="10" stroke-width="0.874"/>
          <line id="Line_5002" data-name="Line 5002" x1="15.23" y2="15.23" transform="translate(37.408 0.309)" fill="none" stroke="#6018ec" stroke-miterlimit="10" stroke-width="0.874"/>
          <line id="Line_5003" data-name="Line 5003" x1="15.23" y2="15.23" transform="translate(44.827 0.309)" fill="none" stroke="#6018ec" stroke-miterlimit="10" stroke-width="0.874"/>
          <line id="Line_5004" data-name="Line 5004" x1="15.23" y2="15.23" transform="translate(52.247 0.309)" fill="none" stroke="#6018ec" stroke-miterlimit="10" stroke-width="0.874"/>
          <line id="Line_5005" data-name="Line 5005" x1="15.23" y2="15.23" transform="translate(59.667 0.309)" fill="none" stroke="#6018ec" stroke-miterlimit="10" stroke-width="0.874"/>
          <line id="Line_5006" data-name="Line 5006" x1="15.23" y2="15.23" transform="translate(67.086 0.309)" fill="none" stroke="#6018ec" stroke-miterlimit="10" stroke-width="0.874"/>
          <line id="Line_5007" data-name="Line 5007" x1="15.23" y2="15.23" transform="translate(74.506 0.309)" fill="none" stroke="#6018ec" stroke-miterlimit="10" stroke-width="0.874"/>
          <line id="Line_5008" data-name="Line 5008" x1="15.23" y2="15.23" transform="translate(81.925 0.309)" fill="none" stroke="#6018ec" stroke-miterlimit="10" stroke-width="0.874"/>
          <line id="Line_5009" data-name="Line 5009" x1="15.23" y2="15.23" transform="translate(89.345 0.309)" fill="none" stroke="#6018ec" stroke-miterlimit="10" stroke-width="0.874"/>
        </g>
      </g>
      <g id="Group_1103249" data-name="Group 1103249" transform="translate(-3157.937 -5953.988)">
        <g id="Group_1103243-2" data-name="Group 1103243" clip-path="url(#clip-path)">
          <line id="Line_4997-2" data-name="Line 4997" x1="15.23" y2="15.23" transform="translate(0.309 0.309)" fill="none" stroke="#6018ec" stroke-miterlimit="10" stroke-width="0.874"/>
          <line id="Line_4998-2" data-name="Line 4998" x1="15.23" y2="15.23" transform="translate(7.729 0.309)" fill="none" stroke="#6018ec" stroke-miterlimit="10" stroke-width="0.874"/>
          <line id="Line_4999-2" data-name="Line 4999" x1="15.23" y2="15.23" transform="translate(15.148 0.309)" fill="none" stroke="#6018ec" stroke-miterlimit="10" stroke-width="0.874"/>
          <line id="Line_5000-2" data-name="Line 5000" x1="15.23" y2="15.23" transform="translate(22.568 0.309)" fill="none" stroke="#6018ec" stroke-miterlimit="10" stroke-width="0.874"/>
          <line id="Line_5001-2" data-name="Line 5001" x1="15.23" y2="15.23" transform="translate(29.988 0.309)" fill="none" stroke="#6018ec" stroke-miterlimit="10" stroke-width="0.874"/>
          <line id="Line_5002-2" data-name="Line 5002" x1="15.23" y2="15.23" transform="translate(37.408 0.309)" fill="none" stroke="#6018ec" stroke-miterlimit="10" stroke-width="0.874"/>
          <line id="Line_5003-2" data-name="Line 5003" x1="15.23" y2="15.23" transform="translate(44.827 0.309)" fill="none" stroke="#6018ec" stroke-miterlimit="10" stroke-width="0.874"/>
          <line id="Line_5004-2" data-name="Line 5004" x1="15.23" y2="15.23" transform="translate(52.247 0.309)" fill="none" stroke="#6018ec" stroke-miterlimit="10" stroke-width="0.874"/>
          <line id="Line_5005-2" data-name="Line 5005" x1="15.23" y2="15.23" transform="translate(59.667 0.309)" fill="none" stroke="#6018ec" stroke-miterlimit="10" stroke-width="0.874"/>
          <line id="Line_5006-2" data-name="Line 5006" x1="15.23" y2="15.23" transform="translate(67.086 0.309)" fill="none" stroke="#6018ec" stroke-miterlimit="10" stroke-width="0.874"/>
          <line id="Line_5007-2" data-name="Line 5007" x1="15.23" y2="15.23" transform="translate(74.506 0.309)" fill="none" stroke="#6018ec" stroke-miterlimit="10" stroke-width="0.874"/>
          <line id="Line_5008-2" data-name="Line 5008" x1="15.23" y2="15.23" transform="translate(81.925 0.309)" fill="none" stroke="#6018ec" stroke-miterlimit="10" stroke-width="0.874"/>
          <line id="Line_5009-2" data-name="Line 5009" x1="15.23" y2="15.23" transform="translate(89.345 0.309)" fill="none" stroke="#6018ec" stroke-miterlimit="10" stroke-width="0.874"/>
        </g>
      </g>
      <g id="Group_1103250" data-name="Group 1103250" transform="translate(-3117.937 -5942.721)">
        <g id="Group_1103245" data-name="Group 1103245" transform="translate(-2 -2)" clip-path="url(#clip-path-3)">
          <path id="Path_879967" data-name="Path 879967" d="M38.554,18.242A17.742,17.742,0,1,0,20.812,35.985" transform="translate(-1.323 1.247)" fill="none" stroke="#6018ec" stroke-miterlimit="10" stroke-width="3"/>
          <path id="Path_879968" data-name="Path 879968" d="M.5,114.047A18.241,18.241,0,0,0,18.721,95.826h-.957A17.283,17.283,0,0,1,.5,113.09Z" transform="translate(18.989 -76.337)" fill="none" stroke="#6018ec" stroke-miterlimit="10" stroke-width="1"/>
        </g>
      </g>
      <circle id="Ellipse_11703" data-name="Ellipse 11703" cx="33.5" cy="33.5" r="33.5" transform="translate(-3193.322 -5961)" fill="#b6c3dc"/>
    </g>
    <g id="Group_1103435" data-name="Group 1103435" transform="translate(348.465 5663.71)">
      <g id="Group_1103431" data-name="Group 1103431" transform="translate(1.332 1.332)">
        <g id="Group_1103411" data-name="Group 1103411" transform="translate(0 69.26)">
          <path id="Path_880381" data-name="Path 880381" d="M1,53v2.664a8,8,0,0,0,7.992,7.992H72.924a8,8,0,0,0,7.992-7.992V53Z" transform="translate(-1 -53)" fill="#969faa"/>
        </g>
        <g id="Group_1103412" data-name="Group 1103412" transform="translate(29.302 69.26)">
          <path id="Path_880382" data-name="Path 880382" d="M44.311,53v2.664a2.672,2.672,0,0,1-2.664,2.664H25.664A2.672,2.672,0,0,1,23,55.664V53Z" transform="translate(-23 -53)" fill="#fcd770"/>
        </g>
        <g id="Group_1103413" data-name="Group 1103413" transform="translate(10.655 23.975)">
          <path id="Path_880383" data-name="Path 880383" d="M66.273,58.958H10.332A1.332,1.332,0,0,1,9,57.626V20.332A1.332,1.332,0,0,1,10.332,19H66.273A1.332,1.332,0,0,1,67.6,20.332V57.626A1.332,1.332,0,0,1,66.273,58.958Z" transform="translate(-9 -19)" fill="#69d6f4"/>
        </g>
        <g id="Group_1103414" data-name="Group 1103414" transform="translate(5.328 18.647)">
          <path id="Path_880384" data-name="Path 880384" d="M23.647,15l.213.08a3.66,3.66,0,0,0-.213,1.265,3.621,3.621,0,0,0,.24,1.319H15.655v2.664h-4a1.336,1.336,0,0,0-1.332,1.332V58.953a1.336,1.336,0,0,0,1.332,1.332H67.6a1.336,1.336,0,0,0,1.332-1.332V21.66A1.336,1.336,0,0,0,67.6,20.328h-4V17.664H55.373a3.62,3.62,0,0,0,.24-1.319A3.66,3.66,0,0,0,55.4,15.08l.213-.08H68.932a5.326,5.326,0,0,1,5.328,5.328V65.613H5V20.328A5.326,5.326,0,0,1,10.328,15Z" transform="translate(-5 -15)" fill="#ccd1d9"/>
        </g>
        <g id="Group_1103415" data-name="Group 1103415" transform="translate(43.953 31.966)">
          <path id="Path_880385" data-name="Path 880385" d="M35.585,26.718a9.713,9.713,0,0,0,1.971-1.545A1.106,1.106,0,0,0,37.743,25H53.979v5.328H34V27.4a6.7,6.7,0,0,0,1.585-.679Z" transform="translate(-34 -25)" fill="#969faa"/>
        </g>
        <g id="Group_1103416" data-name="Group 1103416" transform="translate(50.427 21.311)">
          <path id="Path_880386" data-name="Path 880386" d="M40.378,19.664h.027A3.944,3.944,0,0,0,44.134,17h8.231v5.328H38.86a10.177,10.177,0,0,0,.186-1.918v-.746Z" transform="translate(-38.86 -17)" fill="#969faa"/>
        </g>
        <g id="Group_1103417" data-name="Group 1103417" transform="translate(55.181 10.655)">
          <path id="Path_880387" data-name="Path 880387" d="M43.136,9h8.045v5.328H42.43a13.635,13.635,0,0,0,.759-4.156A8.525,8.525,0,0,0,43.123,9Z" transform="translate(-42.43 -9)" fill="#969faa"/>
        </g>
        <g id="Group_1103418" data-name="Group 1103418" transform="translate(15.983 10.655)">
          <path id="Path_880388" data-name="Path 880388" d="M21.751,14.328H13V9h8.058a8.526,8.526,0,0,0-.067,1.172,11.6,11.6,0,0,0,.759,4.156Z" transform="translate(-13 -9)" fill="#969faa"/>
        </g>
        <g id="Group_1103419" data-name="Group 1103419" transform="translate(15.983 21.311)">
          <path id="Path_880389" data-name="Path 880389" d="M26.319,19.664v.746a10.178,10.178,0,0,0,.186,1.918H13V17h8.231a3.779,3.779,0,0,0,.932,1.492,3.955,3.955,0,0,0,2.81,1.172h1.345Z" transform="translate(-13 -17)" fill="#969faa"/>
        </g>
        <g id="Group_1103420" data-name="Group 1103420" transform="translate(15.983 31.966)">
          <path id="Path_880390" data-name="Path 880390" d="M31.394,26.718a6.7,6.7,0,0,0,1.585.679v2.93H13V25H29.236a1.106,1.106,0,0,0,.186.173,9.713,9.713,0,0,0,1.971,1.545Z" transform="translate(-13 -25)" fill="#969faa"/>
        </g>
        <g id="Group_1103421" data-name="Group 1103421" transform="translate(25.626 38.626)">
          <path id="Path_880391" data-name="Path 880391" d="M21.279,39.323h-.027V36.66a2.693,2.693,0,0,0-1.012-2.091,11.994,11.994,0,0,1,6.66-3.836L30.576,30a4,4,0,0,0,7.992,0l3.676.733a11.994,11.994,0,0,1,6.66,3.836,2.693,2.693,0,0,0-1.012,2.091v2.664Z" transform="translate(-20.24 -30)" fill="#ff826e"/>
        </g>
        <g id="Group_1103422" data-name="Group 1103422" transform="translate(23.975 47.949)">
          <path id="Path_880392" data-name="Path 880392" d="M21.69,37H48.3v2.664a2.672,2.672,0,0,0,2.664,2.664V52.983H19V42.328a2.672,2.672,0,0,0,2.664-2.664V37Z" transform="translate(-19 -37)" fill="#e6e9ed"/>
        </g>
        <g id="Group_1103423" data-name="Group 1103423" transform="translate(23.975)">
          <path id="Path_880393" data-name="Path 880393" d="M23,16.983a4.015,4.015,0,0,0-2.757,1.105,8.944,8.944,0,0,1-.479-1.105A11.6,11.6,0,0,1,19,12.827a8.526,8.526,0,0,1,.067-1.172A11.806,11.806,0,0,1,30.827,1h8.311A11.817,11.817,0,0,1,50.9,11.655a8.526,8.526,0,0,1,.067,1.172,13.635,13.635,0,0,1-.759,4.156,8.943,8.943,0,0,1-.479,1.105,3.966,3.966,0,0,0-2.757-1.105H45.638l-2.77-.919a7.732,7.732,0,0,0-2.517-.413h-2.7a8,8,0,0,1-7.033-4.182l-.959.186-1.292.32a5.354,5.354,0,0,0-4.036,5.008Z" transform="translate(-19 -1)" fill="#b27946"/>
        </g>
        <g id="Group_1103424" data-name="Group 1103424" transform="translate(18.647 42.621)">
          <path id="Path_880394" data-name="Path 880394" d="M22.992,38.328v2.664a2.672,2.672,0,0,1-2.664,2.664H19a3.99,3.99,0,0,1-4-4V37a3.99,3.99,0,0,1,4-4h1.332a2.642,2.642,0,0,1,1.652.573,2.693,2.693,0,0,1,1.012,2.091Z" transform="translate(-15 -33)" fill="#f0d0b4"/>
        </g>
        <g id="Group_1103425" data-name="Group 1103425" transform="translate(53.277 42.621)">
          <path id="Path_880395" data-name="Path 880395" d="M48.992,37V39.66a3.99,3.99,0,0,1-4,4H43.664A2.672,2.672,0,0,1,41,40.992V35.664a2.693,2.693,0,0,1,1.012-2.091A2.642,2.642,0,0,1,43.664,33H45A3.99,3.99,0,0,1,48.992,37Z" transform="translate(-41 -33)" fill="#f0d0b4"/>
        </g>
        <g id="Group_1103426" data-name="Group 1103426" transform="translate(50.613 15.983)">
          <path id="Path_880396" data-name="Path 880396" d="M44.115,15.744a3.66,3.66,0,0,1,.213,1.265,3.621,3.621,0,0,1-.24,1.319,3.944,3.944,0,0,1-3.729,2.664H39V13h1.332a3.966,3.966,0,0,1,2.757,1.105l.067.067Z" transform="translate(-39 -13)" fill="#f0d0b4"/>
        </g>
        <g id="Group_1103427" data-name="Group 1103427" transform="translate(35.962 34.364)">
          <path id="Path_880397" data-name="Path 880397" d="M35.992,29.73v1.332a4,4,0,1,1-7.992,0V26.8c1.745.266,1.785.266,1.838.266h4.315a6.526,6.526,0,0,0,1.838-.266Z" transform="translate(-28 -26.8)" fill="#f0d0b4"/>
        </g>
        <g id="Group_1103428" data-name="Group 1103428" transform="translate(29.302 10.469)">
          <path id="Path_880398" data-name="Path 880398" d="M23,22.366V14.374a5.354,5.354,0,0,1,4.036-5.008l1.292-.32.959-.186a8,8,0,0,0,7.033,4.182h2.7a7.732,7.732,0,0,1,2.517.413l2.77.919v8.737a10.177,10.177,0,0,1-.186,1.918,9.864,9.864,0,0,1-1.172,3.223,10.019,10.019,0,0,1-1.558,2.1,1.106,1.106,0,0,1-.186.173l-1.692-6.207a2.666,2.666,0,0,0-2.571-1.958h-6.58a2.666,2.666,0,0,0-2.571,1.958L26.1,30.53a1.106,1.106,0,0,1-.186-.173,10.4,10.4,0,0,1-2.73-5.328A10.178,10.178,0,0,1,23,23.112Z" transform="translate(-23 -8.86)" fill="#f0d0b4"/>
        </g>
        <g id="Group_1103429" data-name="Group 1103429" transform="translate(23.975 15.983)">
          <path id="Path_880399" data-name="Path 880399" d="M24.328,13v7.992H22.982a3.955,3.955,0,0,1-2.81-1.172,3.779,3.779,0,0,1-.932-1.492A3.62,3.62,0,0,1,19,17.009a3.66,3.66,0,0,1,.213-1.265A3.965,3.965,0,0,1,23,13Z" transform="translate(-19 -13)" fill="#f0d0b4"/>
        </g>
        <g id="Group_1103430" data-name="Group 1103430" transform="translate(32.406 23.975)">
          <path id="Path_880400" data-name="Path 880400" d="M36.878,29.389a6.526,6.526,0,0,1-1.838.266H30.724c-.053,0-.093,0-1.838-.266A6.7,6.7,0,0,1,27.3,28.71a9.713,9.713,0,0,1-1.971-1.545l1.692-6.207A2.666,2.666,0,0,1,29.592,19h6.58a2.666,2.666,0,0,1,2.571,1.958l1.692,6.207a9.713,9.713,0,0,1-1.971,1.545,6.7,6.7,0,0,1-1.585.679Z" transform="translate(-25.33 -19)" fill="#d3a06c"/>
        </g>
      </g>
      <g id="Group_1103432" data-name="Group 1103432">
        <path id="Path_880401" data-name="Path 880401" d="M77.251,64.613V20.66A6.667,6.667,0,0,0,70.592,14H69.26v2.664h1.332a4,4,0,0,1,4,4V64.613H7.992V20.66a4,4,0,0,1,4-4h1.332V14H11.987a6.667,6.667,0,0,0-6.66,6.66V64.613H0v4a9.335,9.335,0,0,0,9.323,9.323H73.256a9.335,9.335,0,0,0,9.323-9.323v-4ZM31.966,67.277H50.613v1.332a1.332,1.332,0,0,1-1.332,1.332H33.3a1.332,1.332,0,0,1-1.332-1.332Zm47.949,1.332a6.667,6.667,0,0,1-6.66,6.66H9.323a6.667,6.667,0,0,1-6.66-6.66V67.277H29.3v1.332a4,4,0,0,0,4,4H49.281a4,4,0,0,0,4-4V67.277H79.915Z" transform="translate(0 4.647)"/>
        <path id="Path_880402" data-name="Path 880402" d="M28.02,23.774,30,25.554a2.75,2.75,0,0,1,3.974,0l1.982-1.779a5.327,5.327,0,0,0-7.938,0Z" transform="translate(9.3 7.302)"/>
        <path id="Path_880403" data-name="Path 880403" d="M24,40h2.664v2.664H24Z" transform="translate(7.966 13.277)"/>
        <path id="Path_880404" data-name="Path 880404" d="M28,40H41.319v2.664H28Z" transform="translate(9.294 13.277)"/>
        <path id="Path_880405" data-name="Path 880405" d="M24,44H42.647v2.664H24Z" transform="translate(7.966 14.605)"/>
        <path id="Path_880406" data-name="Path 880406" d="M13.328,21.311v2.664H10.664A2.667,2.667,0,0,0,8,26.638V63.932A2.667,2.667,0,0,0,10.664,66.6H66.6a2.667,2.667,0,0,0,2.664-2.664V26.638A2.667,2.667,0,0,0,66.6,23.975H63.941V21.311H55.949a5.3,5.3,0,0,0-.745-2.664h8.736V10.655H55.7A13.18,13.18,0,0,0,42.784,0h-8.3A13.181,13.181,0,0,0,21.566,10.655H13.328v7.992h8.739a5.3,5.3,0,0,0-.745,2.664Zm2.664,2.664h6.063a5.308,5.308,0,0,0,4.594,2.664H15.992Zm10.654-5.328v5.328h-.017a2.647,2.647,0,0,1-2.644-2.644,2.677,2.677,0,0,1,2.661-2.684ZM10.664,26.638h2.664V29.3h13.8a11.885,11.885,0,0,0,1.136,2.664H13.328v7.992H28.685a13.155,13.155,0,0,0-4.647,2.926,3.964,3.964,0,0,0-1.387-.262H21.319a5.333,5.333,0,0,0-5.328,5.328v2.664a5.333,5.333,0,0,0,5.328,5.328v7.992H10.664ZM41.3,17.315H44a6.647,6.647,0,0,1,2.106.341l1.855.619,0,7.772A9.131,9.131,0,0,1,46.77,30.54l-.987-3.62a4,4,0,0,0-3.855-2.945H35.342a4.006,4.006,0,0,0-3.856,2.945L30.5,30.538a9.12,9.12,0,0,1-1.189-4.49V17.48A3.993,3.993,0,0,1,32.336,13.6l1.293-.322A9.319,9.319,0,0,0,41.3,17.315Zm11.989,4.016a2.65,2.65,0,0,1-2.664,2.644V18.647A2.676,2.676,0,0,1,53.287,21.331Zm-29.3,25.287v5.328a1.332,1.332,0,0,1-1.332,1.332H21.319a2.667,2.667,0,0,1-2.664-2.664V47.949a2.667,2.667,0,0,1,2.664-2.664h1.332A1.332,1.332,0,0,1,23.983,46.617Zm0,9.078a3.99,3.99,0,0,0,2.664-3.751V50.613H50.621v1.332A3.99,3.99,0,0,0,53.285,55.7v8.237h-29.3Zm30.634-2.419a1.332,1.332,0,0,1-1.332-1.332V46.617a1.332,1.332,0,0,1,1.332-1.332h1.332a2.667,2.667,0,0,1,2.664,2.664v2.664a2.667,2.667,0,0,1-2.664,2.664Zm-4-6.66v1.332H26.647V46.617a3.945,3.945,0,0,0-.545-1.977A10.536,10.536,0,0,1,31.217,42l2.352-.47a5.293,5.293,0,0,0,10.129,0L46.049,42a10.549,10.549,0,0,1,5.115,2.641A3.965,3.965,0,0,0,50.621,46.617ZM41.3,39.964a2.665,2.665,0,0,1-5.329,0v-2.7c.17.011.34.035.511.035h4.311c.17,0,.34-.024.509-.035Zm2.232-6.094a5.344,5.344,0,0,1-2.741.759H36.48a5.323,5.323,0,0,1-2.744-.761,9.057,9.057,0,0,1-1.156-.84l1.474-5.409a1.336,1.336,0,0,1,1.285-.982h6.586a1.335,1.335,0,0,1,1.285.98l1.474,5.41A8.836,8.836,0,0,1,43.532,33.871Zm-13.141.759a11.661,11.661,0,0,0,1.977,1.525,8.161,8.161,0,0,0,.936.479v.659H15.992V34.63Zm13.574,2.664v-.661a7.85,7.85,0,0,0,.936-.479,11.645,11.645,0,0,0,1.977-1.525h14.4v2.664H43.965ZM66.6,26.638V63.932H55.949V55.941a5.333,5.333,0,0,0,5.328-5.328V47.949a5.333,5.333,0,0,0-5.328-5.328H54.617a3.972,3.972,0,0,0-1.388.262,13.137,13.137,0,0,0-4.647-2.926H63.941V31.966H49.011A11.947,11.947,0,0,0,50.147,29.3H63.941V26.638Zm-5.328,0H50.643a5.294,5.294,0,0,0,4.575-2.664h6.059Zm0-10.655H55.632a13.187,13.187,0,0,0,.308-2.664h5.337ZM34.484,2.664h8.3a10.462,10.462,0,0,1,9.964,13.771,5.258,5.258,0,0,0-2.127-.452V14.651a6.667,6.667,0,0,0-6.66-6.66v2.664a4,4,0,0,1,4,4v.815l-1.012-.337A9.321,9.321,0,0,0,44,14.651H41.3a6.667,6.667,0,0,1-6.66-6.66H31.975a9.256,9.256,0,0,0,.448,2.844l-.731.182a6.638,6.638,0,0,0-4.855,4.965H26.65a5.292,5.292,0,0,0-2.13.452A10.462,10.462,0,0,1,34.484,2.664ZM15.992,13.319h5.337a13.2,13.2,0,0,0,.308,2.664H15.992Z" transform="translate(2.655)"/>
      </g>
    </g>
  </g>
</svg>
