<svg xmlns="http://www.w3.org/2000/svg" width="60" height="60" viewBox="0 0 60 60">
  <g id="Group_1103494" data-name="Group 1103494" transform="translate(-279.816 -1198.717)">
    <g id="Group_1072053" data-name="Group 1072053" transform="translate(279.816 1198.717)">
      <circle id="Ellipse_4742" data-name="Ellipse 4742" cx="30" cy="30" r="30" transform="translate(0)" fill="#a2f166"/>
    </g>
    <path id="headset-solid" d="M18.908,3.545A15.361,15.361,0,0,0,3.545,18.908v2.954a1.773,1.773,0,0,1-3.545,0V18.908a18.908,18.908,0,0,1,37.817,0V29.552a6.5,6.5,0,0,1-6.507,6.5l-8.147-.007a3.551,3.551,0,0,1-3.073,1.773H17.727a3.545,3.545,0,1,1,0-7.091H20.09A3.551,3.551,0,0,1,23.163,32.5l8.154.007a2.954,2.954,0,0,0,2.954-2.954V18.908A15.361,15.361,0,0,0,18.908,3.545ZM10.636,15.363h1.182a2.361,2.361,0,0,1,2.364,2.364V26a2.361,2.361,0,0,1-2.364,2.364H10.636a4.731,4.731,0,0,1-4.727-4.727V20.09A4.731,4.731,0,0,1,10.636,15.363Zm16.545,0a4.731,4.731,0,0,1,4.727,4.727v3.545a4.731,4.731,0,0,1-4.727,4.727H26A2.361,2.361,0,0,1,23.636,26V17.727A2.361,2.361,0,0,1,26,15.363Z" transform="translate(290.908 1209.808)" fill="#0f398d"/>
  </g>
</svg>
