<svg xmlns="http://www.w3.org/2000/svg" width="60" height="60" viewBox="0 0 60 60">
  <g id="Group_1103496" data-name="Group 1103496" transform="translate(-279.816 -1198.717)">
    <g id="Group_1072053" data-name="Group 1072053" transform="translate(279.816 1198.717)">
      <circle id="Ellipse_4742" data-name="Ellipse 4742" cx="30" cy="30" r="30" transform="translate(0)" fill="#a2f166"/>
    </g>
    <path id="building-shield-solid" d="M0,3.193A3.194,3.194,0,0,1,3.193,0H22.352a3.194,3.194,0,0,1,3.193,3.193V13.771L22.725,14.9h-4.63a1.068,1.068,0,0,0-1.064,1.064v4.258a1.513,1.513,0,0,0,.013.173c.153,3.865,1.6,9.633,6.566,13.4a3.172,3.172,0,0,1-1.257.259H15.966V28.739a3.193,3.193,0,0,0-6.386,0v5.322H3.193A3.194,3.194,0,0,1,0,30.867ZM5.322,14.9a1.068,1.068,0,0,0-1.064,1.064v2.129a1.068,1.068,0,0,0,1.064,1.064H7.451a1.068,1.068,0,0,0,1.064-1.064V15.966A1.068,1.068,0,0,0,7.451,14.9Zm5.322,1.064v2.129a1.068,1.068,0,0,0,1.064,1.064h2.129A1.068,1.068,0,0,0,14.9,18.095V15.966A1.068,1.068,0,0,0,13.837,14.9H11.708A1.068,1.068,0,0,0,10.644,15.966ZM4.258,7.451V9.58a1.068,1.068,0,0,0,1.064,1.064H7.451A1.068,1.068,0,0,0,8.515,9.58V7.451A1.068,1.068,0,0,0,7.451,6.386H5.322A1.068,1.068,0,0,0,4.258,7.451Zm7.451-1.064a1.068,1.068,0,0,0-1.064,1.064V9.58a1.068,1.068,0,0,0,1.064,1.064h2.129A1.068,1.068,0,0,0,14.9,9.58V7.451a1.068,1.068,0,0,0-1.064-1.064ZM17.03,7.451V9.58a1.068,1.068,0,0,0,1.064,1.064h2.129A1.068,1.068,0,0,0,21.288,9.58V7.451a1.068,1.068,0,0,0-1.064-1.064H18.095A1.068,1.068,0,0,0,17.03,7.451Zm11.116,7.564a1.585,1.585,0,0,1,1.184,0l7.983,3.193a1.6,1.6,0,0,1,1,1.484c0,4.211-1.723,11.229-8.968,14.25a1.58,1.58,0,0,1-1.231,0c-7.238-3.02-8.961-10.039-8.961-14.25a1.6,1.6,0,0,1,1-1.484l7.983-3.193Zm6.939,5.741-6.346-2.541V30.708a11.693,11.693,0,0,0,6.346-9.959Z" transform="translate(290.657 1211.684)" fill="#0f398d"/>
  </g>
</svg>
