<svg xmlns="http://www.w3.org/2000/svg" width="60" height="60" viewBox="0 0 60 60">
  <g id="Group_1103493" data-name="Group 1103493" transform="translate(-279.816 -1198.717)">
    <g id="Group_1072053" data-name="Group 1072053" transform="translate(279.816 1198.717)">
      <circle id="Ellipse_4742" data-name="Ellipse 4742" cx="30" cy="30" r="30" transform="translate(0)" fill="#a2f166"/>
    </g>
    <g id="Group_1103450" data-name="Group 1103450" transform="translate(285.883 1204.717)">
      <path id="Path_880423" data-name="Path 880423" d="M13.5,10.1C13.5,7.774,24,6,24,6s10.5,1.774,10.5,4.1a5.341,5.341,0,0,1-1.909,4.4H15.409A5.342,5.342,0,0,1,13.5,10.1Zm12,.4A1.5,1.5,0,1,1,24,9,1.5,1.5,0,0,1,25.5,10.5Z" fill="#0f398d" fill-rule="evenodd"/>
      <path id="Path_880424" data-name="Path 880424" d="M31.814,18.279A2.523,2.523,0,0,0,32.988,16H15.012a2.523,2.523,0,0,0,1.173,2.279,8,8,0,1,0,15.629,0ZM24,20a18.766,18.766,0,0,0,5.952-.766A6.083,6.083,0,0,1,30,20a6,6,0,0,1-12,0,6.083,6.083,0,0,1,.048-.766A18.766,18.766,0,0,0,24,20Z" fill="#0f398d" fill-rule="evenodd"/>
      <path id="Path_880425" data-name="Path 880425" d="M25.5,30a1,1,0,0,1,1,1v1.382a1,1,0,0,1-.553.894L25.5,33.5l.577,2.885,4.24-6.36.8,0C36.525,31.262,42,33.776,42,37.558V42H6V37.558C6,33.776,11.714,31.233,17.118,30c-.018,0,.184.007.555.009l4.284,6.425L22.5,33.5l-.447-.224a1,1,0,0,1-.553-.894V31a1,1,0,0,1,1-1ZM35,35.333A9.589,9.589,0,0,1,33,34a9.589,9.589,0,0,1-2,1.333S31.7,38,33,38,35,35.333,35,35.333Z" fill="#0f398d" fill-rule="evenodd"/>
    </g>
  </g>
</svg>
