<svg xmlns="http://www.w3.org/2000/svg" width="130" height="137.884" viewBox="0 0 130 137.884">
  <g id="Group_1102708" data-name="Group 1102708" transform="translate(-280.01 -5846.501)">
    <path id="Path_873448" data-name="Path 873448" d="M130,133.973A3.976,3.976,0,0,0,126.024,130H3.976A3.976,3.976,0,0,0,0,133.973v73.452c0,.055,0,.109,0,.163a7.565,7.565,0,0,0,3.453,6.532l57.4,29.89a7.6,7.6,0,0,0,8.277,0l57.4-29.89A7.565,7.565,0,0,0,130,207.589c0-.054,0-.109,0-.163Z" transform="translate(280.01 5739.148)" fill="#fff"/>
    <path id="Path_873449" data-name="Path 873449" d="M121.194,83.7A3.707,3.707,0,0,0,117.487,80H3.707A3.707,3.707,0,0,0,0,83.7V169c0,.051,0,.1,0,.152a7.053,7.053,0,0,0,3.219,6.09l53.516,27.865a7.083,7.083,0,0,0,7.716,0l53.516-27.865a7.053,7.053,0,0,0,3.219-6.09c0-.051,0-.1,0-.152Z" transform="translate(284.343 5774.085)" fill="#6018ec"/>
    <path id="Path_873665" data-name="Path 873665" d="M108.068,12.3A3.305,3.305,0,0,0,104.763,9H3.305A3.305,3.305,0,0,0,0,12.3v89.87c0,.046,0,.091,0,.136a6.289,6.289,0,0,0,2.87,5.43l47.72,24.847a6.316,6.316,0,0,0,6.881,0l47.72-24.847a6.289,6.289,0,0,0,2.87-5.43c0-.045,0-.09,0-.136Z" transform="translate(290.843 5838.004)" fill="none" stroke="#fff" stroke-width="1"/>
    <g id="Group_1103471" data-name="Group 1103471" transform="translate(312.408 5859.075)">
      <path id="Path_880446" data-name="Path 880446" d="M48.687,376.8a.874.874,0,0,0,.874-.874v-2.8l2.421,1.4a.874.874,0,1,0,.874-1.514l-2.421-1.4,2.421-1.4a.874.874,0,1,0-.874-1.514l-2.421,1.4v-2.8a.874.874,0,0,0-1.748,0v2.8l-2.421-1.4a.874.874,0,1,0-.874,1.514l2.421,1.4-2.421,1.4a.874.874,0,1,0,.874,1.514l2.421-1.4v2.8A.874.874,0,0,0,48.687,376.8Z" transform="translate(-38.944 -306.294)" fill="#fff"/>
      <path id="Path_880447" data-name="Path 880447" d="M273.647,374.205a.874.874,0,0,0,1.194.32l2.421-1.4v2.8a.874.874,0,1,0,1.748,0v-2.8l2.421,1.4a.874.874,0,1,0,.874-1.514l-2.421-1.4,2.421-1.4a.874.874,0,1,0-.874-1.514l-2.421,1.4v-2.8a.874.874,0,0,0-1.748,0v2.8l-2.421-1.4a.874.874,0,0,0-.874,1.514l2.421,1.4-2.421,1.4A.874.874,0,0,0,273.647,374.205Z" transform="translate(-241.651 -306.294)" fill="#fff"/>
      <path id="Path_880448" data-name="Path 880448" d="M158.922,374.208a.874.874,0,0,0,1.194.32l2.421-1.4v2.8a.874.874,0,0,0,1.748,0v-2.8l2.421,1.4a.874.874,0,1,0,.874-1.514l-2.421-1.4,2.421-1.4a.874.874,0,1,0-.874-1.514l-2.421,1.4v-2.8a.874.874,0,0,0-1.748,0v2.8l-2.421-1.4a.874.874,0,0,0-.874,1.514l2.421,1.4-2.421,1.4A.874.874,0,0,0,158.922,374.208Z" transform="translate(-140.297 -306.296)" fill="#fff"/>
      <path id="Path_880449" data-name="Path 880449" d="M388.372,374.208a.874.874,0,0,0,1.194.32l2.421-1.4v2.8a.874.874,0,1,0,1.748,0v-2.8l2.421,1.4a.874.874,0,1,0,.874-1.514l-2.421-1.4,2.421-1.4a.874.874,0,1,0-.874-1.514l-2.421,1.4v-2.8a.874.874,0,0,0-1.748,0v2.8l-2.421-1.4a.874.874,0,1,0-.874,1.514l2.421,1.4-2.421,1.4A.874.874,0,0,0,388.372,374.208Z" transform="translate(-343.005 -306.296)" fill="#fff"/>
      <path id="Path_880450" data-name="Path 880450" d="M55.9,54.927H45.469V46.561a.874.874,0,0,0-1.748,0v8.366H33.768L33.3,50.795a4.129,4.129,0,1,0-7.008,0l-.465,4.131H15.878V40.4a.979.979,0,0,1,.978-.978H42.743a.979.979,0,0,1,.978.978v2.08a.874.874,0,1,0,1.748,0V40.4a2.729,2.729,0,0,0-2.726-2.726h-.138v-5.14a12.806,12.806,0,1,0-25.612,0v5.14h-.138A2.729,2.729,0,0,0,14.13,40.4V54.927H3.7a3.7,3.7,0,0,0-3.7,3.7V71.034a3.7,3.7,0,0,0,3.7,3.7H9.743a.874.874,0,0,0,0-1.748H3.7a1.95,1.95,0,0,1-1.947-1.947V58.622A1.95,1.95,0,0,1,3.7,56.675H55.9a1.95,1.95,0,0,1,1.947,1.947V71.034A1.95,1.95,0,0,1,55.9,72.982H13.822a.874.874,0,0,0,0,1.748H55.9a3.7,3.7,0,0,0,3.7-3.7V58.622a3.7,3.7,0,0,0-3.7-3.7ZM35.13,37.676H24.469v-5.14a5.331,5.331,0,1,1,10.662,0Zm-16.389-5.14a11.058,11.058,0,1,1,22.116,0v5.14H36.878v-5.14a7.079,7.079,0,0,0-14.158,0v5.14H18.742ZM27.8,49.9a2.371,2.371,0,0,1-.373-1.433,2.406,2.406,0,0,1,2.222-2.23A2.38,2.38,0,0,1,31.8,49.9a1.594,1.594,0,0,0-.245,1.033l.45,4H27.59l.45-4A1.582,1.582,0,0,0,27.8,49.9Z" fill="#fff"/>
    </g>
  </g>
</svg>
