<svg xmlns="http://www.w3.org/2000/svg" width="130" height="137.884" viewBox="0 0 130 137.884">
  <g id="Group_1102706" data-name="Group 1102706" transform="translate(-280.01 -5846.501)">
    <path id="Path_873448" data-name="Path 873448" d="M130,133.973A3.976,3.976,0,0,0,126.024,130H3.976A3.976,3.976,0,0,0,0,133.973v73.452c0,.055,0,.109,0,.163a7.565,7.565,0,0,0,3.453,6.532l57.4,29.89a7.6,7.6,0,0,0,8.277,0l57.4-29.89A7.565,7.565,0,0,0,130,207.589c0-.054,0-.109,0-.163Z" transform="translate(280.01 5739.148)" fill="#fff"/>
    <path id="Path_873449" data-name="Path 873449" d="M121.194,83.7A3.707,3.707,0,0,0,117.487,80H3.707A3.707,3.707,0,0,0,0,83.7V169c0,.051,0,.1,0,.152a7.053,7.053,0,0,0,3.219,6.09l53.516,27.865a7.083,7.083,0,0,0,7.716,0l53.516-27.865a7.053,7.053,0,0,0,3.219-6.09c0-.051,0-.1,0-.152Z" transform="translate(284.343 5774.085)" fill="#6018ec"/>
    <path id="Path_873665" data-name="Path 873665" d="M108.068,12.3A3.305,3.305,0,0,0,104.763,9H3.305A3.305,3.305,0,0,0,0,12.3v89.87c0,.046,0,.091,0,.136a6.289,6.289,0,0,0,2.87,5.43l47.72,24.847a6.316,6.316,0,0,0,6.881,0l47.72-24.847a6.289,6.289,0,0,0,2.87-5.43c0-.045,0-.09,0-.136Z" transform="translate(290.843 5838.004)" fill="none" stroke="#fff" stroke-width="1"/>
    <g id="Group_1103470" data-name="Group 1103470" transform="translate(312.152 5840.582)">
      <circle id="Ellipse_11737" data-name="Ellipse 11737" cx="0.959" cy="0.959" r="0.959" transform="translate(31.766 79.107)" fill="#fff"/>
      <path id="Path_880442" data-name="Path 880442" d="M61.934,41.275H17.078a.959.959,0,0,0,0,1.917H61.934a1.6,1.6,0,0,1,1.6,1.6V75.517H51.082a.959.959,0,1,0,0,1.917h12.45v3.8a1.6,1.6,0,0,1-1.6,1.6H3.515a1.6,1.6,0,0,1-1.6-1.6v-3.8H47.247a.959.959,0,0,0,0-1.917H1.917V44.79a1.6,1.6,0,0,1,1.6-1.6h9.728a.959.959,0,0,0,0-1.917H3.515A3.519,3.519,0,0,0,0,44.79V81.236a3.519,3.519,0,0,0,3.515,3.515H25.336l-.919,4.9H21.185a3.946,3.946,0,0,0-3.941,3.941v.661H12.592a.959.959,0,1,0,0,1.917H52.857a.959.959,0,1,0,0-1.917H48.205v-.661a3.946,3.946,0,0,0-3.941-3.941H41.031l-.919-4.9H61.934a3.519,3.519,0,0,0,3.515-3.515V44.79A3.519,3.519,0,0,0,61.934,41.275ZM46.288,93.593v.661H19.161v-.661a2.026,2.026,0,0,1,2.024-2.024h23.08a2.026,2.026,0,0,1,2.024,2.024Zm-7.207-3.941H26.368l.919-4.9H38.162Z" fill="#fff"/>
      <path id="Path_880443" data-name="Path 880443" d="M179.089,89.218a13.209,13.209,0,1,0-13.209,13.209A13.223,13.223,0,0,0,179.089,89.218Zm-24.5,0A11.291,11.291,0,1,1,165.88,100.51,11.3,11.3,0,0,1,154.589,89.218Z" transform="translate(-133.156 -30.295)" fill="#fff"/>
      <path id="Path_880444" data-name="Path 880444" d="M196.444,170.915a6.483,6.483,0,0,0,3.9-1.294.959.959,0,0,0-1.147-1.537,4.579,4.579,0,0,1-2.758.913,4.627,4.627,0,0,1-4.474-3.469l.563.563a.959.959,0,0,0,1.356-1.356l-2.269-2.269a.959.959,0,0,0-1.356,0L188,164.736a.959.959,0,0,0,1.356,1.356l.645-.645A6.546,6.546,0,0,0,196.444,170.915Z" transform="translate(-163.72 -105.455)" fill="#fff"/>
      <path id="Path_880445" data-name="Path 880445" d="M223.581,131.071a4.575,4.575,0,0,1,2.8-.945,4.627,4.627,0,0,1,4.474,3.469l-.563-.563a.959.959,0,0,0-1.356,1.356l2.269,2.269a.959.959,0,0,0,1.356,0l2.269-2.269a.959.959,0,0,0-1.356-1.356l-.645.645a6.546,6.546,0,0,0-6.447-5.468,6.477,6.477,0,0,0-3.964,1.339.959.959,0,0,0,1.164,1.524Z" transform="translate(-193.657 -75.82)" fill="#fff"/>
    </g>
  </g>
</svg>
