<svg id="Group_1102712" data-name="Group 1102712" xmlns="http://www.w3.org/2000/svg" width="72" height="72" viewBox="0 0 72 72">
  <rect id="Rectangle_402033" data-name="Rectangle 402033" width="72" height="72" rx="5" fill="#bfa2f7"/>
  <g id="Group_1103489" data-name="Group 1103489" transform="translate(14.232 14.232)">
    <g id="Group_1103487" data-name="Group 1103487" transform="translate(0.765 0.701)">
      <g id="Group_1103477" data-name="Group 1103477" transform="translate(17.171 26.644)">
        <path id="Path_880494" data-name="Path 880494" d="M32.249,39v2.8H26.156a9.091,9.091,0,0,0-.575-1.276l1.073-1.374L26.5,39Z" transform="translate(-25.581 -39)" fill="#aab2bd"/>
      </g>
      <g id="Group_1103478" data-name="Group 1103478" transform="translate(2.805)">
        <path id="Path_880495" data-name="Path 880495" d="M41.551,1.7V26.942a.7.7,0,0,1-.7.7h-2.1V3.8H7.9V25.8l-1.248-.975L5.091,26.382V1.7a.7.7,0,0,1,.7-.7H40.849a.7.7,0,0,1,.7.7Z" transform="translate(-5.091 -1)" fill="#ccd1d9"/>
      </g>
      <g id="Group_1103479" data-name="Group 1103479" transform="translate(15.285 23.839)">
        <path id="Path_880496" data-name="Path 880496" d="M39.859,35v.119A3.535,3.535,0,0,1,38.632,37.8H25.7l-2.8-2.8Z" transform="translate(-22.891 -35)" fill="#ccd1d9"/>
      </g>
      <g id="Group_1103480" data-name="Group 1103480" transform="translate(5.609 2.805)">
        <path id="Path_880497" data-name="Path 880497" d="M39.941,5V26.034a2.8,2.8,0,0,0-2.8-2.8,1.413,1.413,0,0,0-1.4,1.4v1.4H18.767l-.014-.014-1.374,1.073a8.621,8.621,0,0,0-1.76-.729L15.4,24.632H11.194l-.217,1.732a8.62,8.62,0,0,0-1.76.729l-.126-.1V5Z" transform="translate(-9.091 -5)" fill="#69d6f4"/>
      </g>
      <g id="Group_1103481" data-name="Group 1103481" transform="translate(19.632 15.425)">
        <path id="Path_880498" data-name="Path 880498" d="M29.091,23H43.114v2.8H29.091Z" transform="translate(-29.091 -23)" fill="#fcd770"/>
      </g>
      <g id="Group_1103482" data-name="Group 1103482" transform="translate(8.414 5.609)">
        <path id="Path_880499" data-name="Path 880499" d="M13.091,9H21.5v7.011H13.091Z" transform="translate(-13.091 -9)" fill="#ff826e"/>
      </g>
      <g id="Group_1103483" data-name="Group 1103483" transform="translate(15.355 29.448)">
        <path id="Path_880500" data-name="Path 880500" d="M25.382,43h8.9V54.218H23.061l-.07-.07L25.88,51.26l-1.073-1.374a8.62,8.62,0,0,0,.729-1.76l1.732-.217V43.7l-1.732-.217c-.049-.161-.1-.323-.154-.484Z" transform="translate(-22.991 -43)" fill="#ff826e"/>
      </g>
      <g id="Group_1103484" data-name="Group 1103484" transform="translate(26.644 21.034)">
        <path id="Path_880501" data-name="Path 880501" d="M53.114,42.218a1.413,1.413,0,0,1,1.4,1.4,1.406,1.406,0,0,1-1.4,1.4,1.406,1.406,0,0,1,1.4,1.4,1.413,1.413,0,0,1-1.4,1.4h-1.4a1.413,1.413,0,0,1,1.4,1.4,1.406,1.406,0,0,1-1.4,1.4H39.091V39.414a3.571,3.571,0,0,1,2.209-1.83l.813-.238A3.562,3.562,0,0,0,44.7,33.924V32.4A1.412,1.412,0,0,1,46.1,31a2.8,2.8,0,0,1,2.8,2.8v5.609h4.207a1.4,1.4,0,0,1,1.4,1.4,1.413,1.413,0,0,1-1.4,1.4Z" transform="translate(-39.091 -31)" fill="#f0d0b4"/>
      </g>
      <g id="Group_1103485" data-name="Group 1103485" transform="translate(0 22.437)">
        <path id="Path_880502" data-name="Path 880502" d="M6.7,35.363l.126.1a8.621,8.621,0,0,1,1.76-.729L8.8,33H13.01l.217,1.732a8.62,8.62,0,0,1,1.76.729l1.374-1.073.014.014,2.8,2.8.154.154-1.073,1.374a9.091,9.091,0,0,1,.575,1.276c.056.161.105.323.154.484l1.732.217V44.92l-1.732.217a8.621,8.621,0,0,1-.729,1.76l1.073,1.374L16.446,51.16l-.084.084-1.374-1.073a8.621,8.621,0,0,1-1.76.729l-.217,1.732H8.8L8.586,50.9a8.621,8.621,0,0,1-1.76-.729L5.452,51.244,2.479,48.271,3.552,46.9a8.621,8.621,0,0,1-.729-1.76L1.091,44.92V40.713L2.823,40.5a8.62,8.62,0,0,1,.729-1.76L2.479,37.361,3.9,35.945l1.557-1.557Zm9.816,7.453a5.609,5.609,0,1,0-5.609,5.609A5.608,5.608,0,0,0,16.516,42.816Z" transform="translate(-1.091 -33)" fill="#fcd770"/>
      </g>
      <g id="Group_1103486" data-name="Group 1103486" transform="translate(7.011 29.448)">
        <path id="Path_880503" data-name="Path 880503" d="M16.7,45.1v1.4a.7.7,0,0,1-.7.7h-.7v.7a.7.7,0,0,1-.7.7h-1.4a.7.7,0,0,1-.7-.7v-.7h-.7a.7.7,0,0,1-.7-.7V45.1a.7.7,0,0,1,.7-.7h.7v-.7a.7.7,0,0,1,.7-.7h1.4a.7.7,0,0,1,.7.7v.7H16A.7.7,0,0,1,16.7,45.1Z" transform="translate(-11.091 -43)" fill="#ff826e"/>
      </g>
    </g>
    <g id="Group_1103488" data-name="Group 1103488" transform="translate(0)">
      <path id="Path_880504" data-name="Path 880504" d="M15.7,43.4A1.4,1.4,0,0,0,14.3,42H12.9a1.4,1.4,0,0,0-1.4,1.4,1.4,1.4,0,0,0-1.4,1.4v1.4a1.4,1.4,0,0,0,1.4,1.4,1.4,1.4,0,0,0,1.4,1.4h1.4a1.4,1.4,0,0,0,1.4-1.4,1.4,1.4,0,0,0,1.4-1.4V44.8A1.4,1.4,0,0,0,15.7,43.4Zm0,2.8H14.3v1.4H12.9v-1.4h-1.4V44.8h1.4V43.4h1.4v1.4l1.4,0Z" transform="translate(-3.016 -12.552)"/>
      <path id="Path_880505" data-name="Path 880505" d="M12.4,38a6.31,6.31,0,1,0,6.31,6.31A6.317,6.317,0,0,0,12.4,38Zm0,11.218a4.908,4.908,0,1,1,4.908-4.908A4.914,4.914,0,0,1,12.4,49.218Z" transform="translate(-1.82 -11.356)"/>
      <path id="Path_880506" data-name="Path 880506" d="M42.987,32.954a2.093,2.093,0,0,0-1.555-3.505H37.926v-1.4h1.4a1.4,1.4,0,0,0,1.4-1.4V1.4a1.4,1.4,0,0,0-1.4-1.4H4.271a1.4,1.4,0,0,0-1.4,1.4V22.437h1.4V1.4H39.328V26.644h-1.4V2.8H5.673v18.23h1.4V4.207H36.523V21.753a3.466,3.466,0,0,0-2.1-.718h0a2.106,2.106,0,0,0-2.1,2.1v.7H18.995v1.4H32.248a2.873,2.873,0,0,1-.746,1.4H19.235L16.1,23.507l-1.524,1.184a9.133,9.133,0,0,0-.976-.4l-.24-1.917H7.8l-.24,1.917a9.193,9.193,0,0,0-.976.4L5.062,23.507,1.133,27.437,2.317,28.96a9.133,9.133,0,0,0-.4.976L0,30.175v5.557l1.917.24a9.193,9.193,0,0,0,.4.976L1.134,38.472,5.064,42.4l1.524-1.184a9.132,9.132,0,0,0,.976.4l.24,1.917H13.36l.24-1.917a9.192,9.192,0,0,0,.976-.4L16.1,42.4l3.929-3.929-1.184-1.524a9.133,9.133,0,0,0,.4-.976l1.917-.24V30.175l-1.917-.24a9.193,9.193,0,0,0-.4-.976l.709-.914H23.9v1.4H22.5v1.4h4.207v9.816H19.7v1.4H40.029a2.1,2.1,0,0,0,1.949-2.885,2.084,2.084,0,0,0,1.009-3.424,2.069,2.069,0,0,0,0-2.8ZM19.632,31.526v2.856l-1.564.195-.14.485a7.618,7.618,0,0,1-.658,1.6l-.245.442.966,1.242-2.02,2.02L14.73,39.4l-.442.245a7.6,7.6,0,0,1-1.6.658l-.485.14L12.011,42H9.154l-.195-1.564-.485-.14a7.618,7.618,0,0,1-1.6-.658L6.435,39.4l-1.242.966-2.02-2.02L4.137,37.1l-.245-.442a7.6,7.6,0,0,1-.658-1.6l-.14-.485L1.53,34.383V31.526l1.564-.195.14-.485a7.618,7.618,0,0,1,.658-1.6l.245-.442-.966-1.242,2.02-2.02,1.242.966.442-.245a7.6,7.6,0,0,1,1.6-.658l.485-.14L9.151,23.9h2.856l.195,1.564.485.14a7.618,7.618,0,0,1,1.6.658l.442.245,1.242-.966,2.02,2.02-.966,1.242.245.442a7.6,7.6,0,0,1,.658,1.6l.14.485Zm5.673-2.077v-1.4h3.176A4.273,4.273,0,0,0,27,29.448Zm16.126,8.414H37.926v1.4h2.1a.7.7,0,1,1,0,1.4H28.11V30.347a2.862,2.862,0,0,1,1.7-1.356l.816-.233a4.284,4.284,0,0,0,3.093-4.1V23.139a.7.7,0,0,1,.7-.7h0a2.1,2.1,0,0,1,2.1,2.1v6.31h4.909a.7.7,0,0,1,0,1.4H37.926v1.4h3.506a.7.7,0,1,1,0,1.4H37.926v1.4h3.506a.7.7,0,1,1,0,1.4Z" transform="translate(0)"/>
      <path id="Path_880507" data-name="Path 880507" d="M21.907,8H12.091v8.414h9.816Zm-1.4,7.011H13.493V9.4H20.5Z" transform="translate(-3.613 -2.391)"/>
      <path id="Path_880508" data-name="Path 880508" d="M14.091,24h1.4v1.4h-1.4Z" transform="translate(-4.211 -7.172)"/>
      <path id="Path_880509" data-name="Path 880509" d="M18.091,24h1.4v1.4h-1.4Z" transform="translate(-5.407 -7.172)"/>
      <path id="Path_880510" data-name="Path 880510" d="M22.091,24h1.4v1.4h-1.4Z" transform="translate(-6.602 -7.172)"/>
      <path id="Path_880511" data-name="Path 880511" d="M28.091,8H32.3V9.4H28.091Z" transform="translate(-8.395 -2.391)"/>
      <path id="Path_880512" data-name="Path 880512" d="M36.091,8h9.816V9.4H36.091Z" transform="translate(-10.786 -2.391)"/>
      <path id="Path_880513" data-name="Path 880513" d="M44.091,12H48.3v1.4H44.091Z" transform="translate(-13.177 -3.586)"/>
      <path id="Path_880514" data-name="Path 880514" d="M28.091,12h9.816v1.4H28.091Z" transform="translate(-8.395 -3.586)"/>
      <path id="Path_880515" data-name="Path 880515" d="M28.091,16h9.816v1.4H28.091Z" transform="translate(-8.395 -4.782)"/>
      <path id="Path_880516" data-name="Path 880516" d="M28.091,26.207H43.516V22H28.091ZM33.7,24.8V23.4h2.8v1.4Zm8.414,0H37.907V23.4h4.207ZM29.493,23.4h2.8v1.4h-2.8Z" transform="translate(-8.395 -6.575)"/>
    </g>
  </g>
</svg>
