<svg xmlns="http://www.w3.org/2000/svg" width="110" height="110" viewBox="0 0 110 110">
  <g id="Group_1100929" data-name="Group 1100929" transform="translate(-704.668 -6155)">
    <rect id="Rectangle_402033" data-name="Rectangle 402033" width="110" height="110" rx="5" transform="translate(704.668 6155)" fill="#a2f166"/>
    <g id="Group_1103297" data-name="Group 1103297" transform="translate(716.031 6168.618)">
      <g id="Group_1103295" data-name="Group 1103295" transform="translate(3.902 1.212)">
        <path id="Path_880008" data-name="Path 880008" d="M23.059,305.947H61.268a9.583,9.583,0,0,1,9.488,8.239l3.38,23.857H10.191l3.38-23.857a9.583,9.583,0,0,1,9.488-8.239Z" transform="translate(-10.191 -257.704)" fill="#f5fcff"/>
        <path id="Path_880009" data-name="Path 880009" d="M318.021,314.186a9.583,9.583,0,0,0-9.488-8.239h-3.4a9.583,9.583,0,0,1,9.488,8.239L318,338.043h3.4Z" transform="translate(-257.456 -257.704)" fill="#e0f5fe"/>
        <path id="Path_880010" data-name="Path 880010" d="M118.8,395.092H76.192V377.113A3.117,3.117,0,0,1,79.309,374h36.373a3.117,3.117,0,0,1,3.117,3.117Z" transform="translate(-65.523 -314.753)" fill="#b3dafe"/>
        <path id="Path_880011" data-name="Path 880011" d="M302.856,374h-3.4a3.117,3.117,0,0,1,3.117,3.117v17.979h3.4V377.113A3.117,3.117,0,0,0,302.856,374Z" transform="translate(-252.697 -314.753)" fill="#8ac9fe"/>
        <path id="Path_880012" data-name="Path 880012" d="M187.784,431.072H184.9a2.731,2.731,0,0,1-2.731-2.731v-2.883a2.731,2.731,0,0,1,2.731-2.731h2.883a2.731,2.731,0,0,1,2.731,2.731v2.883A2.731,2.731,0,0,1,187.784,431.072Z" transform="translate(-154.37 -355.606)" fill="#60b7ff"/>
        <path id="Path_880013" data-name="Path 880013" d="M200.607,422.727h-2.883c-.087,0-.173.005-.258.013a2.73,2.73,0,0,1,2.473,2.718v2.883a2.73,2.73,0,0,1-2.473,2.718c.085.008.171.013.258.013h2.883a2.731,2.731,0,0,0,2.731-2.731v-2.884A2.731,2.731,0,0,0,200.607,422.727Z" transform="translate(-167.193 -355.606)" fill="#26a6fe"/>
        <path id="Path_880014" data-name="Path 880014" d="M337.342,137.73l8.624-15.143a4.719,4.719,0,0,1,8.2,0l8.624,15.143a4.719,4.719,0,0,1-4.1,7.055H341.442A4.719,4.719,0,0,1,337.342,137.73Z" transform="translate(-283.934 -101.985)" fill="#ffe177"/>
        <path id="Path_880015" data-name="Path 880015" d="M177.888,270.049h-1.181a5.326,5.326,0,0,1-5.326-5.326V255.59h11.833v9.133A5.326,5.326,0,0,1,177.888,270.049Z" transform="translate(-145.325 -215.487)" fill="#ffcebf"/>
        <path id="Path_880016" data-name="Path 880016" d="M201.682,255.59v9.133a5.327,5.327,0,0,1-4.217,5.209,5.348,5.348,0,0,0,1.109.117h1.181a5.326,5.326,0,0,0,5.326-5.326V255.59Z" transform="translate(-167.193 -215.487)" fill="#ffb09e"/>
        <path id="Path_880017" data-name="Path 880017" d="M423.212,137.737l-8.624-15.143a4.715,4.715,0,0,0-5.8-2.07,4.652,4.652,0,0,1,2.4,2.07l8.624,15.143a4.719,4.719,0,0,1-4.1,7.054h3.4A4.719,4.719,0,0,0,423.212,137.737Z" transform="translate(-344.355 -101.992)" fill="#ffd15b"/>
        <path id="Path_880018" data-name="Path 880018" d="M150.3,112.758v16.688a9.153,9.153,0,0,1-9.153,9.153H131.9a9.153,9.153,0,0,1-9.153-9.153V112.758Z" transform="translate(-104.556 -95.743)" fill="#ffcebf"/>
        <path id="Path_880019" data-name="Path 880019" d="M224.7,112.758v16.688a9.153,9.153,0,0,1-9.153,9.153h3.4a9.153,9.153,0,0,0,9.153-9.153V112.758Z" transform="translate(-182.356 -95.743)" fill="#ffb09e"/>
        <path id="Path_880020" data-name="Path 880020" d="M88.738,125.864H86.775a4.6,4.6,0,0,1-4.6-4.6V117.35a4.6,4.6,0,0,1,4.6-4.6h1.963v13.11Z" transform="translate(-70.542 -95.74)" fill="#ffcebf"/>
        <path id="Path_880021" data-name="Path 880021" d="M104,112.754a4.593,4.593,0,0,0-1.275.181v12.748a4.594,4.594,0,0,0,1.275.181h1.963V112.754H104Z" transform="translate(-87.763 -95.74)" fill="#ffb09e"/>
        <path id="Path_880022" data-name="Path 880022" d="M293.21,125.864h1.963a4.6,4.6,0,0,0,4.6-4.6V117.35a4.6,4.6,0,0,0-4.6-4.6H293.21Z" transform="translate(-247.461 -95.74)" fill="#ffcebf"/>
        <path id="Path_880023" data-name="Path 880023" d="M295.173,112.754H293.21v.181a4.6,4.6,0,0,1,3.32,4.415v3.918a4.6,4.6,0,0,1-3.32,4.415v.181h1.963a4.6,4.6,0,0,0,4.6-4.6V117.35A4.6,4.6,0,0,0,295.173,112.754Z" transform="translate(-247.46 -95.74)" fill="#ffb09e"/>
        <path id="Path_880024" data-name="Path 880024" d="M150.306,143.877V146.3a5.651,5.651,0,0,1-5.651,5.651h-1.805a5.156,5.156,0,0,1-3.971-1.867l-.8-.965a2.013,2.013,0,0,0-3.1,0l-.8.965a5.156,5.156,0,0,1-3.971,1.867H128.4a5.651,5.651,0,0,1-5.651-5.651v-2.427Z" transform="translate(-104.557 -121.832)" fill="#938493"/>
        <g id="Group_1103294" data-name="Group 1103294" transform="translate(22.779 22.045)">
          <path id="Path_880025" data-name="Path 880025" d="M157.968,172.559a2.013,2.013,0,0,0-3.1,0l-.8.965a5.155,5.155,0,0,1-2.959,1.765,5.676,5.676,0,0,0,1.067.1h1.806a5.156,5.156,0,0,0,3.971-1.867l.407-.491Z" transform="translate(-151.11 -167.312)" fill="#7b6c79"/>
          <path id="Path_880026" data-name="Path 880026" d="M245.4,143.877V146.3a5.652,5.652,0,0,1-4.584,5.549,5.153,5.153,0,0,0,1.012.1h1.805a5.651,5.651,0,0,0,5.651-5.651v-2.427Z" transform="translate(-226.318 -143.877)" fill="#7b6c79"/>
        </g>
        <path id="Path_880027" data-name="Path 880027" d="M150.305,24.514H122.751v-1.5A15.512,15.512,0,0,1,138.263,7.5h12a5.526,5.526,0,0,1,5.526,5.526v1.66a8.9,8.9,0,0,1-2.047,5.68Z" transform="translate(-104.556 -7.5)" fill="#938493"/>
        <path id="Path_880028" data-name="Path 880028" d="M275.3,7.5h-3.4a5.526,5.526,0,0,1,5.526,5.526v1.66a8.9,8.9,0,0,1-2.047,5.68l-3.436,4.148h3.4l3.436-4.148a8.9,8.9,0,0,0,2.047-5.68v-1.66A5.526,5.526,0,0,0,275.3,7.5Z" transform="translate(-229.599 -7.5)" fill="#7b6c79"/>
      </g>
      <g id="Group_1103296" data-name="Group 1103296" transform="translate(2.69 0)">
        <path id="Path_880029" data-name="Path 880029" d="M181.5,415.227h-2.883a3.948,3.948,0,0,0-3.943,3.943v2.883A3.948,3.948,0,0,0,178.613,426H181.5a3.948,3.948,0,0,0,3.943-3.943V419.17A3.948,3.948,0,0,0,181.5,415.227Zm1.518,6.826a1.52,1.52,0,0,1-1.519,1.518h-2.883a1.52,1.52,0,0,1-1.518-1.518V419.17a1.52,1.52,0,0,1,1.518-1.518H181.5a1.52,1.52,0,0,1,1.519,1.518v2.883Z" transform="translate(-146.87 -348.106)"/>
        <path id="Path_880030" data-name="Path 880030" d="M357.549,130.969l-8.624-15.143a5.956,5.956,0,0,0-10.308,0l-8.624,15.143a5.956,5.956,0,0,0,5.154,8.867h8.723a1.212,1.212,0,1,0,0-2.425h-8.723a3.544,3.544,0,0,1-3.047-5.242l8.624-15.143a3.544,3.544,0,0,1,6.094,0l8.624,15.143a3.553,3.553,0,0,1-3.047,5.242h-2.684a1.212,1.212,0,0,0,0,2.425H352.4A5.972,5.972,0,0,0,357.549,130.969Z" transform="translate(-276.426 -94.612)"/>
        <path id="Path_880031" data-name="Path 880031" d="M66.066,60.337c-.3-2.129-.516-4.675-1.7-6.627a10.807,10.807,0,0,0-9.389-5.466h-7.5a1.212,1.212,0,1,0,0,2.425h7.5a8.381,8.381,0,0,1,5.942,2.475H42.42A6.5,6.5,0,0,0,43,50.448V44.972a10.382,10.382,0,0,0,7.86-10.057V32.548a5.929,5.929,0,0,0,6.559-5.808V22.822a5.816,5.816,0,0,0-5.217-5.778l1.816-2.192A10.138,10.138,0,0,0,56.346,8.4V6.739A6.746,6.746,0,0,0,49.608,0h-12A16.774,16.774,0,0,0,20.885,17.014a5.929,5.929,0,0,0-6.558,5.808V26.74a5.94,5.94,0,0,0,6.558,5.808v2.367a10.383,10.383,0,0,0,7.861,10.058v3.272H16.771a10.867,10.867,0,0,0-10.689,9.28L2.7,81.381a1.212,1.212,0,1,0,2.4.34l.633-4.472h7.623v4.3a1.212,1.212,0,1,0,2.425,0V63.573a1.906,1.906,0,0,1,1.888-1.9H54.079a1.906,1.906,0,0,1,1.888,1.9V81.551a1.212,1.212,0,1,0,2.425,0v-4.3h7.623l.633,4.472a1.212,1.212,0,0,0,2.4-.34ZM8.287,59.244a12.446,12.446,0,0,1,.866-3.676H31.224a8.1,8.1,0,0,0,9.3,0H62.6a12.823,12.823,0,0,1,.866,3.676ZM23.31,24.47h2.764a1.212,1.212,0,1,0,0-2.425H23.31V19.439H48.439v2.606H31.819a1.212,1.212,0,1,0,0,2.425h16.62v1.215A4.444,4.444,0,0,1,44,30.123H42.195c-1.511.091-2.963-1.135-3.836-2.392a3.282,3.282,0,0,0-4.967,0,4.856,4.856,0,0,1-3.836,2.392H27.749a4.444,4.444,0,0,1-4.439-4.43V24.47ZM55,22.822V26.74a3.567,3.567,0,0,1-4.134,3.383V19.439A3.559,3.559,0,0,1,55,22.822Zm-31.688-6.1a14.316,14.316,0,0,1,14.3-14.3h12a4.319,4.319,0,0,1,4.314,4.314V8.4A7.708,7.708,0,0,1,52.154,13.3l-3.072,3.709H23.31Zm-3.175,13.4a3.387,3.387,0,0,1-3.383-3.383V22.822a3.567,3.567,0,0,1,4.134-3.383V30.123Zm3.175,4.791v-4a6.832,6.832,0,0,0,4.439,1.635h1.806a7.081,7.081,0,0,0,5.7-3.27c.274-.209.525-.525,1.233,0a7.073,7.073,0,0,0,5.7,3.27H44a6.831,6.831,0,0,0,4.439-1.635v4a7.949,7.949,0,0,1-7.94,7.94H31.25a7.95,7.95,0,0,1-7.94-7.941ZM31.25,45.28H40.5l.08,0v5.171a4.119,4.119,0,0,1-4.114,4.114h-1.18a4.119,4.119,0,0,1-4.114-4.114V45.278Zm-2.5,5.389a6.492,6.492,0,0,0,.578,2.475h-18.5a8.382,8.382,0,0,1,5.942-2.475ZM6.08,74.825l.793-5.6h6.486v5.6Zm7.279-11.252V66.8H7.217l.727-5.132H13.8a4.3,4.3,0,0,0-.442,1.9Zm50.447-1.9.727,5.132H58.391V63.573a4.3,4.3,0,0,0-.442-1.9ZM58.391,74.825v-5.6h6.486l.793,5.6Z" transform="translate(-2.69 0)"/>
        <path id="Path_880032" data-name="Path 880032" d="M185.29,218.99a1.212,1.212,0,0,0-1.551-1.864c-3.6,2.993-7.2.133-7.362,0a1.212,1.212,0,0,0-1.548,1.866,8.8,8.8,0,0,0,5.378,1.922A7.8,7.8,0,0,0,185.29,218.99Z" transform="translate(-146.637 -181.793)"/>
        <path id="Path_880033" data-name="Path 880033" d="M413.016,161.832a1.212,1.212,0,0,0,1.212-1.212v-7.847a1.212,1.212,0,0,0-2.425,0v7.847A1.212,1.212,0,0,0,413.016,161.832Z" transform="translate(-345.671 -127.061)"/>
        <ellipse id="Ellipse_11707" data-name="Ellipse 11707" cx="1.231" cy="1.231" rx="1.231" ry="1.231" transform="translate(66.025 39.653) rotate(-84.318)"/>
      </g>
    </g>
  </g>
</svg>
