<svg xmlns="http://www.w3.org/2000/svg" width="110" height="110" viewBox="0 0 110 110">
  <g id="Group_1100959" data-name="Group 1100959" transform="translate(-704.668 -6155.5)">
    <rect id="Rectangle_402033" data-name="Rectangle 402033" width="110" height="110" rx="5" transform="translate(704.668 6155.5)" fill="#a2f166"/>
    <g id="Group_1103307" data-name="Group 1103307" transform="translate(693.671 6170.207)">
      <g id="Group_1103305" data-name="Group 1103305" transform="translate(32.135 1.153)">
        <g id="Group_1103304" data-name="Group 1103304">
          <path id="Path_880051" data-name="Path 880051" d="M120.393,228.574l-22.6,1.537-29.5-1.537a2.305,2.305,0,0,1-2.305-2.305V214.591a2.305,2.305,0,0,1,2.305-2.305l28.954-1.537,23.152,1.537a2.305,2.305,0,0,1,2.305,2.305v11.677A2.305,2.305,0,0,1,120.393,228.574Z" transform="translate(-61.755 -179.512)" fill="#978ecb"/>
          <path id="Path_880052" data-name="Path 880052" d="M405.629,212.286l-1.691-1.537-2.92,1.537a2.305,2.305,0,0,1,2.305,2.305v11.677a2.305,2.305,0,0,1-2.305,2.305l2.92,1.537,1.691-1.537a2.305,2.305,0,0,0,2.305-2.305V214.591A2.305,2.305,0,0,0,405.629,212.286Z" transform="translate(-345.3 -179.512)" fill="#6e61b6"/>
          <g id="Group_1103302" data-name="Group 1103302" transform="translate(30.741 55.583)">
            <path id="Path_880053" data-name="Path 880053" d="M241.19,389.652a2.69,2.69,0,0,1-2.69-2.69V371.849a2.69,2.69,0,0,1,2.69-2.69c1.485,0,2.229,1.2,2.229,2.69v15.114C243.418,388.448,242.675,389.652,241.19,389.652Z" transform="translate(-238.5 -369.159)" fill="#ffe282"/>
          </g>
          <path id="Path_880054" data-name="Path 880054" d="M250.922,369.159a2.678,2.678,0,0,0-.922.166,2.688,2.688,0,0,1,1.767,2.524v15.114A2.688,2.688,0,0,1,250,389.486a2.683,2.683,0,0,0,3.612-2.524V371.849A2.69,2.69,0,0,0,250.922,369.159Z" transform="translate(-217.492 -313.576)" fill="#ffd368"/>
          <path id="Path_880055" data-name="Path 880055" d="M120.393,343.017H68.287a2.305,2.305,0,0,1-2.305-2.305V329.034a2.305,2.305,0,0,1,2.305-2.305h52.106a2.305,2.305,0,0,1,2.305,2.305v11.677a2.306,2.306,0,0,1-2.305,2.305Z" transform="translate(-61.755 -277.667)" fill="#f7f9fa"/>
          <path id="Path_880056" data-name="Path 880056" d="M120.393,131.057H68.287a2.305,2.305,0,0,1-2.305-2.305V117.074a2.305,2.305,0,0,1,2.305-2.305h52.106a2.305,2.305,0,0,1,2.305,2.305v11.677a2.306,2.306,0,0,1-2.305,2.305Z" transform="translate(-61.755 -98.283)" fill="#f7f9fa"/>
          <g id="Group_1103303" data-name="Group 1103303" transform="translate(0 71.004)">
            <path id="Path_880057" data-name="Path 880057" d="M101.115,474.879H41.171a2.69,2.69,0,1,1,0-5.379h59.944a2.69,2.69,0,0,1,0,5.379Z" transform="translate(-38.481 -469.5)" fill="#978ecb"/>
          </g>
          <path id="Path_880058" data-name="Path 880058" d="M430.63,469.5h-4.611a2.69,2.69,0,1,1,0,5.379h4.611a2.69,2.69,0,0,0,0-5.379Z" transform="translate(-366.459 -398.496)" fill="#6e61b6"/>
          <path id="Path_880059" data-name="Path 880059" d="M405.629,114.769h-4.611a2.305,2.305,0,0,1,2.305,2.305v11.677a2.305,2.305,0,0,1-2.305,2.305h4.611a2.305,2.305,0,0,0,2.305-2.305V117.074A2.305,2.305,0,0,0,405.629,114.769Z" transform="translate(-345.3 -98.283)" fill="#e9edf1"/>
          <path id="Path_880060" data-name="Path 880060" d="M372.848,153.438a2.479,2.479,0,0,1-2.581,2.581,2.609,2.609,0,1,1,0-5.161A2.479,2.479,0,0,1,372.848,153.438Z" transform="translate(-316.961 -128.808)" fill="#6cf5c2"/>
          <path id="Path_880061" data-name="Path 880061" d="M379.4,149.968a2.724,2.724,0,0,0-1.076.22,2.735,2.735,0,0,1,0,5.028,2.734,2.734,0,1,0,1.076-5.248Z" transform="translate(-326.093 -128.072)" fill="#05e39c"/>
          <path id="Path_880062" data-name="Path 880062" d="M372.848,259.418A2.479,2.479,0,0,1,370.267,262a2.609,2.609,0,1,1,0-5.161A2.479,2.479,0,0,1,372.848,259.418Z" transform="translate(-316.961 -218.5)" fill="#6cf5c2"/>
          <path id="Path_880063" data-name="Path 880063" d="M379.4,255.948a2.724,2.724,0,0,0-1.076.22,2.735,2.735,0,0,1,0,5.028,2.734,2.734,0,1,0,1.076-5.248Z" transform="translate(-326.093 -217.764)" fill="#05e39c"/>
          <path id="Path_880064" data-name="Path 880064" d="M405.629,326.729h-4.611a2.305,2.305,0,0,1,2.305,2.305v11.677a2.305,2.305,0,0,1-2.305,2.305h4.611a2.305,2.305,0,0,0,2.305-2.305V329.034A2.305,2.305,0,0,0,405.629,326.729Z" transform="translate(-345.3 -277.667)" fill="#e9edf1"/>
          <path id="Path_880065" data-name="Path 880065" d="M372.848,365.4a2.479,2.479,0,0,1-2.581,2.581,2.609,2.609,0,1,1,0-5.161A2.479,2.479,0,0,1,372.848,365.4Z" transform="translate(-316.961 -308.192)" fill="#6cf5c2"/>
          <path id="Path_880066" data-name="Path 880066" d="M379.4,361.928a2.724,2.724,0,0,0-1.076.22,2.735,2.735,0,0,1,0,5.028,2.734,2.734,0,1,0,1.076-5.248Z" transform="translate(-326.093 -307.456)" fill="#05e39c"/>
          <path id="Path_880067" data-name="Path 880067" d="M200.156,13.533l8.15,2.892V11.092L200.26,8.237a.461.461,0,0,0-.615.434v4.138A.769.769,0,0,0,200.156,13.533Z" transform="translate(-174.876 -8.101)" fill="#ffe282"/>
          <path id="Path_880068" data-name="Path 880068" d="M264,14.226l-2.536,1.108L256,17.272V11.938l5.117-1.816,2.775-.886a.461.461,0,0,1,.615.434V13.5a.769.769,0,0,1-.511.724Z" transform="translate(-222.57 -8.947)" fill="#ffe282"/>
          <path id="Path_880069" data-name="Path 880069" d="M292.222,8.237l-2.929,1.04a.478.478,0,0,1,.471.477v4.306a.8.8,0,0,1-.127.429l2.69-.955a.768.768,0,0,0,.511-.724V8.671A.461.461,0,0,0,292.222,8.237Z" transform="translate(-250.746 -8.101)" fill="#ffd368"/>
          <path id="Path_880070" data-name="Path 880070" d="M228.955,18.809h-2.033V10.344a1.8,1.8,0,0,0-1.9-1.9,2,2,0,0,0-1,.105,2.055,2.055,0,0,0-1.056,1.8v8.465H220.93a1.537,1.537,0,0,0-1.537,1.537v8.67l.154,2.912a5.475,5.475,0,0,0,10.945,0V20.346A1.537,1.537,0,0,0,228.955,18.809Z" transform="translate(-191.589 -8.288)" fill="#f7f9fa"/>
          <path id="Path_880071" data-name="Path 880071" d="M254.588,75.958h-2a1.537,1.537,0,0,1,1.537,1.537V89.077a5.31,5.31,0,0,1-4.627,5.229,5.66,5.66,0,0,0,1,.09,5.116,5.116,0,0,0,5.319-5.319l.307-2.912v-8.67A1.537,1.537,0,0,0,254.588,75.958Z" transform="translate(-217.069 -65.437)" fill="#e9edf1"/>
          <path id="Path_880072" data-name="Path 880072" d="M219.393,142.371v2.912a5.628,5.628,0,0,0,4.492,5.512,5.8,5.8,0,0,0,1.134-.039,5.242,5.242,0,0,0,5.319-5.472v-2.912Z" transform="translate(-191.589 -121.643)" fill="#978ecb"/>
          <path id="Path_880073" data-name="Path 880073" d="M250.5,150.909a5.626,5.626,0,0,0,5.626-5.626v-2.912h-2v2.912a5.626,5.626,0,0,1-4.627,5.536A5.659,5.659,0,0,0,250.5,150.909Z" transform="translate(-217.069 -121.643)" fill="#6e61b6"/>
          <path id="Path_880074" data-name="Path 880074" d="M250.557,9.556v7.7a.769.769,0,0,0,.768.768h1.23V9.608a2.09,2.09,0,0,0-1.863-2.1,2.05,2.05,0,0,0-1.192.251A2.054,2.054,0,0,1,250.557,9.556Z" transform="translate(-217.069 -7.5)" fill="#e9edf1"/>
        </g>
      </g>
      <g id="Group_1103306" data-name="Group 1103306" transform="translate(30.982 0)">
        <path id="Path_880075" data-name="Path 880075" d="M367.806,146.355a3.887,3.887,0,1,0-3.887,3.887A3.891,3.891,0,0,0,367.806,146.355Zm-5.469,0a1.582,1.582,0,1,1,1.582,1.582A1.583,1.583,0,0,1,362.337,146.355Z" transform="translate(-309.461 -120.572)"/>
        <path id="Path_880076" data-name="Path 880076" d="M101.386,144.491v5.2a1.153,1.153,0,1,0,2.305,0v-5.2a1.153,1.153,0,1,0-2.305,0Z" transform="translate(-90.566 -121.308)"/>
        <path id="Path_880077" data-name="Path 880077" d="M127.537,144.491v5.2a1.153,1.153,0,1,0,2.305,0v-5.2a1.153,1.153,0,1,0-2.305,0Z" transform="translate(-112.698 -121.308)"/>
        <path id="Path_880078" data-name="Path 880078" d="M154.841,150.845a1.153,1.153,0,0,0,1.153-1.153v-5.2a1.153,1.153,0,1,0-2.305,0v5.2A1.153,1.153,0,0,0,154.841,150.845Z" transform="translate(-134.829 -121.308)"/>
        <path id="Path_880079" data-name="Path 880079" d="M363.919,248.448a3.887,3.887,0,1,0,3.887,3.887A3.891,3.891,0,0,0,363.919,248.448Zm0,5.469a1.582,1.582,0,1,1,1.582-1.582A1.583,1.583,0,0,1,363.919,253.917Z" transform="translate(-309.461 -210.264)"/>
        <path id="Path_880080" data-name="Path 880080" d="M102.539,249.317a1.153,1.153,0,0,0-1.153,1.153v5.2a1.153,1.153,0,1,0,2.305,0v-5.2A1.153,1.153,0,0,0,102.539,249.317Z" transform="translate(-90.566 -211)"/>
        <path id="Path_880081" data-name="Path 880081" d="M128.69,249.317a1.153,1.153,0,0,0-1.153,1.153v5.2a1.153,1.153,0,1,0,2.305,0v-5.2A1.153,1.153,0,0,0,128.69,249.317Z" transform="translate(-112.698 -211)"/>
        <path id="Path_880082" data-name="Path 880082" d="M154.841,249.317a1.153,1.153,0,0,0-1.153,1.153v5.2a1.153,1.153,0,1,0,2.305,0v-5.2A1.153,1.153,0,0,0,154.841,249.317Z" transform="translate(-134.829 -211)"/>
        <path id="Path_880083" data-name="Path 880083" d="M363.919,362.2a3.887,3.887,0,1,0-3.887-3.887A3.891,3.891,0,0,0,363.919,362.2Zm0-5.469a1.582,1.582,0,1,1-1.582,1.582A1.583,1.583,0,0,1,363.919,356.733Z" transform="translate(-309.461 -299.956)"/>
        <path id="Path_880084" data-name="Path 880084" d="M102.539,355.3a1.153,1.153,0,0,0-1.153,1.153v5.2a1.153,1.153,0,0,0,2.305,0v-5.2A1.153,1.153,0,0,0,102.539,355.3Z" transform="translate(-90.566 -300.693)"/>
        <path id="Path_880085" data-name="Path 880085" d="M128.69,355.3a1.153,1.153,0,0,0-1.153,1.153v5.2a1.153,1.153,0,0,0,2.305,0v-5.2A1.153,1.153,0,0,0,128.69,355.3Z" transform="translate(-112.698 -300.693)"/>
        <path id="Path_880086" data-name="Path 880086" d="M154.841,355.3a1.153,1.153,0,0,0-1.153,1.153v5.2a1.153,1.153,0,0,0,2.305,0v-5.2A1.153,1.153,0,0,0,154.841,355.3Z" transform="translate(-134.829 -300.693)"/>
        <path id="Path_880087" data-name="Path 880087" d="M208.485,373.372a1.153,1.153,0,0,0-1.153-1.153H184.841a1.153,1.153,0,0,0,0,2.305h22.492A1.153,1.153,0,0,0,208.485,373.372Z" transform="translate(-160.219 -315.013)"/>
        <path id="Path_880088" data-name="Path 880088" d="M304.192,266.239h-4.9a1.153,1.153,0,0,0,0,2.305h4.9a1.153,1.153,0,0,0,0-2.305Z" transform="translate(-257.078 -225.321)"/>
        <path id="Path_880089" data-name="Path 880089" d="M197.406,266.239H184.84a1.153,1.153,0,0,0,0,2.305h12.566a1.153,1.153,0,1,0,0-2.305Z" transform="translate(-160.218 -225.321)"/>
        <path id="Path_880090" data-name="Path 880090" d="M96.305,71H85.218a1.153,1.153,0,0,0,0,2.305H96.305a1.537,1.537,0,0,1,0,3.074H34.824a1.537,1.537,0,1,1,0-3.074h45.37a1.153,1.153,0,0,0,0-2.305H69.407V67.655H92.463A3.462,3.462,0,0,0,95.921,64.2V52.52a3.444,3.444,0,0,0-.883-2.305,3.444,3.444,0,0,0,.883-2.305V36.232a3.444,3.444,0,0,0-.883-2.305,3.444,3.444,0,0,0,.883-2.305V19.944a3.462,3.462,0,0,0-3.458-3.458H72.344V13.211a2.693,2.693,0,0,0-2.69-2.69h-.881V9.562L74.1,7.671a1.925,1.925,0,0,0,1.279-1.81V1.723A1.614,1.614,0,0,0,73.225.2L68.484,1.885a3.2,3.2,0,0,0-5.839,0L57.9.2a1.614,1.614,0,0,0-2.153,1.521V5.861a1.925,1.925,0,0,0,1.279,1.81l5.327,1.89v.959h-.881a2.693,2.693,0,0,0-2.69,2.69v3.275h-7.6a1.153,1.153,0,1,0,0,2.305h7.6V24.63H55.6a1.153,1.153,0,0,0,0,2.305h3.531a6.777,6.777,0,0,0,12.859,0h6.1a1.153,1.153,0,1,0,0-2.305H72.343V18.791h20.12a1.154,1.154,0,0,1,1.153,1.153V31.621a1.154,1.154,0,0,1-1.153,1.153h-53.8a1.154,1.154,0,0,1-1.153-1.153V19.944a1.154,1.154,0,0,1,1.153-1.153h7.5a1.153,1.153,0,1,0,0-2.305h-7.5a3.462,3.462,0,0,0-3.458,3.458V31.621a3.444,3.444,0,0,0,.883,2.305,3.444,3.444,0,0,0-.883,2.305V47.909a3.444,3.444,0,0,0,.883,2.305,3.444,3.444,0,0,0-.883,2.305V64.2a3.462,3.462,0,0,0,3.458,3.458H61.723V71h-26.9a3.842,3.842,0,0,0,0,7.684H96.306a3.842,3.842,0,1,0,0-7.684ZM73.073,5.59l-4.3,1.526V4.229l4.3-1.526Zm-15.017,0V2.7l4.3,1.526V7.116Zm3.035,7.621a.385.385,0,0,1,.384-.384h2.033a1.153,1.153,0,0,0,1.153-1.153V3.209a.9.9,0,1,1,1.806,0v8.465a1.153,1.153,0,0,0,1.153,1.153h2.033a.385.385,0,0,1,.384.384v7.517H61.091V13.211Zm4.473,16.055a4.479,4.479,0,0,1-4.473-4.473V23.034h8.947v1.759A4.479,4.479,0,0,1,65.565,29.266Zm-26.9,19.8a1.154,1.154,0,0,1-1.153-1.153V36.232a1.154,1.154,0,0,1,1.153-1.153h53.8a1.154,1.154,0,0,1,1.153,1.153V47.909a1.154,1.154,0,0,1-1.153,1.153ZM37.514,64.2V52.52a1.154,1.154,0,0,1,1.153-1.153h53.8a1.154,1.154,0,0,1,1.153,1.153V64.2a1.154,1.154,0,0,1-1.153,1.153h-53.8A1.154,1.154,0,0,1,37.514,64.2Zm26.514,3.458H67.1V71H64.028Z" transform="translate(-30.982 0)"/>
      </g>
    </g>
  </g>
</svg>
