<svg xmlns="http://www.w3.org/2000/svg" width="110" height="110" viewBox="0 0 110 110">
  <g id="Group_1102023" data-name="Group 1102023" transform="translate(-704.668 -6155)">
    <rect id="Rectangle_402033" data-name="Rectangle 402033" width="110" height="110" rx="5" transform="translate(704.668 6155)" fill="#a2f166"/>
    <g id="Group_1103309" data-name="Group 1103309" transform="translate(722.234 6172.737)">
      <path id="Path_880091" data-name="Path 880091" d="M40.4,50H26.342L24,59.369H42.738Z" transform="translate(4.065 8.343)" fill="#5a77a4"/>
      <rect id="Rectangle_404723" data-name="Rectangle 404723" width="72.611" height="56.215" rx="3" transform="translate(1.128 2.128)" fill="#6e87b6"/>
      <path id="Path_880092" data-name="Path 880092" d="M1,6H73.611V50.5H1Z" transform="translate(0.128 0.813)" fill="#63d4f7"/>
      <path id="Path_880093" data-name="Path 880093" d="M3,8H73.269V50.161H3Z" transform="translate(0.471 1.155)" fill="#83dcff"/>
      <path id="Path_880094" data-name="Path 880094" d="M48.107,62.685H20V60.342A2.342,2.342,0,0,1,22.342,58H45.765a2.342,2.342,0,0,1,2.342,2.342Z" transform="translate(3.38 9.712)" fill="#7593bc"/>
      <path id="Path_880095" data-name="Path 880095" d="M47.594,62.342H23A2.342,2.342,0,0,1,25.342,60H45.252A2.342,2.342,0,0,1,47.594,62.342Z" transform="translate(3.894 10.055)" fill="#6e87b6"/>
      <path id="Path_880096" data-name="Path 880096" d="M25.711,36.513V35.342A2.342,2.342,0,0,0,23.369,33H16.342A2.342,2.342,0,0,0,14,35.342v1.171Z" transform="translate(2.353 5.434)" fill="#f7fdff"/>
      <g id="Group_1103308" data-name="Group 1103308" transform="translate(5.813 12.669)">
        <path id="Path_880097" data-name="Path 880097" d="M19.257,11a1.757,1.757,0,0,1,1.757,1.757V36.765H17.5V12.757A1.757,1.757,0,0,1,19.257,11Z" transform="translate(-2.861 -11)" fill="#ffdb66"/>
        <path id="Path_880098" data-name="Path 880098" d="M14.342,36H26.054A2.342,2.342,0,0,1,28.4,38.342v1.171H12V38.342A2.342,2.342,0,0,1,14.342,36Z" transform="translate(-3.802 -6.721)" fill="#ffdb66"/>
        <path id="Path_880099" data-name="Path 880099" d="M5,25a4.685,4.685,0,0,0,9.369,0Z" transform="translate(-5 -8.604)" fill="#ffdb66"/>
      </g>
      <circle id="Ellipse_11714" data-name="Ellipse 11714" cx="1.757" cy="1.757" r="1.757" transform="translate(8.741 15.597)" fill="#f7fdff"/>
      <circle id="Ellipse_11715" data-name="Ellipse 11715" cx="1.757" cy="1.757" r="1.757" transform="translate(32.164 15.597)" fill="#f7fdff"/>
      <path id="Path_880100" data-name="Path 880100" d="M25,25a4.685,4.685,0,0,0,9.369,0Z" transform="translate(4.236 4.065)" fill="#ffdb66"/>
      <path id="Path_880101" data-name="Path 880101" d="M70.226,1.25H4.642A4.4,4.4,0,0,0,.25,5.642V54.83a4.4,4.4,0,0,0,4.392,4.392H29.283l-1.9,7.612H25.722A3.223,3.223,0,0,0,22.5,70.055V72.4a.878.878,0,0,0,.878.878H51.488a.878.878,0,0,0,.878-.878V70.055a3.223,3.223,0,0,0-3.221-3.221H47.488l-1.9-7.612H70.226a4.4,4.4,0,0,0,4.392-4.392V5.642A4.4,4.4,0,0,0,70.226,1.25ZM49.145,68.591a1.466,1.466,0,0,1,1.464,1.464v1.464H24.258V70.055a1.466,1.466,0,0,1,1.464-1.464Zm-3.467-1.757H29.189l1.9-7.612H43.776Zm27.182-12a2.639,2.639,0,0,1-2.635,2.635H4.642A2.639,2.639,0,0,1,2.007,54.83V52.195H72.861Zm0-4.392H2.007V7.691H72.861Zm0-44.5H2.007V5.642A2.639,2.639,0,0,1,4.642,3.007H70.226a2.639,2.639,0,0,1,2.635,2.635Z"/>
      <path id="Path_880102" data-name="Path 880102" d="M57.128,48.007h2.342a.878.878,0,0,0,0-1.757H57.128a.878.878,0,0,0,0,1.757Z" transform="translate(9.584 7.702)"/>
      <path id="Path_880103" data-name="Path 880103" d="M52.128,48.007h2.342a.878.878,0,1,0,0-1.757H52.128a.878.878,0,1,0,0,1.757Z" transform="translate(8.728 7.702)"/>
      <path id="Path_880104" data-name="Path 880104" d="M47.128,48.007h2.342a.878.878,0,0,0,0-1.757H47.128a.878.878,0,0,0,0,1.757Z" transform="translate(7.873 7.702)"/>
      <path id="Path_880105" data-name="Path 880105" d="M38.128,40.034a.878.878,0,0,0,.878-.878V32.128a.878.878,0,0,0-1.757,0v7.027A.878.878,0,0,0,38.128,40.034Z" transform="translate(6.332 5.134)"/>
      <path id="Path_880106" data-name="Path 880106" d="M51.885,40.034A2.639,2.639,0,0,0,54.52,37.4V33.885a2.635,2.635,0,0,0-5.27,0V37.4a2.639,2.639,0,0,0,2.635,2.635Zm-.878-6.149a.878.878,0,1,1,1.757,0V37.4a.878.878,0,1,1-1.757,0Z" transform="translate(8.386 5.134)"/>
      <path id="Path_880107" data-name="Path 880107" d="M56.128,30.034a.878.878,0,0,0,.878-.878V22.128a.878.878,0,0,0-1.757,0v7.027a.878.878,0,0,0,.878.878Z" transform="translate(9.413 3.423)"/>
      <path id="Path_880108" data-name="Path 880108" d="M39.885,20.034A2.639,2.639,0,0,0,42.52,17.4V13.885a2.635,2.635,0,1,0-5.27,0V17.4A2.639,2.639,0,0,0,39.885,20.034Zm-.878-6.149a.878.878,0,1,1,1.757,0V17.4a.878.878,0,0,1-1.757,0Z" transform="translate(6.332 1.711)"/>
      <path id="Path_880109" data-name="Path 880109" d="M47.128,20.034a.878.878,0,0,0,.878-.878V12.128a.878.878,0,1,0-1.757,0v7.027A.878.878,0,0,0,47.128,20.034Z" transform="translate(7.873 1.711)"/>
      <path id="Path_880110" data-name="Path 880110" d="M44.128,20.034a.878.878,0,0,0,.878-.878V12.128a.878.878,0,1,0-1.757,0v7.027A.878.878,0,0,0,44.128,20.034Z" transform="translate(7.359 1.711)"/>
      <path id="Path_880111" data-name="Path 880111" d="M51.885,20.034A2.639,2.639,0,0,0,54.52,17.4V13.885a2.635,2.635,0,0,0-5.27,0V17.4A2.639,2.639,0,0,0,51.885,20.034Zm-.878-6.149a.878.878,0,0,1,1.757,0V17.4a.878.878,0,1,1-1.757,0Z" transform="translate(8.386 1.711)"/>
      <path id="Path_880112" data-name="Path 880112" d="M57.885,40.034A2.639,2.639,0,0,0,60.52,37.4V33.885a2.635,2.635,0,1,0-5.27,0V37.4a2.639,2.639,0,0,0,2.635,2.635Zm-.878-6.149a.878.878,0,1,1,1.757,0V37.4a.878.878,0,1,1-1.757,0Z" transform="translate(9.413 5.134)"/>
      <path id="Path_880113" data-name="Path 880113" d="M59.128,21.25a.878.878,0,0,0-.878.878v7.027a.878.878,0,1,0,1.757,0V22.128A.878.878,0,0,0,59.128,21.25Z" transform="translate(9.926 3.423)"/>
      <path id="Path_880114" data-name="Path 880114" d="M38.128,30.034a.878.878,0,0,0,.878-.878V22.128a.878.878,0,0,0-1.757,0v7.027a.878.878,0,0,0,.878.878Z" transform="translate(6.332 3.423)"/>
      <path id="Path_880115" data-name="Path 880115" d="M42.007,29.155V22.128a.878.878,0,0,0-1.757,0v7.027a.878.878,0,1,0,1.757,0Z" transform="translate(6.846 3.423)"/>
      <path id="Path_880116" data-name="Path 880116" d="M57.885,20.034A2.639,2.639,0,0,0,60.52,17.4V13.885a2.635,2.635,0,1,0-5.27,0V17.4A2.639,2.639,0,0,0,57.885,20.034Zm-.878-6.149a.878.878,0,0,1,1.757,0V17.4a.878.878,0,1,1-1.757,0Z" transform="translate(9.413 1.711)"/>
      <path id="Path_880117" data-name="Path 880117" d="M45.885,30.034A2.639,2.639,0,0,0,48.52,27.4V23.885a2.635,2.635,0,1,0-5.27,0V27.4a2.639,2.639,0,0,0,2.635,2.635Zm-.878-6.149a.878.878,0,1,1,1.757,0V27.4a.878.878,0,1,1-1.757,0Z" transform="translate(7.359 3.423)"/>
      <path id="Path_880118" data-name="Path 880118" d="M51.885,30.034A2.639,2.639,0,0,0,54.52,27.4V23.885a2.635,2.635,0,0,0-5.27,0V27.4A2.639,2.639,0,0,0,51.885,30.034Zm-.878-6.149a.878.878,0,0,1,1.757,0V27.4a.878.878,0,1,1-1.757,0Z" transform="translate(8.386 3.423)"/>
      <path id="Path_880119" data-name="Path 880119" d="M40.25,33.885V37.4a2.635,2.635,0,1,0,5.27,0V33.885a2.635,2.635,0,0,0-5.27,0Zm1.757,0a.878.878,0,1,1,1.757,0V37.4a.878.878,0,1,1-1.757,0Z" transform="translate(6.846 5.134)"/>
      <path id="Path_880120" data-name="Path 880120" d="M47.128,31.25a.878.878,0,0,0-.878.878v7.027a.878.878,0,1,0,1.757,0V32.128A.878.878,0,0,0,47.128,31.25Z" transform="translate(7.873 5.134)"/>
      <path id="Path_880121" data-name="Path 880121" d="M9.813,33.087a5.57,5.57,0,0,0,5.563-5.563.862.862,0,0,0-.063-.326l-3.762-9.407a2.648,2.648,0,0,0,.789-1.234,33.587,33.587,0,0,0,6.549-1.246v20.7h-.878a3.223,3.223,0,0,0-3.221,3.221v.416a3.224,3.224,0,0,0-2.342,3.1V43.92a.878.878,0,0,0,.878.878h16.4a.878.878,0,0,0,.878-.878V42.749a3.224,3.224,0,0,0-2.342-3.1v-.416a3.223,3.223,0,0,0-3.221-3.221h-.878v-20.7a33.6,33.6,0,0,0,6.549,1.246,2.648,2.648,0,0,0,.789,1.234L27.731,27.2a.862.862,0,0,0-.059.326,5.563,5.563,0,1,0,11.126,0,.862.862,0,0,0-.063-.326l-3.762-9.407a2.66,2.66,0,0,0,.746-1.1h1.029a.878.878,0,1,0,0-1.757H35.72A2.635,2.635,0,0,0,30.8,14.8a31.921,31.921,0,0,1-6.643-1.326v-.591a2.635,2.635,0,1,0-5.27,0v.586A31.893,31.893,0,0,1,12.245,14.8a2.635,2.635,0,0,0-4.919.132H6.3a.878.878,0,1,0,0,1.757H7.329a2.66,2.66,0,0,0,.746,1.1L4.309,27.2a.862.862,0,0,0-.059.326,5.57,5.57,0,0,0,5.563,5.563Zm23.423-1.757a3.811,3.811,0,0,1-3.7-2.928h7.406a3.811,3.811,0,0,1-3.7,2.928Zm3.387-4.685H29.849l3.279-8.2h.213ZM33.236,14.935a.878.878,0,1,1-.878.878A.878.878,0,0,1,33.236,14.935ZM27.38,41.285a1.466,1.466,0,0,1,1.464,1.464v.293H14.2v-.293a1.466,1.466,0,0,1,1.464-1.464Zm-6.734-28.4a.878.878,0,0,1,1.757,0v23.13H20.646Zm4.392,24.887A1.466,1.466,0,0,1,26.5,39.236v.293H16.547v-.293a1.466,1.466,0,0,1,1.464-1.464ZM9.813,14.935a.878.878,0,1,1-.878.878A.878.878,0,0,1,9.813,14.935Zm-.107,3.513H9.92l3.279,8.2H6.426Zm3.81,9.955a3.806,3.806,0,0,1-7.406,0Z" transform="translate(0.685 1.54)"/>
    </g>
  </g>
</svg>
