<svg xmlns="http://www.w3.org/2000/svg" width="100" height="100" viewBox="0 0 100 100">
  <g id="Group_1100965" data-name="Group 1100965" transform="translate(0.242)">
    <g id="Group_1098742" data-name="Group 1098742" transform="translate(0)">
      <rect id="Rectangle_400898" data-name="Rectangle 400898" width="100" height="100" rx="50" transform="translate(-0.242)" fill="#fff" opacity="0.859"/>
      <g id="Rectangle_400907" data-name="Rectangle 400907" transform="translate(-0.242)" fill="none" stroke="#6018ec" stroke-linecap="round" stroke-width="2" stroke-dasharray="7">
        <rect width="100" height="100" rx="50" stroke="none"/>
        <rect x="1" y="1" width="98" height="98" rx="49" fill="none"/>
      </g>
    </g>
    <g id="Group_1103325" data-name="Group 1103325" transform="translate(-6.326 11.48)">
      <g id="Group_1103323" data-name="Group 1103323" transform="translate(26.945 17.084)">
        <g id="Group_1103322" data-name="Group 1103322">
          <path id="Path_880177" data-name="Path 880177" d="M60.433,195.5v31.59l48.987,2.345V195.5a1.759,1.759,0,0,0-1.759-1.759H62.192A1.759,1.759,0,0,0,60.433,195.5Z" transform="translate(-56.902 -185.459)" fill="#80b6fc"/>
          <path id="Path_880178" data-name="Path 880178" d="M414.786,193.744h-3.518a1.759,1.759,0,0,1,1.759,1.759v33.935l3.518-2.345V195.5A1.759,1.759,0,0,0,414.786,193.744Z" transform="translate(-361.798 -185.459)" fill="#62a4fb"/>
          <path id="Path_880179" data-name="Path 880179" d="M87.637,455.775H36.394a2.931,2.931,0,0,1-2.931-2.931v-3.237a1.173,1.173,0,0,1,1.173-1.173H55.7l7.318,1.173,6.486-1.173H89.4a1.173,1.173,0,0,1,1.173,1.173v3.237a2.931,2.931,0,0,1-2.931,2.931Z" transform="translate(-33.463 -406.801)" fill="#f7f9fa"/>
          <path id="Path_880180" data-name="Path 880180" d="M434.56,448.434h-3.518a1.173,1.173,0,0,1,1.173,1.173v3.237a2.931,2.931,0,0,1-2.931,2.931H432.8a2.931,2.931,0,0,0,2.931-2.931v-3.237A1.173,1.173,0,0,0,434.56,448.434Z" transform="translate(-377.455 -406.801)" fill="#e9edf1"/>
          <path id="Path_880181" data-name="Path 880181" d="M215.921,452.1H204.463a1.172,1.172,0,0,1-1.173-1.173v-2.5h13.8v2.5A1.173,1.173,0,0,1,215.921,452.1Z" transform="translate(-181.053 -406.801)" fill="#e9edf1"/>
          <path id="Path_880182" data-name="Path 880182" d="M192.752,165.63H173.628a.655.655,0,0,1-.655-.655V131.129a.655.655,0,0,1,.655-.655h19.124a.655.655,0,0,1,.655.655v33.846A.654.654,0,0,1,192.752,165.63Z" transform="translate(-154.706 -130.474)" fill="#6cf5c2"/>
          <path id="Path_880183" data-name="Path 880183" d="M312.3,130.474h-3.273a.655.655,0,0,1,.655.655v33.846a.655.655,0,0,1-.655.655H312.3a.655.655,0,0,0,.655-.655V131.129A.655.655,0,0,0,312.3,130.474Z" transform="translate(-272.945 -130.474)" fill="#05e39c"/>
          <circle id="Ellipse_11724" data-name="Ellipse 11724" cx="7.598" cy="7.598" r="7.598" transform="matrix(0.201, -0.98, 0.98, 0.201, 20.186, 23.493)" fill="#f7f9fa"/>
        </g>
      </g>
      <g id="Group_1103324" data-name="Group 1103324" transform="translate(25.963 0)">
        <path id="Path_880184" data-name="Path 880184" d="M84.05,57.736H82.673V27.128a2.744,2.744,0,0,0-2.741-2.741H67.937V17.739A1.639,1.639,0,0,0,66.3,16.1h-5.48V6.753a3.448,3.448,0,1,0-1.964,0V16.1H52.939v-3.7a1.334,1.334,0,0,0-2.277-.943l-1.494,1.494a.982.982,0,0,0,1.389,1.389l.418-.418V16.1H45.867a1.639,1.639,0,0,0-1.637,1.637v6.648h-12a2.744,2.744,0,0,0-2.741,2.741V57.736H28.118a2.157,2.157,0,0,0-2.155,2.155v3.237a3.918,3.918,0,0,0,3.914,3.914H69.743a.982.982,0,0,0,0-1.964H29.877a1.952,1.952,0,0,1-1.949-1.949V59.89a.191.191,0,0,1,.191-.191H38.655a.982.982,0,1,0,0-1.964h-7.2V27.128a.778.778,0,0,1,.777-.777H44.23V40.283a.982.982,0,0,0,1.964,0V18.066h5.1a5.356,5.356,0,0,0,5.022,3.512.982.982,0,1,0,0-1.964,3.382,3.382,0,0,1-2.839-1.548H65.974V51.258H46.194v-6.7a.982.982,0,1,0-1.964,0v7.023a1.639,1.639,0,0,0,1.637,1.637H66.3a1.639,1.639,0,0,0,1.637-1.637V26.351H79.932a.778.778,0,0,1,.777.777V57.736H42.488a.982.982,0,1,0,0,1.964H48.2v1.516a2.157,2.157,0,0,0,2.155,2.155H61.813a2.157,2.157,0,0,0,2.155-2.155V59.7H84.05a.191.191,0,0,1,.191.191v3.237a1.952,1.952,0,0,1-1.949,1.949H73.576a.982.982,0,1,0,0,1.964h8.716A3.918,3.918,0,0,0,86.2,63.127V59.89A2.157,2.157,0,0,0,84.05,57.736ZM58.355,3.448a1.484,1.484,0,1,1,1.484,1.484A1.486,1.486,0,0,1,58.355,3.448ZM62,61.216a.191.191,0,0,1-.191.191H50.355a.191.191,0,0,1-.191-.191V59.7H62Z" transform="translate(-25.963 0)"/>
        <path id="Path_880185" data-name="Path 880185" d="M207.633,207.771a8.58,8.58,0,1,0-8.58,8.58A8.59,8.59,0,0,0,207.633,207.771Zm-15.2,0a6.616,6.616,0,1,1,6.616,6.616,6.623,6.623,0,0,1-6.616-6.616Z" transform="translate(-168.932 -173.109)"/>
        <path id="Path_880186" data-name="Path 880186" d="M220.311,246.211c.016-.037.4-.907.765-1.886.136-.367.374-.744.634-.7a.87.87,0,0,1,.551.9,1.985,1.985,0,0,1-.608,1.459.982.982,0,0,0,1.319,1.456,3.811,3.811,0,0,0,1.094-1.783h.465a.982.982,0,1,0,0-1.964h-.417a2.674,2.674,0,0,0-2.059-2,2.549,2.549,0,0,0-2.822,1.95c-.272.736-.566,1.424-.674,1.67a.237.237,0,0,1-.212.065.456.456,0,0,1-.342-.361,1.891,1.891,0,0,1,.363-1.545.982.982,0,0,0-1.509-1.257,4,4,0,0,0-.745,1.48h-.437a.982.982,0,1,0,0,1.964h.472a2.394,2.394,0,0,0,1.918,1.663,2.191,2.191,0,0,0,2.168-.977A.987.987,0,0,0,220.311,246.211Z" transform="translate(-189.984 -210.017)"/>
      </g>
    </g>
  </g>
</svg>
