<svg xmlns="http://www.w3.org/2000/svg" width="100" height="100" viewBox="0 0 100 100">
  <g id="Group_1100965" data-name="Group 1100965" transform="translate(0.242)">
    <g id="Group_1098742" data-name="Group 1098742" transform="translate(0)">
      <rect id="Rectangle_400898" data-name="Rectangle 400898" width="100" height="100" rx="50" transform="translate(-0.242)" fill="#fff" opacity="0.859"/>
      <g id="Rectangle_400907" data-name="Rectangle 400907" transform="translate(-0.242)" fill="none" stroke="#6018ec" stroke-linecap="round" stroke-width="2" stroke-dasharray="7">
        <rect width="100" height="100" rx="50" stroke="none"/>
        <rect x="1" y="1" width="98" height="98" rx="49" fill="none"/>
      </g>
    </g>
    <g id="Page-1" transform="translate(19.267 24.137)">
      <g id="_017---Dark-Web" data-name="017---Dark-Web">
        <path id="Shape" d="M44.42,51H55a4,4,0,0,0,4-4V9H1V47a4,4,0,0,0,4,4Z" fill="#dbf5ff"/>
        <path id="Shape-2" data-name="Shape" d="M56,9V47a4,4,0,0,1-4,4h3a4,4,0,0,0,4-4V9Z" fill="#4dceff"/>
        <path id="Shape-3" data-name="Shape" d="M3,1H57a2,2,0,0,1,2,2V9H1V3A2,2,0,0,1,3,1Z" fill="#02a9f4"/>
        <path id="Shape-4" data-name="Shape" d="M57,1H54a2,2,0,0,1,2,2V9h3V3A2,2,0,0,0,57,1Z" fill="#0377bc"/>
        <circle id="Oval" cx="1" cy="1" r="1" transform="translate(4 4)" fill="#ffeb3a"/>
        <circle id="Oval-2" data-name="Oval" cx="1" cy="1" r="1" transform="translate(8 4)" fill="#e91e63"/>
        <circle id="Oval-3" data-name="Oval" cx="1" cy="1" r="1" transform="translate(12 4)" fill="#ff9801"/>
        <path id="Shape-5" data-name="Shape" d="M55,6H49a1,1,0,0,1,0-2h6a1,1,0,0,1,0,2Z" fill="#f5f5f5"/>
        <path id="Shape-6" data-name="Shape" d="M5,17a1,1,0,0,1-1-1V13a1,1,0,0,1,2,0v3A1,1,0,0,1,5,17Z" fill="#f5f5f5"/>
        <path id="Shape-7" data-name="Shape" d="M5,36a1,1,0,0,1-1-1V20a1,1,0,0,1,2,0V35A1,1,0,0,1,5,36Z" fill="#f5f5f5"/>
        <path id="Shape-8" data-name="Shape" d="M51,28.5c0,1.72-2.14,3.27-5.65,4.44A51.2,51.2,0,0,1,30,35a51.2,51.2,0,0,1-15.35-2.06C11.14,31.77,9,30.22,9,28.5c0-2.26,3.73-4.25,9.39-5.42L17.94,25,17,29s1,2,13,2,13-2,13-2l-.94-4-.45-1.91C47.27,24.25,51,26.24,51,28.5Z" fill="#825a2c"/>
        <path id="Shape-9" data-name="Shape" d="M41.61,23.08l.19.81C45.63,25.07,48,26.7,48,28.5s-2.14,3.27-5.65,4.44A49.61,49.61,0,0,1,28.5,35H30a51.2,51.2,0,0,0,15.35-2.06C48.86,31.77,51,30.22,51,28.5c0-2.26-3.73-4.25-9.39-5.42Z" fill="#624421"/>
        <path id="Shape-10" data-name="Shape" d="M45.35,32.94A51.2,51.2,0,0,1,30,35a51.2,51.2,0,0,1-15.35-2.06c-1.6,3.71.06,8.26,1.76,11.66a4,4,0,0,0,3,2.35c1.76.25,3.57-.5,5.21-1a16.77,16.77,0,0,1,10.84,0c1.64.54,3.45,1.29,5.21,1a4,4,0,0,0,3-2.35C45.29,41.2,47,36.65,45.35,32.94ZM20.38,43c-3.31,0-2.2-6-2.2-6L27,41.8A22.33,22.33,0,0,1,20.38,43Zm19.24,0A22.33,22.33,0,0,1,33,41.8L41.82,37S42.93,43,39.62,43Z" fill="#9d27b0"/>
        <path id="Shape-11" data-name="Shape" d="M45.35,32.94c-.83.28-1.75.52-2.73.75,1.11,3.56-.44,7.74-2,10.91a4.2,4.2,0,0,1-2.33,2.19,6.55,6.55,0,0,0,2.37.16,4,4,0,0,0,3-2.35C45.29,41.2,47,36.65,45.35,32.94Z" fill="#6a1b9a"/>
        <path id="Shape-12" data-name="Shape" d="M42.06,25H42s-.92,2-12,2-12-2-12-2h-.06l.45-1.91,1.74-7.38a4,4,0,0,1,4.38-3A43.58,43.58,0,0,0,30,13a43.58,43.58,0,0,0,5.49-.32,4,4,0,0,1,4.38,3l1.74,7.38Z" fill="sienna"/>
        <path id="Shape-13" data-name="Shape" d="M41.61,23.08,39.87,15.7a4,4,0,0,0-4.38-3c-.42.05-.88.1-1.37.14a4,4,0,0,1,2.75,2.88l1.74,7.38.45,1.9H39s-.84,1.81-10.5,2H30c11.08,0,12-2,12-2h.06Z" fill="#783e22"/>
        <path id="Shape-14" data-name="Shape" d="M43,29s-1,2-13,2-13-2-13-2l.94-4H18s.92,2,12,2,12-2,12-2h.06Z" fill="#e91e63"/>
        <path id="Shape-15" data-name="Shape" d="M42.06,25H42s-.31.66-2.65,1.22L40,29s-.92,1.83-11.5,2H30c12,0,13-2,13-2Z" fill="#ad1457"/>
        <g id="Group_1103334" data-name="Group 1103334">
          <path id="Shape-16" data-name="Shape" d="M57,0H3A3,3,0,0,0,0,3V47a5,5,0,0,0,5,5H55a5,5,0,0,0,5-5V3A3,3,0,0,0,57,0ZM2,3A1,1,0,0,1,3,2H57a1,1,0,0,1,1,1V8H2ZM58,47a3,3,0,0,1-3,3H5a3,3,0,0,1-3-3V10H58Z"/>
          <path id="Shape-17" data-name="Shape" d="M13.39,33.53c-.9,3.07-.21,6.84,2.12,11.51a5,5,0,0,0,3.72,2.9,6.22,6.22,0,0,0,.86.06,12.94,12.94,0,0,0,4.15-.92l.65-.22a15.7,15.7,0,0,1,10.22,0l.65.22a10.94,10.94,0,0,0,5,.86,4.93,4.93,0,0,0,3.7-2.89c2.34-4.68,3-8.45,2.13-11.52,3.27-1.24,5.39-2.92,5.39-5,0-3.54-5.73-5.41-9.56-6.26l-1.6-6.77a5,5,0,0,0-5.48-3.78A42.53,42.53,0,0,1,30,12a42.53,42.53,0,0,1-5.36-.31,5,5,0,0,0-5.48,3.78l-1.6,6.77C13.73,23.09,8,25,8,28.5c0,2.11,2.12,3.79,5.39,5.03Zm29.3,10.63a3.08,3.08,0,0,1-2.2,1.8,9.32,9.32,0,0,1-4.08-.77L35.73,45a17.58,17.58,0,0,0-11.46,0l-.68.23a9.3,9.3,0,0,1-4.07.77,3.11,3.11,0,0,1-2.22-1.81c-2.08-4.16-2.73-7.44-2-10A55,55,0,0,0,30,36a55,55,0,0,0,14.71-1.84c.72,2.55.07,5.84-2.02,10Zm-.81-15.55C41.05,29.05,38.28,30,30,30s-11-1-11.88-1.39l.47-2C20.2,27.31,23.45,28,30,28s9.8-.69,11.41-1.4ZM21.1,15.93a3,3,0,0,1,3.29-2.25A46.63,46.63,0,0,0,30,14a46.63,46.63,0,0,0,5.61-.32,3,3,0,0,1,3.29,2.25l2,8.67C40.24,25,37.72,26,30,26s-10.24-1-10.94-1.4Zm-4.05,8.48-1,4.36a1,1,0,0,0,.08.68C16.49,30.21,18.61,32,30,32s13.51-1.79,13.89-2.55a1,1,0,0,0,.08-.68l-1-4.36c4.85,1.22,7,2.89,7,4.09,0,2.3-7.61,5.5-20,5.5s-20-3.2-20-5.5c.03-1.2,2.23-2.87,7.08-4.09Z"/>
          <path id="Shape-18" data-name="Shape" d="M27.48,40.92l-8.83-4.8a1.031,1.031,0,0,0-1.46.72c-.08.43-.72,4.23.85,6.12A3,3,0,0,0,20.38,44a23.16,23.16,0,0,0,7-1.26.985.985,0,0,0,.1-1.82ZM20.38,42a1,1,0,0,1-.8-.34A5.06,5.06,0,0,1,19,38.59l5.35,2.91a18.25,18.25,0,0,1-3.97.5Z"/>
          <path id="Shape-19" data-name="Shape" d="M32.66,42.74a23.16,23.16,0,0,0,7,1.26A3,3,0,0,0,42,42.94c1.57-1.89.93-5.69.85-6.12a1.031,1.031,0,0,0-1.46-.72l-8.83,4.8a1.026,1.026,0,0,0,.1,1.84ZM41,38.59a5.06,5.06,0,0,1-.57,3.07,1,1,0,0,1-.8.34,18.25,18.25,0,0,1-4-.5Z"/>
        </g>
      </g>
    </g>
  </g>
</svg>
