<svg id="Group_1102643" data-name="Group 1102643" xmlns="http://www.w3.org/2000/svg" width="122.486" height="122.486" viewBox="0 0 122.486 122.486">
  <rect id="Rectangle_402033" data-name="Rectangle 402033" width="122.486" height="122.486" rx="5" transform="translate(0)" fill="#bfa2f7"/>
  <g id="Group_1103352" data-name="Group 1103352" transform="translate(16.265 15.906)">
    <g id="Group_1103350" data-name="Group 1103350" transform="translate(1.46 16.055)">
      <g id="Group_1103342" data-name="Group 1103342" transform="translate(5.838 8.757)">
        <path id="Path_880281" data-name="Path 880281" d="M75.057,66.624H5V22.838A5.838,5.838,0,0,1,10.838,17H69.219a5.838,5.838,0,0,1,5.838,5.838Z" transform="translate(-5 -17)" fill="#ccd1d9"/>
      </g>
      <g id="Group_1103343" data-name="Group 1103343" transform="translate(0 58.381)">
        <path id="Path_880282" data-name="Path 880282" d="M57.148,51l-3.269,7.94a4.564,4.564,0,0,0-.336,1.708V61.1a4.381,4.381,0,0,0,.292,1.576H9.757A8.764,8.764,0,0,1,1,53.919V51H30.19v2.919a2.928,2.928,0,0,0,2.919,2.919H44.786A2.928,2.928,0,0,0,47.7,53.919V51Z" transform="translate(-1 -51)" fill="#aab2bd"/>
      </g>
      <g id="Group_1103344" data-name="Group 1103344" transform="translate(29.19 58.381)">
        <path id="Path_880283" data-name="Path 880283" d="M38.514,51v2.919A2.928,2.928,0,0,1,35.6,56.838H23.919A2.928,2.928,0,0,1,21,53.919V51Z" transform="translate(-21 -51)" fill="#fcd770"/>
      </g>
      <g id="Group_1103345" data-name="Group 1103345" transform="translate(11.676 14.595)">
        <path id="Path_880284" data-name="Path 880284" d="M67.381,58.948H10.46A1.46,1.46,0,0,1,9,57.488V22.46A1.46,1.46,0,0,1,10.46,21H65.921a1.46,1.46,0,0,1,1.46,1.46Z" transform="translate(-9 -21)" fill="#69d6f4"/>
      </g>
      <g id="Group_1103346" data-name="Group 1103346" transform="translate(17.514)">
        <path id="Path_880285" data-name="Path 880285" d="M58,25.6A23.006,23.006,0,0,1,59.7,34.352a23.352,23.352,0,1,1-46.7,0A23.006,23.006,0,0,1,14.708,25.6a22.7,22.7,0,0,1,3.415-5.838,23.352,23.352,0,0,1,36.459,0A22.7,22.7,0,0,1,58,25.6Z" transform="translate(-13 -11)" fill="#4fc1e9"/>
      </g>
      <g id="Group_1103347" data-name="Group 1103347" transform="translate(52.543 32.109)">
        <path id="Path_880286" data-name="Path 880286" d="M60.352,40.006,71.678,67.2a4.449,4.449,0,0,1,.35,1.737v.438a4.5,4.5,0,0,1-4.5,4.5H41.5a4.474,4.474,0,0,1-4.2-2.919A4.381,4.381,0,0,1,37,69.371v-.452a4.564,4.564,0,0,1,.336-1.708l3.269-7.94L43,53.433l7.268-17.646A4.512,4.512,0,0,1,54.412,33h.1a4.514,4.514,0,0,1,4.072,2.758Z" transform="translate(-37 -33)" fill="#ffeaa7"/>
      </g>
      <g id="Group_1103348" data-name="Group 1103348" transform="translate(67.138 61.3)">
        <circle id="Ellipse_11733" data-name="Ellipse 11733" cx="3" cy="3" r="3" transform="translate(-0.352 -0.109)" fill="#ff826e"/>
      </g>
      <g id="Group_1103349" data-name="Group 1103349" transform="translate(67.138 40.867)">
        <path id="Path_880287" data-name="Path 880287" d="M52.838,41.744a2.812,2.812,0,0,1-.015.35L51.554,52.15a1.647,1.647,0,0,1-3.269,0l-1.27-10.056a2.812,2.812,0,0,1-.015-.35A2.741,2.741,0,0,1,49.744,39h.35a2.741,2.741,0,0,1,2.744,2.744Z" transform="translate(-47 -39)" fill="#ff826e"/>
      </g>
    </g>
    <g id="Group_1103351" data-name="Group 1103351">
      <path id="Path_880288" data-name="Path 880288" d="M90.032,80.881,78.814,53.957V29.731a7.306,7.306,0,0,0-7.3-7.3H61.209a24.742,24.742,0,0,0-17.424-8.683V6.379a1.461,1.461,0,0,1,1.46-1.46H75.9V2H45.245a4.384,4.384,0,0,0-4.379,4.379v7.372a24.748,24.748,0,0,0-17.424,8.683H13.136a7.306,7.306,0,0,0-7.3,7.3V72.057H0v4.379A10.229,10.229,0,0,0,10.217,86.652H53.405a5.944,5.944,0,0,0,5.1,2.919H84.528a5.969,5.969,0,0,0,5.962-5.961v-.436A5.943,5.943,0,0,0,90.032,80.881ZM71.516,25.352A4.384,4.384,0,0,1,75.9,29.731V47.8a5.922,5.922,0,0,0-2.919-1.808V31.19a2.922,2.922,0,0,0-2.919-2.919H64.911a24.929,24.929,0,0,0-1.573-2.919ZM59.029,66.219H14.6V31.19h4.018a24.812,24.812,0,1,0,47.426,0h4.018V45.953a5.921,5.921,0,0,0-4.138,3.517ZM22.979,28.271h7.347a44.393,44.393,0,0,0-1.1,8.757H20.508a21.715,21.715,0,0,1,2.471-8.757ZM42.326,16.6c3.258,0,6.209,3.484,8.094,8.757H34.232c1.886-5.273,4.837-8.757,8.094-8.757Zm8.989,11.676a41.4,41.4,0,0,1,1.191,8.757H32.144a41.4,41.4,0,0,1,1.191-8.757Zm12.829,8.757H55.424a44.392,44.392,0,0,0-1.1-8.757h7.347a21.715,21.715,0,0,1,2.471,8.757ZM29.228,39.948a44.393,44.393,0,0,0,1.1,8.757H22.979a21.715,21.715,0,0,1-2.471-8.757Zm2.916,0H52.506A41.4,41.4,0,0,1,51.315,48.7H33.337a41.394,41.394,0,0,1-1.192-8.757Zm-1,11.676a24.307,24.307,0,0,0,3.745,7.427,21.962,21.962,0,0,1-10.033-7.427Zm3.091,0h16.19c-1.886,5.273-4.837,8.757-8.094,8.757s-6.21-3.484-8.1-8.757Zm19.28,0H59.8a21.954,21.954,0,0,1-10.033,7.427A24.308,24.308,0,0,0,53.512,51.624ZM61.673,48.7H54.326a44.393,44.393,0,0,0,1.1-8.757h8.721A21.715,21.715,0,0,1,61.673,48.7ZM59.8,25.352H53.512a24.308,24.308,0,0,0-3.745-7.427A21.962,21.962,0,0,1,59.8,25.352ZM34.885,17.925a24.307,24.307,0,0,0-3.745,7.427H24.853A21.962,21.962,0,0,1,34.885,17.925ZM8.757,29.731a4.384,4.384,0,0,1,4.379-4.379h8.179a24.714,24.714,0,0,0-1.573,2.919H14.6a2.922,2.922,0,0,0-2.919,2.919V66.219A2.922,2.922,0,0,0,14.6,69.138H57.828l-1.2,2.919H8.757ZM32.109,74.976H46.7v1.46a1.461,1.461,0,0,1-1.46,1.46H33.569a1.461,1.461,0,0,1-1.46-1.46ZM10.217,83.733a7.306,7.306,0,0,1-7.3-7.3v-1.46H29.19v1.46a4.384,4.384,0,0,0,4.379,4.379H45.245a4.384,4.384,0,0,0,4.379-4.379v-1.46h5.8L52.992,80.9a5.918,5.918,0,0,0-.45,2.267v.448c0,.042.012.08.012.123Zm77.355-.123a3.045,3.045,0,0,1-3.042,3.042H58.5a3.045,3.045,0,0,1-3.042-3.042v-.448a3.018,3.018,0,0,1,.229-1.156L68.618,50.583A3.031,3.031,0,0,1,71.43,48.7h.007a3.038,3.038,0,0,1,2.8,1.873L87.338,82a3.041,3.041,0,0,1,.234,1.171Z" transform="translate(0 0.919)"/>
      <path id="Path_880289" data-name="Path 880289" d="M50.549,38h-.342A4.212,4.212,0,0,0,46,42.208a4.111,4.111,0,0,0,.032.521l1.257,10.059a3.113,3.113,0,0,0,6.178,0l1.257-10.056a3.931,3.931,0,0,0,.034-.524A4.212,4.212,0,0,0,50.549,38Zm1.279,4.367L50.571,52.426a.2.2,0,0,1-.385,0L48.929,42.364a1.108,1.108,0,0,1-.01-.156,1.29,1.29,0,0,1,1.289-1.289h.342a1.29,1.29,0,0,1,1.289,1.289,1.179,1.179,0,0,1-.01.159Z" transform="translate(21.138 17.462)"/>
      <path id="Path_880290" data-name="Path 880290" d="M50.379,52a4.379,4.379,0,1,0,4.379,4.379A4.384,4.384,0,0,0,50.379,52Zm0,5.838a1.46,1.46,0,1,1,1.46-1.46A1.461,1.461,0,0,1,50.379,57.838Z" transform="translate(21.138 23.895)"/>
      <path id="Path_880291" data-name="Path 880291" d="M52,0h2.919V2.919H52Z" transform="translate(23.895)"/>
      <path id="Path_880292" data-name="Path 880292" d="M52,4h2.919V6.919H52Z" transform="translate(23.895 1.838)"/>
      <path id="Path_880293" data-name="Path 880293" d="M54,2h2.919V4.919H54Z" transform="translate(24.814 0.919)"/>
    </g>
  </g>
</svg>
