<svg xmlns="http://www.w3.org/2000/svg" width="100" height="100" viewBox="0 0 100 100">
  <g id="Group_1103545" data-name="Group 1103545" transform="translate(3170.51 8713.137)">
    <g id="Group_1100965" data-name="Group 1100965" transform="translate(-3170.267 -8713.137)">
      <g id="Group_1098742" data-name="Group 1098742" transform="translate(0)">
        <rect id="Rectangle_400898" data-name="Rectangle 400898" width="100" height="100" rx="50" transform="translate(-0.242)" fill="#fff" opacity="0.859"/>
        <g id="Rectangle_400907" data-name="Rectangle 400907" transform="translate(-0.242)" fill="none" stroke="#6018ec" stroke-linecap="round" stroke-width="2" stroke-dasharray="7">
          <rect width="100" height="100" rx="50" stroke="none"/>
          <rect x="1" y="1" width="98" height="98" rx="49" fill="none"/>
        </g>
      </g>
      <g id="Group_1103338" data-name="Group 1103338" transform="translate(20.304 18.546)">
        <g id="Group_1103335" data-name="Group 1103335" transform="translate(0.863 12.951)">
          <path id="Path_880256" data-name="Path 880256" d="M60.962,458.015H11.219A3.719,3.719,0,0,1,7.5,454.3v-2.324H64.681V454.3a3.719,3.719,0,0,1-3.719,3.719Z" transform="translate(-7.5 -412.922)" fill="#b6c4cf"/>
          <path id="Path_880257" data-name="Path 880257" d="M445.589,451.972V454.3a3.719,3.719,0,0,1-3.719,3.719h3.487a3.719,3.719,0,0,0,3.719-3.719v-2.324Z" transform="translate(-391.895 -412.922)" fill="#9facba"/>
          <path id="Path_880258" data-name="Path 880258" d="M84.9,151.607H33.764V114.881a2.324,2.324,0,0,1,2.324-2.324H82.577a2.324,2.324,0,0,1,2.324,2.324v36.726Z" transform="translate(-30.742 -112.557)" fill="#8d9ca8"/>
          <path id="Path_880259" data-name="Path 880259" d="M104.924,146.958a19.632,19.632,0,0,0,12.943-34.4H91.981a19.632,19.632,0,0,0,12.943,34.4Z" transform="translate(-76.334 -112.557)" fill="#7a8c98"/>
          <path id="Path_880260" data-name="Path 880260" d="M82.577,112.557H79.09a2.324,2.324,0,0,1,2.324,2.324v32.077a1.162,1.162,0,0,1-1.162,1.162H33.764v3.487H84.9V114.881A2.324,2.324,0,0,0,82.577,112.557Z" transform="translate(-30.742 -112.557)" fill="#7a8c98"/>
          <path id="Path_880261" data-name="Path 880261" d="M60.028,170.666V139.983a1.162,1.162,0,0,1,1.162-1.162H103.96a1.162,1.162,0,0,1,1.162,1.162v30.682a1.162,1.162,0,0,1-1.162,1.162H61.19A1.162,1.162,0,0,1,60.028,170.666Z" transform="translate(-53.985 -135.799)" fill="#60b7ff"/>
          <path id="Path_880262" data-name="Path 880262" d="M85.283,150.56a19.641,19.641,0,1,0,35.38-11.738H89.186A19.539,19.539,0,0,0,85.283,150.56Z" transform="translate(-76.334 -135.8)" fill="#26a6fe"/>
          <path id="Path_880263" data-name="Path 880263" d="M207.217,454.994H197.51a1.4,1.4,0,0,1-1.3-.894l-.818-2.128h13.947l-.818,2.128A1.4,1.4,0,0,1,207.217,454.994Z" transform="translate(-173.773 -412.922)" fill="#8d9ca8"/>
        </g>
        <g id="Group_1103336" data-name="Group 1103336" transform="translate(13.531 8.069)">
          <path id="Path_880264" data-name="Path 880264" d="M201.559,73.458a2.31,2.31,0,0,0-1.516-2.179,19.651,19.651,0,0,0-13.238,0,2.31,2.31,0,0,0-1.516,2.179V91.716h16.271Z" transform="translate(-177.501 -70.13)" fill="#fb2b3a"/>
          <circle id="Ellipse_11728" data-name="Ellipse 11728" cx="15.922" cy="15.922" r="15.922" transform="translate(0 3.719)" fill="#fe646f"/>
          <path id="Path_880265" data-name="Path 880265" d="M164.437,127.126a15.923,15.923,0,0,1-22.158,22.158,15.923,15.923,0,1,0,22.158-22.158Z" transform="translate(-139.441 -120.569)" fill="#fd4755"/>
        </g>
        <g id="Group_1103337" data-name="Group 1103337" transform="translate(0 0.001)">
          <path id="Path_880266" data-name="Path 880266" d="M58.044,51.138H55.885V15.275A3.191,3.191,0,0,0,52.7,12.088H38.452V11.4a3.178,3.178,0,0,0-2.088-2.992,20.358,20.358,0,0,0-6.048-1.181V3.275a1.549,1.549,0,1,1,3.1,0A2.056,2.056,0,0,0,35.468,5.33h2.294a.863.863,0,0,0,0-1.726H35.468a.329.329,0,0,1-.328-.328,3.274,3.274,0,1,0-6.549,0V7.225a20.358,20.358,0,0,0-6.048,1.181A3.178,3.178,0,0,0,20.455,11.4v.691H6.209a3.191,3.191,0,0,0-3.188,3.187v21a.863.863,0,0,0,1.726,0v-21a1.463,1.463,0,0,1,1.462-1.461h13.84a16.894,16.894,0,0,0-1.671,1.3H8.069a2.027,2.027,0,0,0-2.025,2.025V47.818a2.027,2.027,0,0,0,2.025,2.025H50.838a2.027,2.027,0,0,0,2.025-2.025V28.14a.863.863,0,1,0-1.726,0V47.818a.3.3,0,0,1-.3.3H8.069a.3.3,0,0,1-.3-.3V17.134a.3.3,0,0,1,.3-.3h8.61a16.785,16.785,0,1,0,25.548,0h8.61a.3.3,0,0,1,.3.3v6.978a.863.863,0,0,0,1.726,0V17.134a2.027,2.027,0,0,0-2.025-2.025H40.528a16.891,16.891,0,0,0-1.672-1.3H52.7a1.463,1.463,0,0,1,1.462,1.462V51.138H4.747V40.3a.863.863,0,0,0-1.726,0V51.138H.863A.863.863,0,0,0,0,52v2.324a4.588,4.588,0,0,0,4.583,4.583H43.6a.863.863,0,0,0,0-1.726H4.582a2.86,2.86,0,0,1-2.857-2.857V52.864H21.887l.606,1.575A2.271,2.271,0,0,0,24.6,55.886h9.706a2.271,2.271,0,0,0,2.107-1.447l.606-1.575H57.181v1.461a2.86,2.86,0,0,1-2.857,2.857H47.631a.863.863,0,0,0,0,1.726h6.693a4.588,4.588,0,0,0,4.583-4.583V52a.863.863,0,0,0-.863-.863ZM23.126,10.03a18.793,18.793,0,0,1,12.655,0,1.448,1.448,0,0,1,.945,1.367v1.187a16.772,16.772,0,0,0-14.545,0V11.4a1.448,1.448,0,0,1,.945-1.367ZM29.453,42.77A15.059,15.059,0,1,1,44.513,27.711,15.076,15.076,0,0,1,29.453,42.77ZM34.8,53.819a.535.535,0,0,1-.5.341H24.6a.535.535,0,0,1-.5-.341l-.367-.955H35.17Z" transform="translate(0 -0.001)"/>
          <path id="Path_880267" data-name="Path 880267" d="M144.189,207.083h-1.712a.863.863,0,0,0-.863.865l.012,6.043a.863.863,0,0,0,.863.861h0c.052,0,1.273,0,1.761-.013,1.876-.033,3.238-1.661,3.238-3.871C147.492,208.644,146.164,207.083,144.189,207.083Zm.035,6.03c-.2,0-.545.006-.873.009l-.009-4.313h.847c1.464,0,1.578,1.652,1.578,2.159C145.766,212.431,144.991,213.1,144.223,213.113Z" transform="translate(-125.321 -183.258)"/>
          <path id="Path_880268" data-name="Path 880268" d="M205.644,207.083h-1.712a.863.863,0,0,0-.863.865l.012,6.043a.863.863,0,0,0,.863.861h0c.052,0,1.273,0,1.761-.013,1.876-.033,3.238-1.661,3.238-3.871C208.947,208.644,207.619,207.083,205.644,207.083Zm.035,6.03c-.2,0-.545.006-.873.009l-.009-4.313h.847c1.464,0,1.578,1.652,1.578,2.159C207.221,212.431,206.446,213.1,205.678,213.113Z" transform="translate(-179.706 -183.258)"/>
          <path id="Path_880269" data-name="Path 880269" d="M323.251,207.218a2.277,2.277,0,0,0-1.643,1.923,1.921,1.921,0,0,0,.991,1.922,11.713,11.713,0,0,0,1.606.667l.267.1c.187.069.792.323.724.7a.925.925,0,0,1-.95.6,2,2,0,0,1-1.467-.612.863.863,0,0,0-1.279,1.159,3.7,3.7,0,0,0,2.745,1.179,2.6,2.6,0,0,0,2.649-2.021,2.377,2.377,0,0,0-1.825-2.625l-.268-.1a10.61,10.61,0,0,1-1.376-.563.2.2,0,0,1-.1-.229.549.549,0,0,1,.425-.448,1.906,1.906,0,0,1,1.564.365.863.863,0,0,0,1.105-1.325A3.635,3.635,0,0,0,323.251,207.218Z" transform="translate(-284.312 -183.261)"/>
          <path id="Path_880270" data-name="Path 880270" d="M266.871,227.287a2.722,2.722,0,1,0,2.723,2.722A2.726,2.726,0,0,0,266.871,227.287Zm0,3.719a1,1,0,1,1,1-1A1,1,0,0,1,266.871,231.006Z" transform="translate(-233.758 -201.137)"/>
          <path id="Path_880271" data-name="Path 880271" d="M350.644,31.169a.863.863,0,0,0,.863.863H352.9a.863.863,0,0,0,0-1.726h-1.395A.863.863,0,0,0,350.644,31.169Z" transform="translate(-310.302 -26.819)"/>
          <path id="Path_880272" data-name="Path 880272" d="M341.4,2.424a.859.859,0,0,0,.431-.116l1.208-.7A.863.863,0,0,0,342.18.117l-1.208.7a.863.863,0,0,0,.432,1.61Z" transform="translate(-301.361 -0.001)"/>
          <path id="Path_880273" data-name="Path 880273" d="M340.973,56.159l1.208.7a.863.863,0,0,0,.863-1.495l-1.208-.7a.863.863,0,0,0-.863,1.495Z" transform="translate(-301.361 -48.273)"/>
        </g>
      </g>
    </g>
  </g>
</svg>
