<svg id="Group_1102645" data-name="Group 1102645" xmlns="http://www.w3.org/2000/svg" width="122.486" height="122.486" viewBox="0 0 122.486 122.486">
  <rect id="Rectangle_402033" data-name="Rectangle 402033" width="122.486" height="122.486" rx="5" transform="translate(0)" fill="#bfa2f7"/>
  <g id="Group_1103378" data-name="Group 1103378" transform="translate(15.241 15.396)">
    <g id="Group_1103376" data-name="Group 1103376" transform="translate(1.476 1.476)">
      <g id="Group_1103365" data-name="Group 1103365" transform="translate(11.808 32.471)">
        <path id="Path_880316" data-name="Path 880316" d="M65.087,61.375H10.476A1.477,1.477,0,0,1,9,59.9V23H63.611a1.477,1.477,0,0,1,1.476,1.476Z" transform="translate(-9 -23)" fill="#69d6f4"/>
      </g>
      <g id="Group_1103366" data-name="Group 1103366" transform="translate(0 76.75)">
        <path id="Path_880317" data-name="Path 880317" d="M80.7,53v2.952a8.863,8.863,0,0,1-8.856,8.856H9.856A8.863,8.863,0,0,1,1,55.952V53H29.043v2.952A2.961,2.961,0,0,0,32,58.9H49.707a2.961,2.961,0,0,0,2.952-2.952V53H80.7Z" transform="translate(-1 -53)" fill="#969faa"/>
      </g>
      <g id="Group_1103367" data-name="Group 1103367" transform="translate(28.043 76.75)">
        <path id="Path_880318" data-name="Path 880318" d="M43.615,53v2.952A2.961,2.961,0,0,1,40.663,58.9H22.952A2.961,2.961,0,0,1,20,55.952V53Z" transform="translate(-20 -53)" fill="#fcd770"/>
      </g>
      <g id="Group_1103368" data-name="Group 1103368" transform="translate(58.035 26.567)">
        <path id="Path_880319" data-name="Path 880319" d="M56.083,24.9V43.265a14.688,14.688,0,0,0-4.325-.649H50.179V26.38A1.48,1.48,0,0,0,48.7,24.9H40.32a17.773,17.773,0,0,0,1-5.9h8.856A5.9,5.9,0,0,1,56.083,24.9Z" transform="translate(-40.32 -19)" fill="#ccd1d9"/>
      </g>
      <g id="Group_1103369" data-name="Group 1103369" transform="translate(5.904 26.567)">
        <path id="Path_880320" data-name="Path 880320" d="M72.894,61.685v7.5H5V24.9A5.9,5.9,0,0,1,10.9,19V61.8a1.48,1.48,0,0,0,1.476,1.476H66.238A14.6,14.6,0,0,0,72.894,61.685Z" transform="translate(-5 -19)" fill="#ccd1d9"/>
      </g>
      <g id="Group_1103370" data-name="Group 1103370" transform="translate(79.702 50.183)">
        <path id="Path_880321" data-name="Path 880321" d="M63.856,35V52.712H55V35Z" transform="translate(-55 -35)" fill="#fcd770"/>
      </g>
      <g id="Group_1103371" data-name="Group 1103371" transform="translate(29.519 50.183)">
        <path id="Path_880322" data-name="Path 880322" d="M48.172,46.808h-.605a3.867,3.867,0,0,0-.413.015C47.494,46.808,47.833,46.808,48.172,46.808Zm-1.21.03a33.477,33.477,0,0,0-20.619,8.044,3.274,3.274,0,0,1-2.111.782A3.225,3.225,0,0,1,21,52.431a7.608,7.608,0,0,1,1.668-4.753A33.808,33.808,0,0,1,49.043,35H60.954a14.688,14.688,0,0,1,4.325.649,10.941,10.941,0,0,1,1.166.413l4.738,1.889V49.76l-3.336,2.671a13.773,13.773,0,0,1-2.568,1.638,14.6,14.6,0,0,1-6.657,1.594H44.615a2.961,2.961,0,0,1-2.952-2.952,5.9,5.9,0,0,1,5.3-5.874Z" transform="translate(-21 -35)" fill="#f0d0b4"/>
      </g>
      <g id="Group_1103372" data-name="Group 1103372" transform="translate(11.808)">
        <path id="Path_880323" data-name="Path 880323" d="M50.327,1H14.9A5.9,5.9,0,0,0,9,6.9V27.567A17.707,17.707,0,0,0,26.712,45.279H38.519A17.68,17.68,0,0,0,56.231,27.567V6.9A5.9,5.9,0,0,0,50.327,1Z" transform="translate(-9 -1)" fill="#e6e9ed"/>
      </g>
      <g id="Group_1103373" data-name="Group 1103373" transform="translate(41.327 8.856)">
        <path id="Path_880324" data-name="Path 880324" d="M39.509,8.3a4.417,4.417,0,0,1,1.3,3.129A1.48,1.48,0,0,1,39.332,12.9H30.476A1.48,1.48,0,0,1,29,11.428,4.422,4.422,0,0,1,33.428,7H36.38A4.417,4.417,0,0,1,39.509,8.3Z" transform="translate(-29 -7)" fill="#969faa"/>
      </g>
      <g id="Group_1103374" data-name="Group 1103374" transform="translate(17.712 8.856)">
        <path id="Path_880325" data-name="Path 880325" d="M20.38,7a4.422,4.422,0,0,1,4.428,4.428A1.48,1.48,0,0,1,23.332,12.9H14.476A1.48,1.48,0,0,1,13,11.428,4.435,4.435,0,0,1,17.428,7Z" transform="translate(-13 -7)" fill="#969faa"/>
      </g>
      <g id="Group_1103375" data-name="Group 1103375" transform="translate(28.339 29.519)">
        <path id="Path_880326" data-name="Path 880326" d="M30.237,21h4.133l-.03.118a7.194,7.194,0,0,1-14.11,0L20.2,21H30.237Z" transform="translate(-20.2 -21)" fill="#ff826e"/>
      </g>
    </g>
    <g id="Group_1103377" data-name="Group 1103377" transform="translate(0 0)">
      <path id="Path_880327" data-name="Path 880327" d="M23.808,14.856A2.955,2.955,0,0,0,26.76,11.9a5.91,5.91,0,0,0-5.9-5.9H17.9A5.91,5.91,0,0,0,12,11.9a2.955,2.955,0,0,0,2.952,2.952Zm-5.9-5.9h2.952A2.957,2.957,0,0,1,23.809,11.9H14.952A2.955,2.955,0,0,1,17.9,8.952Z" transform="translate(5.712 2.856)"/>
      <path id="Path_880328" data-name="Path 880328" d="M30.952,14.856h8.856A2.955,2.955,0,0,0,42.76,11.9a5.91,5.91,0,0,0-5.9-5.9H33.9A5.91,5.91,0,0,0,28,11.9,2.955,2.955,0,0,0,30.952,14.856Zm2.952-5.9h2.952A2.955,2.955,0,0,1,39.808,11.9H30.952A2.955,2.955,0,0,1,33.9,8.952Z" transform="translate(13.327 2.856)"/>
      <path id="Path_880329" data-name="Path 880329" d="M25.667,20.081a4.811,4.811,0,0,1-4.785,4.679,4.754,4.754,0,0,1-3.384-1.4L16.38,22.24l-2.087,2.087,1.117,1.117a7.689,7.689,0,0,0,5.471,2.267c.123,0,.238-.031.359-.035v.035H21.9a8.633,8.633,0,0,0,16.38,0h.67v-.035c.121,0,.236.035.359.035a7.683,7.683,0,0,0,5.471-2.267L45.9,24.327,43.812,22.24l-1.117,1.117a4.754,4.754,0,0,1-3.384,1.4,4.806,4.806,0,0,1-4.785-4.648V18.243l-2.952-2.952V10H28.62v5.293l-2.952,2.952ZM30.1,30.663A5.734,5.734,0,0,1,25.1,27.712h9.982A5.73,5.73,0,0,1,30.1,30.663Zm-1.476-11.2L30.1,17.992l1.476,1.477v.676a7.642,7.642,0,0,0,1.715,4.614H26.9a7.7,7.7,0,0,0,1.721-4.645Z" transform="translate(6.803 4.76)"/>
      <path id="Path_880330" data-name="Path 880330" d="M91.51,70.846V50.183H79.7v2.248l-2.716-1.086c-.078-.031-.158-.052-.236-.081V33.947a7.388,7.388,0,0,0-7.38-7.38H61.99V7.38A7.388,7.388,0,0,0,54.611,0H19.188a7.388,7.388,0,0,0-7.38,7.38V26.716a7.394,7.394,0,0,0-5.9,7.231v42.8H0v4.428A10.343,10.343,0,0,0,10.332,91.51h61.99A10.343,10.343,0,0,0,82.654,81.178V76.75h-5.9V71.6a16.012,16.012,0,0,0,2.013-1.362l.939-.751v1.358ZM82.654,53.135h5.9v14.76h-5.9ZM73.8,33.947V50.441a16.291,16.291,0,0,0-2.843-.258h-.109V35.423a2.955,2.955,0,0,0-2.952-2.952h-6.44a19.25,19.25,0,0,0,.462-2.952H69.37A4.433,4.433,0,0,1,73.8,33.947Zm-43.932,36.9H14.76V38.223A19.171,19.171,0,0,0,31,47.231H42.8A19.213,19.213,0,0,0,60.51,35.423h7.384v14.76H59.033A35.074,35.074,0,0,0,31.512,63.41a9.121,9.121,0,0,0-1.993,5.68,4.669,4.669,0,0,0,.347,1.756ZM14.76,7.38a4.433,4.433,0,0,1,4.428-4.428H54.611A4.433,4.433,0,0,1,59.039,7.38V28.043A16.255,16.255,0,0,1,42.8,44.279H31A16.255,16.255,0,0,1,14.76,28.043ZM79.7,81.178a7.388,7.388,0,0,1-7.38,7.38H10.332a7.388,7.388,0,0,1-7.38-7.38V79.7H28.043v1.476a4.433,4.433,0,0,0,4.428,4.428H50.183a4.433,4.433,0,0,0,4.428-4.428V79.7H79.7ZM31,79.7H51.659v1.476a1.478,1.478,0,0,1-1.476,1.476H32.471A1.478,1.478,0,0,1,31,81.178ZM73.8,76.75H8.856v-42.8a4.422,4.422,0,0,1,2.952-4.156V70.846A2.955,2.955,0,0,0,14.76,73.8H68.621a16.244,16.244,0,0,0,5.178-.859Zm-34.167-5.9a32.089,32.089,0,0,1,11.542-5.1,7.293,7.293,0,0,0-.99,3.623,4.378,4.378,0,0,0,.272,1.476ZM76.92,67.936a13.345,13.345,0,0,1-8.3,2.911H54.611a1.478,1.478,0,0,1-1.476-1.476,4.417,4.417,0,0,1,3.95-4.379c.362-.013.72-.049,1.083-.049h6.775V61.99h-7.38c-.164,0-.317.038-.478.049a35.026,35.026,0,0,0-21.713,8.385,1.758,1.758,0,0,1-2.9-1.334,6.163,6.163,0,0,1,1.346-3.836A32.132,32.132,0,0,1,59.033,53.135H70.955a13.222,13.222,0,0,1,4.933.951L79.7,55.61v10.1Z" transform="translate(0 0)"/>
    </g>
  </g>
</svg>
