<svg xmlns="http://www.w3.org/2000/svg" width="110" height="110" viewBox="0 0 110 110">
  <g id="Group_1100914" data-name="Group 1100914" transform="translate(-704.668 -6155.5)">
    <rect id="Rectangle_402033" data-name="Rectangle 402033" width="110" height="110" rx="5" transform="translate(704.668 6155.5)" fill="#a2f166"/>
    <g id="Group_1103293" data-name="Group 1103293" transform="translate(703.254 6170.5)">
      <path id="Path_879983" data-name="Path 879983" d="M66.622,287.717a1.609,1.609,0,0,0-2.235,0L30.242,320.7a1.738,1.738,0,0,0,1.224.5H99.543a1.739,1.739,0,0,0,1.224-.5Z" transform="translate(-9.137 -242.398)" fill="#ecbe6b"/>
      <path id="Path_879984" data-name="Path 879984" d="M340.3,247.243l22.1,21.344a1.739,1.739,0,0,0,.52-1.242V226.137a1.745,1.745,0,0,0-.117-.627Z" transform="translate(-270.769 -190.288)" fill="#eab14d"/>
      <path id="Path_879985" data-name="Path 879985" d="M27.031,225.51a1.744,1.744,0,0,0-.117.627v41.207a1.739,1.739,0,0,0,.52,1.242l22.1-21.344Z" transform="translate(-6.329 -190.288)" fill="#eab14d"/>
      <g id="Group_1103292" data-name="Group 1103292" transform="translate(20.702 1.176)">
        <path id="Path_879986" data-name="Path 879986" d="M221.98,14.364l-6.612-6.387a1.609,1.609,0,0,0-2.236,0l-6.613,6.387Z" transform="translate(-178.584 -7.526)" fill="#e7a52e"/>
        <path id="Path_879987" data-name="Path 879987" d="M427.086,168.741l-10.11-9.765v20.558L427.5,169.368A1.743,1.743,0,0,0,427.086,168.741Z" transform="translate(-356.171 -135.322)" fill="#e7a52e"/>
        <path id="Path_879988" data-name="Path 879988" d="M38.188,158.976,28.079,168.74a1.742,1.742,0,0,0-.416.627l10.525,10.166Z" transform="translate(-27.663 -135.322)" fill="#e7a52e"/>
      </g>
      <path id="Path_879989" data-name="Path 879989" d="M95.05,101.31v29.564l11.976,11.567,12.047-11.636a1.609,1.609,0,0,1,2.235,0l12.047,11.636,11.976-11.567V101.31Z" transform="translate(-63.823 -85.487)" fill="#f1f1f4"/>
      <path id="Path_879990" data-name="Path 879990" d="M145.331,52.255a.945.945,0,0,0-.945-.945H96a.945.945,0,0,0-.945.945v6.864h50.28Z" transform="translate(-63.823 -43.296)" fill="#5c90b9"/>
      <path id="Path_879991" data-name="Path 879991" d="M382.278,51.31h-5.3v7.809h6.247V52.255A.945.945,0,0,0,382.278,51.31Z" transform="translate(-301.716 -43.296)" fill="#4a80aa"/>
      <path id="Path_879992" data-name="Path 879992" d="M155.044,279.71a5.924,5.924,0,0,0-8.231,0l-6.052,5.845a4.3,4.3,0,0,1-1.88,1.065l5.129,4.954,11.658-11.26Z" transform="translate(-100.809 -234.62)" fill="#dfdde2"/>
      <path id="Path_879993" data-name="Path 879993" d="M318.317,101.31v24.609a4.315,4.315,0,0,1-1.317,3.1l-7.661,7.4a4.3,4.3,0,0,1-1.88,1.065l5.129,4.954,11.976-11.567V101.31Z" transform="translate(-243.056 -85.487)" fill="#dfdde2"/>
      <path id="Path_879994" data-name="Path 879994" d="M142.207,247.579l-3.483,2.011a2.866,2.866,0,0,1-2.686.13,2.369,2.369,0,0,0-2.383,4.082,2.639,2.639,0,0,1,1.137,1.97,2.369,2.369,0,0,0,4.727-.022,2.866,2.866,0,0,1,1.456-2.261l4.191-2.419a11.233,11.233,0,0,1-2.959-3.49Z" transform="translate(-95.531 -208.91)" fill="#c6c1c8"/>
      <path id="Path_879995" data-name="Path 879995" d="M165.58,301.316l-2.039,1.97a2.316,2.316,0,0,0,.762-.23A2.365,2.365,0,0,0,165.58,301.316Z" transform="translate(-121.616 -254.254)" fill="#afaab4"/>
      <path id="Path_879996" data-name="Path 879996" d="M327.008,148.662a2.365,2.365,0,0,0-.762-.858,2.639,2.639,0,0,1-1.137-1.97,2.369,2.369,0,0,0-4.727.022,2.866,2.866,0,0,1-1.456,2.261l-1.015.586a11.105,11.105,0,0,1,1.544,4.307l1.721-.994a2.866,2.866,0,0,1,2.686-.13,2.369,2.369,0,0,0,3.145-3.224Z" transform="translate(-251.876 -121.212)" fill="#c6c1c8"/>
      <path id="Path_879997" data-name="Path 879997" d="M143.745,148.829l-1.232-.711a2.866,2.866,0,0,1-1.456-2.261,2.369,2.369,0,0,0-4.727-.022,2.639,2.639,0,0,1-1.137,1.97,2.369,2.369,0,0,0,2.383,4.082,2.866,2.866,0,0,1,2.686.13l1.98,1.143A11.1,11.1,0,0,1,143.745,148.829Z" transform="translate(-96.828 -121.212)" fill="#c6c1c8"/>
      <path id="Path_879998" data-name="Path 879998" d="M311.515,250.523a2.367,2.367,0,0,0-2.35-.148,2.866,2.866,0,0,1-2.686-.13l-3.272-1.889a11.233,11.233,0,0,1-2.9,3.378.674.674,0,0,0-.095.09l4.02,2.321a2.866,2.866,0,0,1,1.456,2.261,2.369,2.369,0,0,0,4.727.022,2.638,2.638,0,0,1,1.138-1.97,2.37,2.37,0,0,0-.032-3.934Z" transform="translate(-236.938 -209.566)" fill="#c6c1c8"/>
      <path id="Path_879999" data-name="Path 879999" d="M342.992,267.584l-4.729,4.568a2.37,2.37,0,0,0,4.259-1.242,2.638,2.638,0,0,1,1.138-1.97,2.362,2.362,0,0,0,.762-.858,2.39,2.39,0,0,0-.239-2.564A4.316,4.316,0,0,1,342.992,267.584Z" transform="translate(-269.049 -224.048)" fill="#afaab4"/>
      <path id="Path_880000" data-name="Path 880000" d="M196.235,141.889a11.179,11.179,0,0,0-6.59,20,.7.7,0,0,1,.263.612l-.557,6.187a.7.7,0,0,0,.7.764h.632l4.567-4.411a1.609,1.609,0,0,1,2.236,0l4.567,4.411h.909a.7.7,0,0,0,.7-.764L203.1,162.5a.694.694,0,0,1,.263-.611,11.179,11.179,0,0,0-7.128-20Z" transform="translate(-139.998 -119.725)" fill="#dfdde2"/>
      <path id="Path_880001" data-name="Path 880001" d="M215.966,279.71a5.91,5.91,0,0,0-4.384-1.657l-.5,5.533a.7.7,0,0,0,.7.764h.632l4.178-4.036Z" transform="translate(-161.731 -234.62)" fill="#c6c1c8"/>
      <path id="Path_880002" data-name="Path 880002" d="M214.041,215.278a2.715,2.715,0,0,1-2.715-2.715V212.3a1.053,1.053,0,0,1,1.053-1.053H215.7a1.054,1.054,0,0,1,1.053,1.053v.261a2.715,2.715,0,0,1-2.715,2.715Z" transform="translate(-161.938 -178.254)" fill="#665e66"/>
      <path id="Path_880003" data-name="Path 880003" d="M270.418,215.278a2.715,2.715,0,0,0,2.715-2.715V212.3a1.054,1.054,0,0,0-1.053-1.053h-3.324A1.054,1.054,0,0,0,267.7,212.3v.261A2.715,2.715,0,0,0,270.418,215.278Z" transform="translate(-209.51 -178.254)" fill="#665e66"/>
      <path id="Path_880004" data-name="Path 880004" d="M82.679,8.96a2.119,2.119,0,0,0-2.117-2.117H64.571L58.3.785a2.77,2.77,0,0,0-3.863,0L48.164,6.843H32.173A2.119,2.119,0,0,0,30.056,8.96V24.333L20.3,33.752a2.938,2.938,0,0,0-.695,1.048,2.906,2.906,0,0,0-.2,1.049V77.056a2.916,2.916,0,0,0,2.916,2.916H90.407a2.916,2.916,0,0,0,2.914-2.916V35.849a2.917,2.917,0,0,0-.89-2.1l-9.752-9.419V8.96ZM56.063,2.47a.436.436,0,0,1,.608,0L61.2,6.843H51.536ZM31.227,36.18A1.171,1.171,0,0,0,32.4,35.009V16.995H61.674a1.171,1.171,0,1,0,0-2.343H32.4V9.186H80.336v5.467h-13.2a1.171,1.171,0,0,0,0,2.343h13.2v27.9l-10.8,10.436-5.2-5.022a1.876,1.876,0,0,0,.494-1.443l-.414-4.591L66.7,45.593a1.708,1.708,0,0,1,.873,1.325,3.541,3.541,0,0,0,7.064.031,1.463,1.463,0,0,1,.629-1.09,3.541,3.541,0,0,0-3.559-6.1,1.686,1.686,0,0,1-1.584-.093l-2.314-1.336a12.4,12.4,0,0,0,1.011-5.9l1.063-.614a1.71,1.71,0,0,1,1.584-.093,3.541,3.541,0,0,0,3.559-6.1,1.462,1.462,0,0,1-.629-1.09,3.541,3.541,0,0,0-7.063.031,1.709,1.709,0,0,1-.873,1.325l-.071.041A12.571,12.571,0,0,0,65.136,24.5a12.31,12.31,0,0,0-18.571,1.557l-.294-.17a1.708,1.708,0,0,1-.873-1.325,3.541,3.541,0,0,0-7.063-.032,1.462,1.462,0,0,1-.63,1.09,3.541,3.541,0,0,0,3.559,6.1,1.709,1.709,0,0,1,1.584.093l1.331.768a12.385,12.385,0,0,0,.964,5.613l-2.535,1.464a1.686,1.686,0,0,1-1.584.093,3.541,3.541,0,0,0-3.559,6.1,1.463,1.463,0,0,1,.629,1.09,3.541,3.541,0,0,0,7.064-.032,1.708,1.708,0,0,1,.873-1.325L48.615,44.1l-.429,4.76a1.878,1.878,0,0,0,.37,1.295L43.2,55.326,32.4,44.89V40.475a1.171,1.171,0,1,0-2.343,0v2.152l-7.784-7.519,7.784-7.519v7.419a1.171,1.171,0,0,0,1.171,1.172Zm28.626,9.8L59.775,44.7a1.171,1.171,0,0,0-2.078-.668,2.767,2.767,0,0,0-2.463-.1,1.171,1.171,0,0,0-2,.758l-.061,1L50.6,48.182l.477-5.3a1.86,1.86,0,0,0-.735-1.661A9.947,9.947,0,0,1,46.5,33.295a10.008,10.008,0,0,1,20.017.05,9.957,9.957,0,0,1-3.866,7.9,1.858,1.858,0,0,0-.714,1.644l.5,5.591ZM44.59,30.12l-.57-.329a4.022,4.022,0,0,0-3.788-.167,1.193,1.193,0,0,1-1.191-.075A1.22,1.22,0,0,1,38.64,28a1.188,1.188,0,0,1,.385-.435,3.825,3.825,0,0,0,1.646-2.851,1.186,1.186,0,0,1,.184-.55,1.219,1.219,0,0,1,1.545-.43,1.192,1.192,0,0,1,.661.994,4.023,4.023,0,0,0,2.039,3.2l.258.149A12.247,12.247,0,0,0,44.59,30.12Zm3.061,11.832-2.792,1.612a4.023,4.023,0,0,0-2.039,3.2,1.192,1.192,0,0,1-.661.993,1.22,1.22,0,0,1-1.545-.429,1.187,1.187,0,0,1-.184-.551,3.825,3.825,0,0,0-1.646-2.85,1.187,1.187,0,0,1-.385-.434,1.22,1.22,0,0,1,.4-1.553,1.193,1.193,0,0,1,1.191-.075,4.022,4.022,0,0,0,3.788-.167l2.487-1.436A12.329,12.329,0,0,0,47.651,41.952ZM68.4,29.975a12.176,12.176,0,0,0-.778-2.044l.018-.01a4.023,4.023,0,0,0,2.039-3.2,1.192,1.192,0,0,1,.661-.993,1.22,1.22,0,0,1,1.545.43,1.186,1.186,0,0,1,.184.551,3.824,3.824,0,0,0,1.645,2.85,1.188,1.188,0,0,1,.385.435,1.22,1.22,0,0,1-.4,1.553,1.192,1.192,0,0,1-1.191.075,4.021,4.021,0,0,0-3.788.167Zm-1.73,10.4,2.289,1.321a4.022,4.022,0,0,0,3.788.167,1.192,1.192,0,0,1,1.191.075,1.22,1.22,0,0,1,.4,1.553,1.188,1.188,0,0,1-.385.434,3.825,3.825,0,0,0-1.646,2.85,1.187,1.187,0,0,1-.184.551,1.22,1.22,0,0,1-1.546.43,1.192,1.192,0,0,1-.661-.993,4.022,4.022,0,0,0-2.039-3.2l-2.615-1.51a12.331,12.331,0,0,0,1.406-1.682ZM21.757,76.04V37.869l19.76,19.086Zm62.275-3.453,5.219,5.041H23.484L56.063,46.161a.436.436,0,0,1,.608,0l4.569,4.413,0,0L80.027,68.72a1.171,1.171,0,0,0,1.628-1.685L71.218,56.955l19.76-19.086V76.04L85.659,70.9a1.171,1.171,0,0,0-1.628,1.685Zm6.432-37.479-7.784,7.519V27.59Z" transform="translate(0 0)"/>
      <circle id="Ellipse_11704" data-name="Ellipse 11704" cx="1.171" cy="1.171" r="1.171" transform="translate(34.487 10.747)"/>
      <circle id="Ellipse_11705" data-name="Ellipse 11705" cx="1.171" cy="1.171" r="1.171" transform="translate(38.402 10.747)"/>
      <circle id="Ellipse_11706" data-name="Ellipse 11706" cx="1.171" cy="1.171" r="1.171" transform="translate(42.317 10.747)"/>
      <path id="Path_880005" data-name="Path 880005" d="M241.442,241.678a1.172,1.172,0,0,0-1.656,0l-1.843,1.843a1.171,1.171,0,1,0,1.657,1.657l1.015-1.015,1.015,1.015a1.171,1.171,0,0,0,1.657-1.657Z" transform="translate(-184.108 -203.642)"/>
      <path id="Path_880006" data-name="Path 880006" d="M211.6,206.234v-.261a2.227,2.227,0,0,0-2.225-2.225h-3.324a2.227,2.227,0,0,0-2.225,2.225v.261a3.887,3.887,0,1,0,7.774,0Zm-2.343,0a1.544,1.544,0,1,1-3.088,0v-.143h3.088Z" transform="translate(-155.609 -171.925)"/>
      <path id="Path_880007" data-name="Path 880007" d="M267.977,206.234v-.261a2.228,2.228,0,0,0-2.225-2.225h-3.324a2.227,2.227,0,0,0-2.225,2.225v.261a3.887,3.887,0,1,0,7.774,0Zm-2.343,0a1.544,1.544,0,1,1-3.088,0v-.143h3.088Z" transform="translate(-203.181 -171.925)"/>
    </g>
  </g>
</svg>
