<svg xmlns="http://www.w3.org/2000/svg" width="110" height="110" viewBox="0 0 110 110">
  <g id="Group_1100944" data-name="Group 1100944" transform="translate(-704.668 -6155)">
    <rect id="Rectangle_402033" data-name="Rectangle 402033" width="110" height="110" rx="5" transform="translate(704.668 6155)" fill="#a2f166"/>
    <g id="Group_1103301" data-name="Group 1103301" transform="translate(693.844 6170.631)">
      <g id="Group_1103299" data-name="Group 1103299" transform="translate(32.065 1.154)">
        <path id="Path_880034" data-name="Path 880034" d="M43.422,119.279h4.632v-13.9H43.422a6.948,6.948,0,0,0,0,13.9Z" transform="translate(-36.474 -90.328)" fill="#4a66a0"/>
        <circle id="Ellipse_11708" data-name="Ellipse 11708" cx="3.474" cy="3.474" r="3.474" transform="translate(1.158)" fill="#f9475e"/>
        <path id="Path_880035" data-name="Path 880035" d="M402.517,119.279h-4.632v-13.9h4.632a6.948,6.948,0,0,1,0,13.9Z" transform="translate(-342.299 -90.328)" fill="#687daa"/>
        <path id="Path_880036" data-name="Path 880036" d="M202.7,12.115v4.649h-23.16V12.115A4.614,4.614,0,0,1,184.151,7.5h13.931a4.614,4.614,0,0,1,4.614,4.614Z" transform="translate(-157.534 -7.501)" fill="#f3f5fc"/>
        <path id="Path_880037" data-name="Path 880037" d="M188.234,10.6v1.533s-.489,2.179-1.06,4.631h-7.638V12.115A4.614,4.614,0,0,1,184.15,7.5h5.52C188.17,8.216,188.234,10.6,188.234,10.6Z" transform="translate(-157.533 -7.501)" fill="#e8ecf9"/>
        <path id="Path_880038" data-name="Path 880038" d="M217.176,218.321h11.581v20.845H217.176Z" transform="translate(-189.384 -185.896)" fill="#687daa"/>
        <path id="Path_880039" data-name="Path 880039" d="M220.695,235.2v13.9h-3.519V230.061C218.979,232.6,220.695,235.2,220.695,235.2Z" transform="translate(-189.384 -195.831)" fill="#4a66a0"/>
        <path id="Path_880040" data-name="Path 880040" d="M145.344,313.51v11.661a2.308,2.308,0,0,1-2.307,2.307H127.974l-7.149-2.078-6.749,2.078H99.013a2.308,2.308,0,0,1-2.307-2.307V313.51a18.46,18.46,0,0,1,15.148-18.159,2.287,2.287,0,0,1,1.759.409,6.214,6.214,0,0,0,1.621.818l.892,1.124,2.625-.426h0c.678.06,1.433.094,2.272.094,4.4,0,6.48-.929,7.412-1.61a2.287,2.287,0,0,1,1.76-.409A18.46,18.46,0,0,1,145.344,313.51Z" transform="translate(-87.442 -251.048)" fill="#f3f5fc"/>
        <path id="Path_880041" data-name="Path 880041" d="M111.373,313.149v12.8a1.942,1.942,0,0,0,1.235,1.529H99.013a2.308,2.308,0,0,1-2.307-2.307V313.51a18.46,18.46,0,0,1,15.148-18.159,2.287,2.287,0,0,1,1.759.409,10.148,10.148,0,0,0,5.139,1.516C118.617,297.33,111.373,300.233,111.373,313.149Z" transform="translate(-87.442 -251.048)" fill="#e8ecf9"/>
        <path id="Path_880042" data-name="Path 880042" d="M145.344,46.849V63.134a9.229,9.229,0,0,1-9.228,9.228H118.754l-2.6-.677-.918.677h-9.3a9.229,9.229,0,0,1-9.228-9.228v-1.2L100,54.97l-3.294-6.927V46.849a9.229,9.229,0,0,1,9.228-9.228h3.511l2.708,1.261,5.989-1.261h17.973a9.229,9.229,0,0,1,9.228,9.228Z" transform="translate(-87.442 -32.988)" fill="#93bce8"/>
        <path id="Path_880043" data-name="Path 880043" d="M118.754,72.362H105.934a9.229,9.229,0,0,1-9.228-9.228V46.849a9.229,9.229,0,0,1,9.228-9.228h12.209a11.54,11.54,0,0,0-7.287,10.728V62.4C110.856,67.159,114.338,70.816,118.754,72.362Z" transform="translate(-87.442 -32.988)" fill="#68a2df"/>
        <path id="Path_880044" data-name="Path 880044" d="M206.929,93.214a10.424,10.424,0,0,1-10.422,10.422h-13.9a10.44,10.44,0,0,1-2.852-.4L177.7,101.9V86.582l2.21-3.436a10.378,10.378,0,0,1,2.7-.355h13.9A10.423,10.423,0,0,1,206.929,93.214Z" transform="translate(-155.976 -71.211)" fill="#f3f5fc"/>
        <path id="Path_880045" data-name="Path 880045" d="M149.087,102.579a9.351,9.351,0,0,0,.369,2.616A10.426,10.426,0,0,1,149.6,85.1a11.547,11.547,0,0,0-.517,3.425Z" transform="translate(-125.673 -73.166)" fill="#e8ecf9"/>
        <circle id="Ellipse_11709" data-name="Ellipse 11709" cx="3.474" cy="3.474" r="3.474" transform="translate(59.06)" fill="#ff6e80"/>
        <circle id="Ellipse_11710" data-name="Ellipse 11710" cx="2.316" cy="2.316" r="2.316" transform="translate(13.896 67.166)" fill="#f9475e"/>
        <g id="Group_1103298" data-name="Group 1103298" transform="translate(27.214 50.954)">
          <circle id="Ellipse_11711" data-name="Ellipse 11711" cx="2.316" cy="2.316" r="2.316" fill="#ff6e80"/>
          <circle id="Ellipse_11712" data-name="Ellipse 11712" cx="2.316" cy="2.316" r="2.316" transform="translate(8.106 3.474)" fill="#ff6e80"/>
          <circle id="Ellipse_11713" data-name="Ellipse 11713" cx="2.316" cy="2.316" r="2.316" transform="translate(21.424 15.054)" fill="#ff6e80"/>
        </g>
        <path id="Path_880046" data-name="Path 880046" d="M223.546,427.984h-13.9V418.7a4.614,4.614,0,0,1,4.614-4.614h4.668a4.614,4.614,0,0,1,4.614,4.614Z" transform="translate(-183.015 -351.554)" fill="#93bce8"/>
      </g>
      <g id="Group_1103300" data-name="Group 1103300" transform="translate(31.264 0)">
        <path id="Path_880047" data-name="Path 880047" d="M95.753,15.836V9.11a4.628,4.628,0,1,0-2.307,0v6.029a14.581,14.581,0,0,0-2.325-.085A10.392,10.392,0,0,0,80.739,4.632H78.268A5.777,5.777,0,0,0,72.614,0H58.683a5.777,5.777,0,0,0-5.654,4.632H50.558A10.392,10.392,0,0,0,40.176,15.054a15.1,15.1,0,0,0-2.325.083V9.11a4.628,4.628,0,1,0-2.307,0V15.83a8.086,8.086,0,0,0-3.727,3.6,1.153,1.153,0,1,0,2.049,1.06,5.777,5.777,0,0,1,5.148-3.134h1.163V28.95H39.013a5.787,5.787,0,0,1-5.5-3.966,1.153,1.153,0,0,0-2.189.727,8.091,8.091,0,0,0,7.69,5.545h1.163A10.392,10.392,0,0,0,50.558,41.681H58.7v3.111a3.453,3.453,0,0,0-2.432-.47,19.584,19.584,0,0,0-16.1,19.294V75.277a3.464,3.464,0,0,0,3.461,3.461H78.812a1.154,1.154,0,1,0,0-2.307H73.75V74.105h2.32a1.154,1.154,0,0,0,0-2.307H73.75V68.316h1.365a1.162,1.162,0,0,1,.816.337l.964.964a3.485,3.485,0,0,0,2.447,1.013h.4a3.47,3.47,0,1,0,0-2.307h-.4a1.162,1.162,0,0,1-.816-.337l-.964-.964a3.485,3.485,0,0,0-2.448-1.013H73.273A5.8,5.8,0,0,0,70.854,63.3V61.169a3.47,3.47,0,1,0-2.307,0v1.393c-.186-.018-.374-.028-.565-.028h-4.5a5.469,5.469,0,0,0-.736.028V57.695a3.47,3.47,0,1,0-2.307,0V63.3a5.8,5.8,0,0,0-2.419,2.706h-2.8a1.154,1.154,0,1,0,0,2.307h2.32V71.8H56.181a1.162,1.162,0,0,1-.816-.337L54.4,70.5a3.48,3.48,0,0,0-2.449-1.016h-.4a3.47,3.47,0,1,0,0,2.307h.4a1.159,1.159,0,0,1,.816.339l.964.964a3.485,3.485,0,0,0,2.448,1.013h1.365v2.325H43.636a1.155,1.155,0,0,1-1.154-1.154V63.616a17.279,17.279,0,0,1,14.2-17.024,1.139,1.139,0,0,1,.873.205c1.144.836,3.476,1.833,8.092,1.833s6.949-1,8.093-1.833a1.138,1.138,0,0,1,.873-.2,17.279,17.279,0,0,1,14.2,17.024V75.277a1.155,1.155,0,0,1-1.154,1.154H84.2a1.154,1.154,0,1,0,0,2.307H87.66a3.464,3.464,0,0,0,3.461-3.461V63.616a19.584,19.584,0,0,0-16.1-19.294,3.452,3.452,0,0,0-2.433.47V41.68h8.147A10.392,10.392,0,0,0,91.12,31.257h1.163a8.1,8.1,0,0,0,3.469-15.421ZM92.279,4.628A2.321,2.321,0,1,1,94.6,6.948,2.323,2.323,0,0,1,92.279,4.628Zm-57.9,0A2.321,2.321,0,1,1,36.7,6.948a2.323,2.323,0,0,1-2.321-2.321ZM83.019,68.315a1.163,1.163,0,1,1-1.163,1.163A1.164,1.164,0,0,1,83.019,68.315ZM69.7,56.735A1.163,1.163,0,1,1,68.539,57.9,1.164,1.164,0,0,1,69.7,56.735ZM61.6,53.261a1.163,1.163,0,1,1-1.163,1.163A1.164,1.164,0,0,1,61.6,53.261ZM48.278,71.8a1.163,1.163,0,1,1,1.163-1.163A1.164,1.164,0,0,1,48.278,71.8Zm11.576-3.5a3.464,3.464,0,0,1,3.461-3.461h4.668A3.464,3.464,0,0,1,71.443,68.3v8.129H59.854ZM58.683,2.307H72.614a3.466,3.466,0,0,1,3.267,2.325H55.416a3.466,3.466,0,0,1,3.267-2.325Zm11.6,43.526a22.075,22.075,0,0,1-9.274,0V41.68h9.274ZM88.814,31.3a8.084,8.084,0,0,1-8.075,8.075H50.558A8.084,8.084,0,0,1,42.483,31.3V15.014a8.084,8.084,0,0,1,8.075-8.075H80.739a8.084,8.084,0,0,1,8.075,8.075Zm3.47-2.349H91.121V17.361h1.163a5.795,5.795,0,0,1,0,11.589Z" transform="translate(-31.264 0)"/>
        <path id="Path_880048" data-name="Path 880048" d="M169.233,82.16a1.154,1.154,0,0,0-.681,1.482,9.27,9.27,0,0,1-8.692,12.492h-13.9a9.269,9.269,0,0,1,0-18.538h13.9a9.286,9.286,0,0,1,5.892,2.113,1.154,1.154,0,0,0,1.467-1.781,11.6,11.6,0,0,0-7.359-2.64h-13.9a11.576,11.576,0,0,0,0,23.152h13.9a11.583,11.583,0,0,0,10.856-15.6A1.154,1.154,0,0,0,169.233,82.16Z" transform="translate(-118.526 -63.71)"/>
        <path id="Path_880049" data-name="Path 880049" d="M209.265,106.292a1.422,1.422,0,0,0-2.633.029l-4.406,11.417a1.153,1.153,0,0,0,2.152.831l.813-2.105h5.494l.8,2.1a1.154,1.154,0,1,0,2.155-.824Zm-3.184,7.865,1.869-4.844,1.852,4.844Z" transform="translate(-175.866 -89.207)"/>
        <path id="Path_880050" data-name="Path 880050" d="M292.5,106.566v11.58a1.154,1.154,0,1,0,2.307,0v-11.58a1.154,1.154,0,0,0-2.307,0Z" transform="translate(-252.324 -89.199)"/>
      </g>
    </g>
  </g>
</svg>
