<svg id="Group_1102675" data-name="Group 1102675" xmlns="http://www.w3.org/2000/svg" width="122.486" height="122.486" viewBox="0 0 122.486 122.486">
  <rect id="Rectangle_402033" data-name="Rectangle 402033" width="122.486" height="122.486" rx="5" transform="translate(0)" fill="#bfa2f7"/>
  <g id="Group_1103403" data-name="Group 1103403" transform="translate(20.443 19.976)">
    <g id="Group_1103401" data-name="Group 1103401" transform="translate(1.328 1.328)">
      <g id="Group_1103387" data-name="Group 1103387" transform="translate(22.58 74.382)">
        <path id="Path_880346" data-name="Path 880346" d="M52.535,58.328v2.657a1.332,1.332,0,0,1-1.328,1.328H19.328A1.332,1.332,0,0,1,18,60.985V58.328A1.332,1.332,0,0,1,19.328,57H51.206A1.332,1.332,0,0,1,52.535,58.328Z" transform="translate(-18 -57)" fill="#969faa"/>
      </g>
      <g id="Group_1103388" data-name="Group 1103388" transform="translate(27.893 69.069)">
        <path id="Path_880347" data-name="Path 880347" d="M22,53H45.909v5.313H22Z" transform="translate(-22 -53)" fill="#aab2bd"/>
      </g>
      <g id="Group_1103389" data-name="Group 1103389" transform="translate(5.313 18.596)">
        <path id="Path_880348" data-name="Path 880348" d="M68.756,65.474H10.313A5.313,5.313,0,0,1,5,60.161V20.313A5.313,5.313,0,0,1,10.313,15H74.069V60.161A5.313,5.313,0,0,1,68.756,65.474Z" transform="translate(-5 -15)" fill="#ccd1d9"/>
      </g>
      <g id="Group_1103390" data-name="Group 1103390" transform="translate(10.626 23.909)">
        <path id="Path_880349" data-name="Path 880349" d="M66.115,53.535H10.328A1.329,1.329,0,0,1,9,52.206V20.328A1.329,1.329,0,0,1,10.328,19H67.443V52.206A1.329,1.329,0,0,1,66.115,53.535Z" transform="translate(-9 -19)" fill="#69d6f4"/>
      </g>
      <g id="Group_1103391" data-name="Group 1103391" transform="translate(21.956 29.222)">
        <path id="Path_880350" data-name="Path 880350" d="M32.765,23V46.909L17.716,36.283l-.186-.226Z" transform="translate(-17.53 -23)" fill="#dfb28b"/>
      </g>
      <g id="Group_1103392" data-name="Group 1103392" transform="translate(0 29.222)">
        <path id="Path_880351" data-name="Path 880351" d="M16.235,36.057l-.186.226L1,46.909V23Z" transform="translate(-1 -23)" fill="#dfb28b"/>
      </g>
      <g id="Group_1103393" data-name="Group 1103393" transform="translate(0 42.278)">
        <path id="Path_880352" data-name="Path 880352" d="M38.191,43.682H1L16.049,33.056l.186-.226,3.36,2.882,3.36-2.882.186.226Z" transform="translate(-1 -32.83)" fill="#d3a06c"/>
      </g>
      <g id="Group_1103394" data-name="Group 1103394" transform="translate(0 29.222)">
        <path id="Path_880353" data-name="Path 880353" d="M38.191,23,22.956,36.057,19.6,38.939l-3.36-2.882L1,23H38.191Z" transform="translate(-1 -23)" fill="#cf9e76"/>
      </g>
      <g id="Group_1103395" data-name="Group 1103395" transform="translate(61.1 17.294)">
        <path id="Path_880354" data-name="Path 880354" d="M56.975,15.973a10.278,10.278,0,0,0,1.541-1.953l.013.013a13.2,13.2,0,0,1,1.753,6.6V31.261A13.249,13.249,0,0,1,54.97,41.887a11.747,11.747,0,0,1-1.381.9A31.733,31.733,0,0,1,47,23.424v-.133h5.313a2.664,2.664,0,0,0,2.657-2.657V17.978Z" transform="translate(-47 -14.02)" fill="#d3a06c"/>
      </g>
      <g id="Group_1103396" data-name="Group 1103396" transform="translate(47.817 17.294)">
        <path id="Path_880355" data-name="Path 880355" d="M50.283,23.291v.133A31.733,31.733,0,0,1,43.694,42.79,13.274,13.274,0,0,1,37,31.261V20.635a13.14,13.14,0,0,1,1.089-5.273,13.761,13.761,0,0,1,.664-1.328l.013-.013a10.277,10.277,0,0,0,1.541,1.953l2.006,2.006v2.657a2.664,2.664,0,0,0,2.657,2.657h5.313Z" transform="translate(-37 -14.02)" fill="#d3a06c"/>
      </g>
      <g id="Group_1103397" data-name="Group 1103397" transform="translate(54.511 26.698)">
        <path id="Path_880356" data-name="Path 880356" d="M48.628,21.1a31.733,31.733,0,0,0,6.588,19.366,13.254,13.254,0,0,1-13.176,0A31.733,31.733,0,0,0,48.628,21.1Z" transform="translate(-42.04 -21.1)" fill="#cf9e76"/>
      </g>
      <g id="Group_1103398" data-name="Group 1103398" transform="translate(47.817)">
        <path id="Path_880357" data-name="Path 880357" d="M52.939,27.565H44.97a2.664,2.664,0,0,1-2.657-2.657V22.252l-2.006-2.006a10.277,10.277,0,0,1-1.541-1.953,9.671,9.671,0,0,1-.916-1.713A11.284,11.284,0,0,1,48.277,1h4.011A11.275,11.275,0,0,1,63.565,12.277,11.062,11.062,0,0,1,61.8,18.294a10.277,10.277,0,0,1-1.541,1.953l-2.006,2.006v2.657A2.664,2.664,0,0,1,55.6,27.565Z" transform="translate(-37 -1)" fill="#969faa"/>
      </g>
      <g id="Group_1103399" data-name="Group 1103399" transform="translate(63.756 7.97)">
        <path id="Path_880358" data-name="Path 880358" d="M54.313,8.328V9.657a2.664,2.664,0,0,1-2.657,2.657H50.328A1.332,1.332,0,0,1,49,10.985v-.279a4.522,4.522,0,0,1,.465-1.992A3.124,3.124,0,0,1,52.254,7h.731A1.332,1.332,0,0,1,54.313,8.328Z" transform="translate(-49 -7)" fill="#ccd1d9"/>
      </g>
      <g id="Group_1103400" data-name="Group 1103400" transform="translate(53.13 7.97)">
        <path id="Path_880359" data-name="Path 880359" d="M46.313,10.706v.279a1.332,1.332,0,0,1-1.328,1.328H43.656A2.664,2.664,0,0,1,41,9.657V8.328A1.332,1.332,0,0,1,42.328,7h.731a3.124,3.124,0,0,1,2.789,1.713,4.522,4.522,0,0,1,.465,1.992Z" transform="translate(-41 -7)" fill="#ccd1d9"/>
      </g>
    </g>
    <g id="Group_1103402" data-name="Group 1103402" transform="translate(0 0)">
      <path id="Path_880360" data-name="Path 880360" d="M50.657,13.97h1.328A3.99,3.99,0,0,0,55.97,9.985V8.657A2.659,2.659,0,0,0,53.313,6h-.735a4.416,4.416,0,0,0-3.97,2.453A5.808,5.808,0,0,0,48,11.033v.28a2.659,2.659,0,0,0,2.657,2.657Zm0-2.937a3.11,3.11,0,0,1,.329-1.392,1.77,1.77,0,0,1,1.593-.984h.735V9.985a1.33,1.33,0,0,1-1.328,1.328H50.657Z" transform="translate(15.756 1.97)"/>
      <path id="Path_880361" data-name="Path 880361" d="M43.985,13.97h1.328a2.659,2.659,0,0,0,2.657-2.657v-.28a5.808,5.808,0,0,0-.608-2.579A4.416,4.416,0,0,0,43.391,6h-.735A2.659,2.659,0,0,0,40,8.657V9.985A3.99,3.99,0,0,0,43.985,13.97ZM42.657,8.657h.735a1.772,1.772,0,0,1,1.594.984,3.126,3.126,0,0,1,.328,1.392v.28H43.985a1.33,1.33,0,0,1-1.328-1.328Z" transform="translate(13.13 1.97)"/>
      <path id="Path_880362" data-name="Path 880362" d="M79.7,26.565H77.039V25.237a14.59,14.59,0,0,0-1.577-6.54A12.595,12.595,0,0,0,64.44,0H60.417A12.595,12.595,0,0,0,49.394,18.7a14.594,14.594,0,0,0-1.577,6.54v1.328H45.161V23.909H42.5v5.313h5.313v2.657H42.5v2.657h5.313v1.328c0,.449.028.89.068,1.328H42.5V42.5h2.657V39.848h3.222a14.568,14.568,0,0,0,20.686,9.014v9.582H13.283V55.787H39.848V29.222H13.283V26.565H39.82V23.909H13.283a2.659,2.659,0,0,0-2.657,2.657v2.657H7.97V25.237a3.989,3.989,0,0,1,3.983-3.985l27.893.04,0-2.657-27.9-.04a6.649,6.649,0,0,0-6.641,6.641v3.985H0V55.787H5.313v9.3a6.649,6.649,0,0,0,6.641,6.641H27.893v2.657H25.237a2.659,2.659,0,0,0-2.657,2.657V79.7a2.659,2.659,0,0,0,2.657,2.657H57.115A2.659,2.659,0,0,0,59.771,79.7V77.039a2.659,2.659,0,0,0-2.657-2.657H54.458V71.726H70.4a6.649,6.649,0,0,0,6.641-6.641V39.848H79.7V42.5h2.657V37.191H76.971c.04-.438.068-.879.068-1.328V34.535h5.313V31.878H77.039V29.222h5.313V23.909H79.7Zm-5.313-1.328V35.863a11.938,11.938,0,0,1-5.017,9.717,30.56,30.56,0,0,1-5.559-16.359h3.934a3.99,3.99,0,0,0,3.985-3.985V23.13l1.623-1.623c.106-.106.2-.223.3-.332a11.99,11.99,0,0,1,.732,4.062ZM60.415,2.657h4.023a9.943,9.943,0,0,1,7.032,16.972l-2.4,2.4v3.206a1.33,1.33,0,0,1-1.328,1.328H66.413V21.252H63.756v5.313H61.1V21.252H58.443v5.313H57.115a1.33,1.33,0,0,1-1.328-1.328V22.03l-2.4-2.4a9.943,9.943,0,0,1,7.03-16.972ZM50.474,35.863V25.237a11.991,11.991,0,0,1,.732-4.062c.1.11.2.226.3.332L53.13,23.13v2.107a3.99,3.99,0,0,0,3.985,3.985h3.934A30.564,30.564,0,0,1,55.49,45.58a11.938,11.938,0,0,1-5.017-9.717ZM57.816,46.89a33.216,33.216,0,0,0,4.612-9.712,33.2,33.2,0,0,0,4.612,9.712,11.933,11.933,0,0,1-9.223,0ZM25.383,43.559,37.191,33.437V51.895Zm-5.459,1.181L4.919,31.878H34.929Zm-5.459-1.181L2.657,51.895V33.437Zm2.081,1.784,3.378,2.9,3.378-2.9L34.334,53.13H5.514ZM57.116,79.7H25.237V77.039H57.115ZM51.8,74.382H30.55V71.726H51.8Zm18.6-5.313H11.954A3.99,3.99,0,0,1,7.97,65.084v-9.3h2.657v2.657A2.659,2.659,0,0,0,13.283,61.1H69.069a2.659,2.659,0,0,0,2.657-2.657V47.125a14.746,14.746,0,0,0,2.657-2.888V65.084A3.99,3.99,0,0,1,70.4,69.069Z" transform="translate(0 0)"/>
      <path id="Path_880363" data-name="Path 880363" d="M60,14h2.657v2.657H60Z" transform="translate(19.695 4.596)"/>
      <path id="Path_880364" data-name="Path 880364" d="M60,34h2.657v2.657H60Z" transform="translate(19.695 11.161)"/>
      <path id="Path_880365" data-name="Path 880365" d="M32,14h2.657v2.657H32Z" transform="translate(10.504 4.596)"/>
      <path id="Path_880366" data-name="Path 880366" d="M32,34h2.657v2.657H32Z" transform="translate(10.504 11.161)"/>
      <circle id="Ellipse_11734" data-name="Ellipse 11734" cx="1" cy="1" r="1" transform="translate(40.176 64.176)"/>
      <ellipse id="Ellipse_11735" data-name="Ellipse 11735" cx="1.5" cy="1" rx="1.5" ry="1" transform="translate(45.176 64.176)"/>
      <ellipse id="Ellipse_11736" data-name="Ellipse 11736" cx="1.5" cy="1" rx="1.5" ry="1" transform="translate(34.176 64.176)"/>
    </g>
  </g>
</svg>
