<svg xmlns="http://www.w3.org/2000/svg" width="110" height="110" viewBox="0 0 110 110">
  <g id="Group_1102068" data-name="Group 1102068" transform="translate(-704.668 -6155.5)">
    <rect id="Rectangle_402033" data-name="Rectangle 402033" width="110" height="110" rx="5" transform="translate(704.668 6155.5)" fill="#a2f166"/>
    <g id="Group_1103321" data-name="Group 1103321" transform="translate(721.255 6172.087)">
      <g id="Group_1103319" data-name="Group 1103319" transform="translate(1.2 1.2)">
        <g id="Group_1103317" data-name="Group 1103317">
          <path id="Path_880164" data-name="Path 880164" d="M79.413,136.1H11a3,3,0,0,1-3-3V82.778H82.414V133.1A3,3,0,0,1,79.413,136.1Z" transform="translate(-8 -71.559)" fill="#a8daf9"/>
          <path id="Path_880165" data-name="Path 880165" d="M79.413,403.224H11a3,3,0,0,1-3-3v2.7a3,3,0,0,0,3,3H79.413a3,3,0,0,0,3-3v-2.7A3,3,0,0,1,79.413,403.224Z" transform="translate(-8 -341.379)" fill="#8ad2f7"/>
          <path id="Path_880166" data-name="Path 880166" d="M79.413,8H11a3,3,0,0,0-3,3v8.218H82.414V11A3,3,0,0,0,79.413,8Z" transform="translate(-8 -8)" fill="#596e7b"/>
          <path id="Path_880167" data-name="Path 880167" d="M8,64.778H82.414v2.7H8Z" transform="translate(-8 -56.26)" fill="#50626c"/>
          <path id="Path_880168" data-name="Path 880168" d="M125.632,227.463H75.207a2.25,2.25,0,0,1-2.25-2.25v-13.08a2.25,2.25,0,0,1,2.25-2.25h50.424a2.25,2.25,0,0,1,2.25,2.25v13.08A2.25,2.25,0,0,1,125.632,227.463Z" transform="translate(-63.212 -179.594)" fill="#ffd45d"/>
          <path id="Path_880169" data-name="Path 880169" d="M125.632,296.318H75.207a2.25,2.25,0,0,1-2.25-2.25v2.7a2.25,2.25,0,0,0,2.25,2.25h50.424a2.25,2.25,0,0,0,2.25-2.25v-2.7A2.25,2.25,0,0,1,125.632,296.318Z" transform="translate(-63.212 -251.15)" fill="#ffc41a"/>
        </g>
        <path id="Path_880170" data-name="Path 880170" d="M290.835,377.078l-5.154-5.154,3.946-3.946-20.39-7.937,7.937,20.39,3.946-3.946,5.154,5.154Z" transform="translate(-230.044 -307.225)" fill="#fd667e"/>
        <g id="Group_1103318" data-name="Group 1103318" transform="translate(46.374 59.994)">
          <path id="Path_880171" data-name="Path 880171" d="M372.915,412.592l3.946-3.946-1.948-.758-2.824,2.815a.75.75,0,0,0,0,1.062Z" transform="translate(-363.651 -407.888)" fill="#fd4658"/>
          <path id="Path_880172" data-name="Path 880172" d="M330.158,455.341l-2.672,2.686a.75.75,0,0,1-1.062,0l-4.092-4.092a.75.75,0,0,0-1.061,0L317.1,458.11l.756,1.943,3.946-3.946,5.154,5.154,4.561-4.561Z" transform="translate(-317.099 -446.841)" fill="#fd4658"/>
        </g>
      </g>
      <g id="Group_1103320" data-name="Group 1103320" transform="translate(0 0)">
        <path id="Path_880173" data-name="Path 880173" d="M72.681,0H32.454a1.127,1.127,0,1,0,0,2.255H72.681a1.881,1.881,0,0,1,1.879,1.879v7.107H2.255V4.134A1.881,1.881,0,0,1,4.134,2.255H27.944a1.127,1.127,0,1,0,0-2.255H4.134A4.138,4.138,0,0,0,0,4.134V62.793a4.139,4.139,0,0,0,4.134,4.134H14.359a1.127,1.127,0,1,0,0-2.255H4.134a1.881,1.881,0,0,1-1.879-1.879V13.5H40.849V30.347H30.425V28.02l.44.39a1.127,1.127,0,1,0,1.5-1.687L30.046,24.67a1.127,1.127,0,0,0-1.875.844v4.833H13.147a3.386,3.386,0,0,0-3.382,3.382V46.835a3.386,3.386,0,0,0,3.382,3.382H63.67a3.386,3.386,0,0,0,3.382-3.382V33.729a3.386,3.386,0,0,0-3.382-3.382H58.213a1.127,1.127,0,1,0,0,2.255H63.67A1.129,1.129,0,0,1,64.8,33.729V46.835a1.129,1.129,0,0,1-1.127,1.127H13.147a1.129,1.129,0,0,1-1.127-1.127V33.729A1.129,1.129,0,0,1,13.147,32.6H28.255a7.479,7.479,0,0,0,7.382,6.34,1.127,1.127,0,0,0,0-2.255A5.22,5.22,0,0,1,30.549,32.6H53.7a1.127,1.127,0,1,0,0-2.255H43.1V13.5H74.559v49.3a1.881,1.881,0,0,1-1.879,1.879H59.749L61.624,62.8a1.127,1.127,0,0,0-.388-1.848L40.806,53a1.127,1.127,0,0,0-1.46,1.46l3.977,10.216H18.869a1.127,1.127,0,0,0,0,2.255H44.2l3.1,7.959a1.128,1.128,0,0,0,1.848.388L52.3,72.118l4.367,4.367a1.127,1.127,0,0,0,1.594,0L60.55,74.2h0l2.285-2.285a1.128,1.128,0,0,0,0-1.594l-3.393-3.393h13.24a4.139,4.139,0,0,0,4.134-4.134V4.134A4.138,4.138,0,0,0,72.681,0ZM57.468,74.093,53.1,69.726a1.128,1.128,0,0,0-1.595,0l-2.733,2.733-6.4-16.431,16.431,6.4-2.733,2.733a1.127,1.127,0,0,0,0,1.594l4.367,4.367Z" transform="translate(0 0)"/>
        <path id="Path_880174" data-name="Path 880174" d="M40.462,33.553a1.888,1.888,0,1,0,1.888-1.888A1.89,1.89,0,0,0,40.462,33.553Z" transform="translate(-34.392 -26.914)"/>
        <path id="Path_880175" data-name="Path 880175" d="M78.057,33.553a1.888,1.888,0,1,0,1.888-1.888A1.89,1.89,0,0,0,78.057,33.553Z" transform="translate(-66.346 -26.914)"/>
        <path id="Path_880176" data-name="Path 880176" d="M115.653,33.553a1.888,1.888,0,1,0,1.888-1.888A1.89,1.89,0,0,0,115.653,33.553Z" transform="translate(-98.302 -26.914)"/>
      </g>
    </g>
  </g>
</svg>
