<svg xmlns="http://www.w3.org/2000/svg" width="80" height="80" viewBox="0 0 80 80">
  <g id="Group_1103060" data-name="Group 1103060" transform="translate(-199.688 -4973)">
    <rect id="Rectangle_403232" data-name="Rectangle 403232" width="80" height="80" rx="10" transform="translate(199.688 4973)" fill="#4dceff"/>
    <g id="Group_1103059" data-name="Group 1103059" transform="translate(206.593 4919.777)">
      <g id="Group_1103057" data-name="Group 1103057" transform="translate(0.97 70.025)">
        <g id="Group_1103056" data-name="Group 1103056">
          <g id="Group_1103055" data-name="Group 1103055">
            <path id="Path_879326" data-name="Path 879326" d="M88.6,171.4h-2.56l-.97-1.293L84.1,171.4H71.642l-.97-1.293L69.7,171.4H57.24l-.97-1.293L55.3,171.4H42.864l-.97-1.293-.97,1.293H36.193a1.3,1.3,0,0,1-1.293-1.293v-6.891l1.293-.97-1.293-.97v-7.214l1.293-.97-1.293-.97v-7.214l1.293-.97-1.293-.97v-8.183l55-2.586v37.918A1.294,1.294,0,0,1,88.6,171.4Z" transform="translate(-31.358 -125.004)" fill="#978ecb"/>
            <path id="Path_879327" data-name="Path 879327" d="M441.593,132.1v37.918a1.3,1.3,0,0,1-1.293,1.293h3.878a1.3,1.3,0,0,0,1.293-1.293v-6.891l-1.293-.97,1.293-.97v-7.214l-1.293-.97,1.293-.97v-7.214l-1.293-.97,1.293-.97V134.7Z" transform="translate(-384.347 -124.917)" fill="#6e61b6"/>
            <path id="Path_879328" data-name="Path 879328" d="M69.167,94.894H8.793A1.3,1.3,0,0,1,7.5,93.6V87.693A1.3,1.3,0,0,1,8.793,86.4H69.167a1.3,1.3,0,0,1,1.293,1.293V93.6A1.3,1.3,0,0,1,69.167,94.894Z" transform="translate(-7.5 -85.125)" fill="#f7f9fa"/>
            <path id="Path_879329" data-name="Path 879329" d="M468.378,86.4H464.5a1.3,1.3,0,0,1,1.293,1.293V93.6a1.3,1.3,0,0,1-1.293,1.293h3.878a1.3,1.3,0,0,0,1.293-1.293V87.693A1.3,1.3,0,0,0,468.378,86.4Z" transform="translate(-405.419 -85.125)" fill="#e9edf1"/>
            <path id="Path_879330" data-name="Path 879330" d="M190.5,100.094l-6.736-13.225a.642.642,0,0,0-1.2.323l-.259,3.064v1.526a.65.65,0,0,1-1.2.336l-1.37-2.224a.648.648,0,0,0-1.112.026l-5.8,10.174a10.927,10.927,0,0,0,7.55,16.173,12.023,12.023,0,0,0,1.939.039C190.691,116.306,194.66,107.386,190.5,100.094Z" transform="translate(-150.175 -85.245)" fill="#fd8087"/>
            <g id="Group_1103054" data-name="Group 1103054" transform="translate(30.187)">
              <path id="Path_879331" data-name="Path 879331" d="M252.428,91.387l-8.287-14.518a.642.642,0,0,0-1.2.323v4.357l5.611,9.838A10.927,10.927,0,0,1,241,107.56a11.765,11.765,0,0,0,1.939.168A10.921,10.921,0,0,0,252.428,91.387Z" transform="translate(-241 -76.538)" fill="#fd4755"/>
            </g>
            <path id="Path_879332" data-name="Path 879332" d="M222.4,196.71l-4.564-7.912a.449.449,0,0,0-.776,0l-4.564,7.912a5.726,5.726,0,0,0,3.335,8.352,6.008,6.008,0,0,0,1.616.1,5.609,5.609,0,0,0,4.951-8.455Z" transform="translate(-185.318 -174.091)" fill="#ffe282"/>
            <path id="Path_879333" data-name="Path 879333" d="M243.5,279.182a5.952,5.952,0,0,0,1.616.233,5.725,5.725,0,0,0,5.727-5.714A10.893,10.893,0,0,1,243.5,279.182Z" transform="translate(-212.99 -248.211)" fill="#ffd368"/>
          </g>
        </g>
      </g>
      <g id="Group_1103058" data-name="Group 1103058" transform="translate(0 69.058)">
        <path id="Path_879334" data-name="Path 879334" d="M63.929,70.33H52.139a.97.97,0,1,0,0,1.939h11.79a.32.32,0,0,1,.323.323V78.5a.32.32,0,0,1-.323.323H40.245L36.5,72.269H47.9a.97.97,0,1,0,0-1.939H35.4l-.259-.452a1.6,1.6,0,0,0-1.823-.763,1.574,1.574,0,0,0-1.164,1.215H2.262A2.265,2.265,0,0,0,0,72.592V78.5a2.273,2.273,0,0,0,2.262,2.262h1.28v34.363A2.273,2.273,0,0,0,5.8,117.388h55a2.273,2.273,0,0,0,2.262-2.262V80.763h.866A2.273,2.273,0,0,0,66.192,78.5V72.592A2.265,2.265,0,0,0,63.929,70.33ZM46.722,80.763v7.214H44.77a11.819,11.819,0,0,0-1.357-3.594L41.344,80.75h5.378Zm14.4,9.153V97.13H55.655V89.916Zm-39.935,0a11.876,11.876,0,0,0,2.043,7.02c.039.065.09.129.129.194H12.476V89.916Zm3.646-9.153-.75,1.306a.967.967,0,0,0,1.681.957l1.59-2.78,2.624-4.6L31.066,77.4a1.612,1.612,0,0,0,2.986-.84V71.894l4.77,8.352,2.909,5.094a9.841,9.841,0,0,1-.039,9.942,10.279,10.279,0,0,1-2.469,2.857,6.618,6.618,0,0,0-.349-5.986l-4.564-7.912a1.428,1.428,0,0,0-1.228-.711,1.412,1.412,0,0,0-1.228.711l-4.564,7.912a6.647,6.647,0,0,0-.349,6c-.271-.22-.53-.44-.789-.685a10.082,10.082,0,0,1-1.332-1.6,9.909,9.909,0,0,1-1-9.282.971.971,0,1,0-1.8-.737,11.514,11.514,0,0,0-.633,2.133H19.858V80.763ZM19.87,106.3V99.082h5.184a11.652,11.652,0,0,0,7.279,3.09V106.3Zm9.114-8.416a4.741,4.741,0,0,1,0-4.758L33.1,86l4.111,7.123a4.741,4.741,0,0,1,0,4.758,4.742,4.742,0,0,1-8.222,0Zm-18.448-.737H5.482V89.929h5.055ZM5.482,99.082H17.944V106.3H5.482Zm19.444,9.153v7.214H12.476v-7.214Zm1.939,0H39.327v7.214H26.865Zm14.4,0H53.729v7.214H41.267Zm7.395-1.939v-1.513a.97.97,0,0,0-1.939,0V106.3H34.259v-4.163a11.772,11.772,0,0,0,6.865-3.051h5.585v1.487a.97.97,0,0,0,1.939,0V99.082H61.111V106.3Zm5.055-9.153h-10.9c.194-.284.388-.569.556-.866a11.753,11.753,0,0,0,1.616-6.348H53.7ZM1.939,78.5V72.592a.32.32,0,0,1,.323-.323H32.126v3.154l-.776-1.254a1.61,1.61,0,0,0-1.37-.763h-.026a1.583,1.583,0,0,0-1.37.814l-2.624,4.6H2.262a.32.32,0,0,1-.323-.323Zm15.992,2.262v7.214H5.482V80.763ZM5.482,115.126v-6.891h5.055v7.214H5.8A.32.32,0,0,1,5.482,115.126Zm55.319.323H55.655v-7.214h5.469v6.891A.32.32,0,0,1,60.8,115.449Zm.323-27.472H48.661V80.763H61.124Z" transform="translate(0 -69.058)"/>
      </g>
    </g>
  </g>
</svg>
