<svg xmlns="http://www.w3.org/2000/svg" width="110" height="110" viewBox="0 0 110 110">
  <g id="Group_1102053" data-name="Group 1102053" transform="translate(-704.668 -6155)">
    <rect id="Rectangle_402033" data-name="Rectangle 402033" width="110" height="110" rx="5" transform="translate(704.668 6155)" fill="#a2f166"/>
    <g id="Group_1103316" data-name="Group 1103316" transform="translate(723.293 6160.628)">
      <path id="Path_880148" data-name="Path 880148" d="M7.5,22.652H78.118V66.86H7.5Z" transform="translate(-6.434 -6.436)" fill="#62dbfb"/>
      <g id="Group_1103313" data-name="Group 1103313" transform="translate(14.938 21.793)">
        <path id="Path_880149" data-name="Path 880149" d="M105.719,89.78l18.123-26.438a3.308,3.308,0,0,1,5.456,0L147.421,89.78a3.308,3.308,0,0,1-2.728,5.178H108.447A3.308,3.308,0,0,1,105.719,89.78Z" transform="translate(-105.134 -61.904)" fill="#fe646f"/>
        <path id="Path_880150" data-name="Path 880150" d="M273.152,158.349,261.828,141.83c0,.021,0,.042,0,.063a28.089,28.089,0,0,1-10.141,21.634h18.736A3.308,3.308,0,0,0,273.152,158.349Z" transform="translate(-230.864 -130.474)" fill="#fd4755"/>
      </g>
      <path id="Path_880151" data-name="Path 880151" d="M474.2,22.652H478.5V66.86H474.2Z" transform="translate(-406.818 -6.436)" fill="#01d0fb"/>
      <path id="Path_880152" data-name="Path 880152" d="M7.5,333.783H78.118v4.593H7.5Z" transform="translate(-6.434 -273.359)" fill="#d9e7ec"/>
      <path id="Path_880153" data-name="Path 880153" d="M474.2,333.783H478.5v4.593H474.2Z" transform="translate(-406.818 -273.359)" fill="#c5d3dd"/>
      <path id="Path_880154" data-name="Path 880154" d="M185.289,366.108h20.095v12.918H185.289Z" transform="translate(-158.962 -301.091)" fill="#8d9ca8"/>
      <path id="Path_880155" data-name="Path 880155" d="M134.78,457.022h34.448v4.593H134.78Z" transform="translate(-115.629 -379.087)" fill="#d9e7ec"/>
      <path id="Path_880156" data-name="Path 880156" d="M346.915,457.022h4.306v4.593h-4.306Z" transform="translate(-297.623 -379.087)" fill="#c5d3dd"/>
      <g id="Group_1103314" data-name="Group 1103314" transform="translate(29.485 33.213)">
        <path id="Path_880157" data-name="Path 880157" d="M221.291,149.162a6.89,6.89,0,1,0-11.483,5.134v3.047h9.186V154.3a6.871,6.871,0,0,0,2.3-5.134Z" transform="translate(-207.512 -142.272)" fill="#dff6fd"/>
      </g>
      <g id="Group_1103315" data-name="Group 1103315" transform="translate(0 15.15)">
        <path id="Path_880158" data-name="Path 880158" d="M102.036,89.588h36.246a4.373,4.373,0,0,0,3.607-6.846L123.766,56.3a4.371,4.371,0,0,0-3.607-1.9h0a4.372,4.372,0,0,0-3.607,1.9L98.429,82.742a4.373,4.373,0,0,0,3.607,6.846Zm-1.849-5.641L118.31,57.509a2.242,2.242,0,0,1,3.7,0l18.123,26.438a2.242,2.242,0,0,1-1.849,3.51H102.036a2.242,2.242,0,0,1-1.849-3.51Z" transform="translate(-83.785 -48.826)"/>
        <path id="Path_880159" data-name="Path 880159" d="M71.683,15.15H1.066A1.066,1.066,0,0,0,0,16.216V49.372a1.066,1.066,0,0,0,2.131,0V17.281H70.618V24.8a1.066,1.066,0,1,0,2.131,0V16.216A1.066,1.066,0,0,0,71.683,15.15Z" transform="translate(0 -15.15)"/>
        <path id="Path_880160" data-name="Path 880160" d="M71.683,110.56a1.065,1.065,0,0,0-1.066,1.066v29.586H2.131V136.2A1.066,1.066,0,1,0,0,136.2v10.672a1.066,1.066,0,0,0,1.066,1.066h24.2v10.786H19.151a1.066,1.066,0,0,0-1.066,1.066v4.594a1.066,1.066,0,0,0,1.066,1.066H53.6a1.066,1.066,0,0,0,1.066-1.066v-4.594a1.065,1.065,0,0,0-1.066-1.066H47.487V147.936h24.2a1.065,1.065,0,0,0,1.066-1.066V111.626a1.065,1.065,0,0,0-1.066-1.066ZM45.356,158.722H38.861a1.066,1.066,0,1,0,0,2.131H52.533v2.462H20.216v-2.462H33.888a1.066,1.066,0,1,0,0-2.131H27.393V147.936H45.356ZM2.131,145.8v-2.462H70.618V145.8Z" transform="translate(0 -97.003)"/>
        <path id="Path_880161" data-name="Path 880161" d="M202.309,150.909a1.066,1.066,0,0,0,1.066,1.066h9.186a1.065,1.065,0,0,0,1.066-1.066v-2.591a7.955,7.955,0,1,0-11.317,0Zm-.165-8.181a5.824,5.824,0,1,1,9.706,4.34,1.066,1.066,0,0,0-.355.794v1.982h-2.462v-.462a1.066,1.066,0,1,0-2.131,0v.462H204.44v-1.982a1.066,1.066,0,0,0-.355-.794A5.833,5.833,0,0,1,202.143,142.728Z" transform="translate(-171.593 -117.776)"/>
        <path id="Path_880162" data-name="Path 880162" d="M262.688,176.077a1.063,1.063,0,0,0,.407-.081l1.01-.418a1.066,1.066,0,1,0-.814-1.969l-1.01.418a1.066,1.066,0,0,0,.408,2.051Z" transform="translate(-224.449 -151.024)"/>
        <path id="Path_880163" data-name="Path 880163" d="M228.922,175.577l1.01.418a1.066,1.066,0,0,0,.814-1.97l-1.01-.418a1.066,1.066,0,0,0-.814,1.97Z" transform="translate(-195.83 -151.023)"/>
        <circle id="Ellipse_11723" data-name="Ellipse 11723" cx="1.066" cy="1.066" r="1.066" transform="translate(35.309 26.707)"/>
      </g>
    </g>
  </g>
</svg>
