<svg xmlns="http://www.w3.org/2000/svg" width="110" height="110" viewBox="0 0 110 110">
  <g id="Group_1102038" data-name="Group 1102038" transform="translate(-704.668 -6155.5)">
    <rect id="Rectangle_402033" data-name="Rectangle 402033" width="110" height="110" rx="5" transform="translate(704.668 6155.5)" fill="#a2f166"/>
    <g id="Group_1103312" data-name="Group 1103312" transform="translate(720.668 6171.5)">
      <circle id="Ellipse_11716" data-name="Ellipse 11716" cx="17.023" cy="17.023" r="17.023" transform="translate(21.81 21.81)" fill="#bddbff"/>
      <path id="Path_880122" data-name="Path 880122" d="M248.716,143.5c-.409,0-.814.015-1.216.044a17.022,17.022,0,0,1,0,33.958q.6.043,1.216.044a17.023,17.023,0,1,0,0-34.045Z" transform="translate(-209.883 -121.69)" fill="#57a4ff"/>
      <circle id="Ellipse_11717" data-name="Ellipse 11717" cx="12.159" cy="12.159" r="12.159" transform="translate(52.208 1.14)" fill="#ff7956"/>
      <path id="Path_880123" data-name="Path 880123" d="M416.716,7.5c-.41,0-.816.021-1.216.061a12.159,12.159,0,0,1,0,24.2c.4.04.806.061,1.216.061a12.159,12.159,0,1,0,0-24.318Z" transform="translate(-352.349 -6.36)" fill="#ff3f62"/>
      <path id="Path_880124" data-name="Path 880124" d="M409.932,99.86a4.838,4.838,0,0,1-2.432-.652v3.084a2.432,2.432,0,1,0,4.864,0V99.208A4.838,4.838,0,0,1,409.932,99.86Z" transform="translate(-345.565 -84.13)" fill="#bddbff"/>
      <path id="Path_880125" data-name="Path 880125" d="M407.5,99.208v2.667a7.3,7.3,0,0,0,4.864,0V99.208a4.859,4.859,0,0,1-4.864,0Z" transform="translate(-345.565 -84.13)" fill="#57a4ff"/>
      <circle id="Ellipse_11718" data-name="Ellipse 11718" cx="12.159" cy="12.159" r="12.159" transform="translate(1.14 1.14)" fill="#ffe477"/>
      <path id="Path_880126" data-name="Path 880126" d="M80.716,7.5c-.41,0-.816.021-1.216.061a12.159,12.159,0,0,1,0,24.2c.4.04.806.061,1.216.061a12.159,12.159,0,1,0,0-24.318Z" transform="translate(-67.417 -6.36)" fill="#ffb655"/>
      <g id="Group_1103310" data-name="Group 1103310" transform="translate(8.435 12.083)">
        <path id="Path_880127" data-name="Path 880127" d="M55.5,79.5h9.727v7.3H55.5Z" transform="translate(-55.5 -79.5)" fill="#57a4ff"/>
        <path id="Path_880128" data-name="Path 880128" d="M103.5,79.5h2.432v7.3H103.5Z" transform="translate(-96.205 -79.5)" fill="#006df0"/>
      </g>
      <circle id="Ellipse_11719" data-name="Ellipse 11719" cx="12.159" cy="12.159" r="12.159" transform="translate(52.208 52.208)" fill="#57a4ff"/>
      <path id="Path_880129" data-name="Path 880129" d="M416.716,343.5c-.41,0-.816.021-1.216.061a12.159,12.159,0,0,1,0,24.2c.4.04.806.061,1.216.061a12.159,12.159,0,1,0,0-24.318Z" transform="translate(-352.349 -291.292)" fill="#006df0"/>
      <path id="Path_880130" data-name="Path 880130" d="M387.659,396.364a4.864,4.864,0,0,0-9.727,0,2.432,2.432,0,0,0,0,4.864h9.727a2.432,2.432,0,0,0,0-4.864Z" transform="translate(-318.429 -331.997)" fill="#fff"/>
      <path id="Path_880131" data-name="Path 880131" d="M421.579,396.364a4.868,4.868,0,0,0-6.079-4.71,4.866,4.866,0,0,1,3.648,4.71,2.432,2.432,0,0,1,0,4.864h2.432a2.432,2.432,0,0,0,0-4.864Z" transform="translate(-352.349 -331.997)" fill="#bddbff"/>
      <circle id="Ellipse_11720" data-name="Ellipse 11720" cx="4.864" cy="4.864" r="4.864" transform="translate(59.503 6.004)" fill="#ffe477"/>
      <path id="Path_880132" data-name="Path 880132" d="M416.716,39.5a4.874,4.874,0,0,0-1.216.153,4.865,4.865,0,0,1,0,9.421,4.864,4.864,0,1,0,1.216-9.574Z" transform="translate(-352.349 -33.496)" fill="#ffb655"/>
      <circle id="Ellipse_11721" data-name="Ellipse 11721" cx="12.159" cy="12.159" r="12.159" transform="translate(1.14 52.208)" fill="#d7fc7e"/>
      <path id="Path_880133" data-name="Path 880133" d="M80.716,343.5c-.41,0-.816.021-1.216.061a12.159,12.159,0,0,1,0,24.2c.4.04.806.061,1.216.061a12.159,12.159,0,1,0,0-24.318Z" transform="translate(-67.417 -291.292)" fill="#55e072"/>
      <path id="Path_880134" data-name="Path 880134" d="M55.5,380.364v7.3h9.727v-7.3L60.364,375.5Z" transform="translate(-47.065 -318.429)" fill="#ff7956"/>
      <path id="Path_880135" data-name="Path 880135" d="M77.324,375.5,75.5,377.324l4.256,4.256v6.079h2.432v-7.3Z" transform="translate(-64.025 -318.429)" fill="#ff3f62"/>
      <circle id="Ellipse_11722" data-name="Ellipse 11722" cx="3.648" cy="3.648" r="3.648" transform="translate(35.185 35.185)" fill="#fff"/>
      <g id="Group_1103311" data-name="Group 1103311" transform="translate(0 0)">
        <path id="Path_880136" data-name="Path 880136" d="M54,40a4.793,4.793,0,0,0-4.788,4.788v.076H48v9.575H60.007V44.864H58.791v-.076A4.793,4.793,0,0,0,54,40ZM51.5,44.788a2.508,2.508,0,1,1,5.016,0v.076H51.5Zm6.231,7.371H50.28V47.143h7.447Z" transform="translate(-40.705 -33.921)"/>
        <path id="Path_880137" data-name="Path 880137" d="M371.572,396.007H381.3a3.572,3.572,0,0,0,1.06-6.983,6,6,0,0,0-11.847,0,3.572,3.572,0,0,0,1.06,6.983Zm0-4.864h1.14V390a3.724,3.724,0,0,1,7.447,0v1.14h1.14a1.292,1.292,0,0,1,0,2.584h-9.727a1.292,1.292,0,1,1,0-2.584Z" transform="translate(-312.069 -325.637)"/>
        <path id="Path_880138" data-name="Path 880138" d="M386.432,42.826V45.3a3.572,3.572,0,0,0,7.143,0V42.826a6,6,0,1,0-7.143,0ZM391.3,45.3a1.292,1.292,0,0,1-2.584,0V43.865a5.968,5.968,0,0,0,2.584,0ZM390,34.28a3.723,3.723,0,0,1,1.14,7.268V38h-2.28v3.544A3.723,3.723,0,0,1,390,34.28Z" transform="translate(-325.637 -27.136)"/>
        <path id="Path_880139" data-name="Path 880139" d="M26.2,374.211l1.612,1.612,1.7-1.7V379.8H41.518v-5.683l1.7,1.7,1.612-1.612-9.317-9.317Zm13.041,3.314H31.791v-5.683l3.724-3.724,3.724,3.724Z" transform="translate(-22.215 -309.435)"/>
        <path id="Path_880140" data-name="Path 880140" d="M175.5,226.28h1.292V231.3H175.5v2.28h4.864V231.3h-1.292V226.28h1.292V224H175.5Z" transform="translate(-148.826 -189.955)"/>
        <path id="Path_880141" data-name="Path 880141" d="M295.5,224v2.28h2.508v7.371h2.28V226.28H302.8V224Z" transform="translate(-250.588 -189.955)"/>
        <path id="Path_880142" data-name="Path 880142" d="M228.788,224a4.788,4.788,0,1,0,4.788,4.788A4.793,4.793,0,0,0,228.788,224Zm0,7.3a2.508,2.508,0,1,1,2.508-2.508A2.511,2.511,0,0,1,228.788,231.3Z" transform="translate(-189.955 -189.955)"/>
        <path id="Path_880143" data-name="Path 880143" d="M64.367,51.068a13.2,13.2,0,0,0-8.562,3.125L52.45,50.838a18.125,18.125,0,0,0,0-24.01l3.359-3.359A13.315,13.315,0,1,0,54.2,21.857l-3.359,3.359a18.125,18.125,0,0,0-24.01,0l-3.359-3.359a13.285,13.285,0,0,0,.136-16.964L21.839,6.335a11.02,11.02,0,1,1-1.577-1.577L21.7,2.993a13.3,13.3,0,1,0,.153,20.476l3.359,3.359a18.125,18.125,0,0,0,0,24.01L21.857,54.2a13.315,13.315,0,1,0,1.612,1.612l3.359-3.359a18.125,18.125,0,0,0,24.01,0L54.192,55.8a13.325,13.325,0,0,0-3.056,7.219l2.268.229a11.018,11.018,0,1,1,0,2.23l-2.268.229A13.3,13.3,0,1,0,64.367,51.068Zm0-48.788A11.019,11.019,0,1,1,53.348,13.3,11.031,11.031,0,0,1,64.367,2.28ZM13.3,75.386A11.019,11.019,0,1,1,24.318,64.367,11.031,11.031,0,0,1,13.3,75.386Zm25.534-20.67A15.883,15.883,0,1,1,54.715,38.833,15.9,15.9,0,0,1,38.833,54.715Z" transform="translate(0 0)"/>
        <path id="Path_880144" data-name="Path 880144" d="M263.5,104h2.432v2.28H263.5Z" transform="translate(-223.451 -88.193)"/>
        <path id="Path_880145" data-name="Path 880145" d="M231.5,104h2.432v2.28H231.5Z" transform="translate(-196.315 -88.193)"/>
        <path id="Path_880146" data-name="Path 880146" d="M263.5,392h2.432v2.28H263.5Z" transform="translate(-223.451 -332.421)"/>
        <path id="Path_880147" data-name="Path 880147" d="M231.5,392h2.432v2.28H231.5Z" transform="translate(-196.315 -332.421)"/>
      </g>
    </g>
  </g>
</svg>
