<svg xmlns="http://www.w3.org/2000/svg" width="60" height="60" viewBox="0 0 60 60">
  <g id="Group_1103498" data-name="Group 1103498" transform="translate(-279.883 -1198.717)">
    <g id="Group_1072053" data-name="Group 1072053" transform="translate(279.883 1198.717)">
      <circle id="Ellipse_4742" data-name="Ellipse 4742" cx="30" cy="30" r="30" transform="translate(0)" fill="#a2f166"/>
    </g>
    <path id="scale-balanced-solid" d="M25.14,2.092h8.368a2.092,2.092,0,0,1,0,4.184H26.082a5.222,5.222,0,0,1-3.033,3.746V29.287h10.46a2.092,2.092,0,0,1,0,4.184H8.4a2.092,2.092,0,1,1,0-4.184h10.46V10.022a5.247,5.247,0,0,1-3.033-3.746H8.4a2.092,2.092,0,1,1,0-4.184h8.368a5.23,5.23,0,0,1,8.368,0Zm3.635,18.827h9.473L33.508,12.8ZM33.508,27.2c-4.112,0-7.531-2.223-8.237-5.158a2.9,2.9,0,0,1,.438-2.1L31.933,9.27a1.827,1.827,0,0,1,3.151,0l6.223,10.669a2.9,2.9,0,0,1,.438,2.1C41.039,24.972,37.62,27.2,33.508,27.2ZM8.327,12.8,3.594,20.919h9.473ZM.1,22.037a2.9,2.9,0,0,1,.438-2.1L6.758,9.27a1.827,1.827,0,0,1,3.151,0l6.223,10.669a2.9,2.9,0,0,1,.438,2.1c-.713,2.935-4.132,5.158-8.244,5.158S.8,24.972.1,22.037Z" transform="translate(288.962 1211.981)" fill="#0f398d"/>
  </g>
</svg>
