<svg xmlns="http://www.w3.org/2000/svg" width="60" height="60" viewBox="0 0 60 60">
  <g id="Group_1103495" data-name="Group 1103495" transform="translate(-279.883 -1198.717)">
    <g id="Group_1072053" data-name="Group 1072053" transform="translate(279.883 1198.717)">
      <circle id="Ellipse_4742" data-name="Ellipse 4742" cx="30" cy="30" r="30" transform="translate(0)" fill="#a2f166"/>
    </g>
    <path id="house-signal-solid" d="M22.958.569a2.055,2.055,0,0,0-2.786,0L6.823,12.892a2.043,2.043,0,0,0-.546,2.182A16.974,16.974,0,0,1,17.849,26.73l11.932-.006a3.082,3.082,0,0,0,3.081-3.081V16.454h2.054a2.053,2.053,0,0,0,1.393-3.562Zm-4.474,12.8a1.03,1.03,0,0,1,1.027-1.027H23.62a1.03,1.03,0,0,1,1.027,1.027v4.108a1.03,1.03,0,0,1-1.027,1.027H19.512a1.03,1.03,0,0,1-1.027-1.027ZM1.54,16.454a1.54,1.54,0,0,0,0,3.081,11.811,11.811,0,0,1,11.81,11.81,1.54,1.54,0,0,0,3.081,0A14.893,14.893,0,0,0,1.54,16.454Zm.513,16.431A2.054,2.054,0,1,0,0,30.831,2.054,2.054,0,0,0,2.054,32.885ZM0,24.156A1.537,1.537,0,0,0,1.54,25.7a5.648,5.648,0,0,1,5.648,5.648,1.54,1.54,0,1,0,3.081,0A8.73,8.73,0,0,0,1.54,22.616,1.537,1.537,0,0,0,0,24.156Z" transform="translate(290.883 1212.692)" fill="#0f398d"/>
  </g>
</svg>
