<svg xmlns="http://www.w3.org/2000/svg" width="60" height="60" viewBox="0 0 60 60">
  <g id="Group_1103497" data-name="Group 1103497" transform="translate(-279.883 -1198.717)">
    <g id="Group_1072053" data-name="Group 1072053" transform="translate(279.883 1198.717)">
      <circle id="Ellipse_4742" data-name="Ellipse 4742" cx="30" cy="30" r="30" transform="translate(0)" fill="#a2f166"/>
    </g>
    <path id="globe-solid" d="M27.917,20.3a49.592,49.592,0,0,1-.262,5.076h-14.7A47.432,47.432,0,0,1,12.7,20.3a49.592,49.592,0,0,1,.262-5.076h14.7A47.432,47.432,0,0,1,27.917,20.3ZM30.2,15.228h9.763a20.374,20.374,0,0,1,0,10.152H30.2a50.109,50.109,0,0,0,.254-5.076A50.109,50.109,0,0,0,30.2,15.228Zm8.93-2.538H29.876C29.083,7.622,27.513,3.379,25.49.666A20.343,20.343,0,0,1,39.124,12.69Zm-11.825,0H13.3a31.965,31.965,0,0,1,2.141-7.511A12.955,12.955,0,0,1,18.1,1.094,3.277,3.277,0,0,1,20.3,0a3.277,3.277,0,0,1,2.2,1.094,12.955,12.955,0,0,1,2.657,4.084A31.373,31.373,0,0,1,27.307,12.69Zm-16.576,0H1.475A20.356,20.356,0,0,1,15.117.666c-2.022,2.712-3.593,6.956-4.386,12.023ZM.642,15.228h9.763a50.886,50.886,0,0,0,0,10.152H.642a20.374,20.374,0,0,1,0-10.152Zm14.8,20.192a31.411,31.411,0,0,1-2.141-7.5H27.307a31.783,31.783,0,0,1-2.141,7.5A12.955,12.955,0,0,1,22.508,39.5a3.259,3.259,0,0,1-2.2,1.1,3.277,3.277,0,0,1-2.2-1.094,12.955,12.955,0,0,1-2.657-4.084Zm-4.711-7.5c.793,5.068,2.363,9.311,4.386,12.023A20.356,20.356,0,0,1,1.475,27.917Zm28.4,0A20.36,20.36,0,0,1,25.5,39.941c2.022-2.712,3.585-6.956,4.386-12.023H39.14Z" transform="translate(289.579 1208.413)" fill="#0f398d"/>
  </g>
</svg>
