<svg xmlns="http://www.w3.org/2000/svg" width="130" height="137.884" viewBox="0 0 130 137.884">
  <g id="Group_1102710" data-name="Group 1102710" transform="translate(-280.01 -5846.501)">
    <path id="Path_873448" data-name="Path 873448" d="M130,133.973A3.976,3.976,0,0,0,126.024,130H3.976A3.976,3.976,0,0,0,0,133.973v73.452c0,.055,0,.109,0,.163a7.565,7.565,0,0,0,3.453,6.532l57.4,29.89a7.6,7.6,0,0,0,8.277,0l57.4-29.89A7.565,7.565,0,0,0,130,207.589c0-.054,0-.109,0-.163Z" transform="translate(280.01 5739.148)" fill="#fff"/>
    <path id="Path_873449" data-name="Path 873449" d="M121.194,83.7A3.707,3.707,0,0,0,117.487,80H3.707A3.707,3.707,0,0,0,0,83.7V169c0,.051,0,.1,0,.152a7.053,7.053,0,0,0,3.219,6.09l53.516,27.865a7.083,7.083,0,0,0,7.716,0l53.516-27.865a7.053,7.053,0,0,0,3.219-6.09c0-.051,0-.1,0-.152Z" transform="translate(284.343 5774.085)" fill="#6018ec"/>
    <path id="Path_873665" data-name="Path 873665" d="M108.068,12.3A3.305,3.305,0,0,0,104.763,9H3.305A3.305,3.305,0,0,0,0,12.3v89.87c0,.046,0,.091,0,.136a6.289,6.289,0,0,0,2.87,5.43l47.72,24.847a6.316,6.316,0,0,0,6.881,0l47.72-24.847a6.289,6.289,0,0,0,2.87-5.43c0-.045,0-.09,0-.136Z" transform="translate(290.843 5838.004)" fill="none" stroke="#fff" stroke-width="1"/>
    <g id="Group_1103473" data-name="Group 1103473" transform="translate(317.076 5881.414)">
      <g id="Group_1103472" data-name="Group 1103472" transform="translate(0 0)">
        <path id="Path_880451" data-name="Path 880451" d="M27.306,357.186a.806.806,0,0,0,.806-.806v-1.074a.806.806,0,0,0-1.611,0v1.074A.806.806,0,0,0,27.306,357.186Z" transform="translate(-23.653 -316.419)" fill="#fff"/>
        <path id="Path_880452" data-name="Path 880452" d="M27.306,409a.806.806,0,0,0-.806.806v1.074a.806.806,0,0,0,1.611,0v-1.074A.806.806,0,0,0,27.306,409Z" transform="translate(-23.653 -365.064)" fill="#fff"/>
        <path id="Path_880453" data-name="Path 880453" d="M26.5,464.306v1.074a.806.806,0,0,0,1.611,0v-1.074a.806.806,0,0,0-1.611,0Z" transform="translate(-23.653 -413.71)" fill="#fff"/>
        <path id="Path_880454" data-name="Path 880454" d="M206.757,129.306a6.065,6.065,0,0,1-10.146,4.491l.944-.031a.806.806,0,1,0-.053-1.61l-2.6.087a.806.806,0,0,0-.778.778l-.087,2.6a.806.806,0,0,0,.778.832h.027a.806.806,0,0,0,.8-.779l.019-.568a7.678,7.678,0,0,0,12.708-5.8.806.806,0,0,0-1.611,0Z" transform="translate(-173.188 -114.696)" fill="#fff"/>
        <path id="Path_880455" data-name="Path 880455" d="M194.535,68.553a.806.806,0,0,0,.8.779h.027l2.6-.087a.806.806,0,0,0,.778-.778l.087-2.6a.806.806,0,1,0-1.61-.053l-.019.57a7.677,7.677,0,0,0-12.708,5.8.806.806,0,0,0,1.611,0,6.076,6.076,0,0,1,6.069-6.069,6.009,6.009,0,0,1,4.083,1.578l-.95.032A.806.806,0,0,0,194.535,68.553Z" transform="translate(-164.681 -57.571)" fill="#fff"/>
        <path id="Path_880456" data-name="Path 880456" d="M210.806,357.186a.806.806,0,0,0,.806-.806v-1.074a.806.806,0,0,0-1.611,0v1.074A.806.806,0,0,0,210.806,357.186Z" transform="translate(-187.441 -316.419)" fill="#fff"/>
        <path id="Path_880457" data-name="Path 880457" d="M210.806,409a.806.806,0,0,0-.806.806v1.074a.806.806,0,0,0,1.611,0v-1.074A.806.806,0,0,0,210.806,409Z" transform="translate(-187.441 -365.064)" fill="#fff"/>
        <path id="Path_880458" data-name="Path 880458" d="M210.806,463.5a.806.806,0,0,0-.806.806v1.074a.806.806,0,0,0,1.611,0v-1.074A.806.806,0,0,0,210.806,463.5Z" transform="translate(-187.441 -413.71)" fill="#fff"/>
        <path id="Path_880459" data-name="Path 880459" d="M55,37.437a1.882,1.882,0,0,0-1.88-1.88H52.5a.806.806,0,0,0,0,1.611h.623a.269.269,0,0,1,.269.269v3.8a.269.269,0,0,1-.269.269H41.3a.269.269,0,0,1-.269-.269v-3.8a.269.269,0,0,1,.269-.269h7.708a.806.806,0,0,0,0-1.611h-1.1c0-.018,0-.036,0-.054V30.276a.806.806,0,0,0-.806-.806h-18.8V26.512a23.5,23.5,0,0,0,6.323-1.005,7.563,7.563,0,0,0,4.228,1.282h.1a7.792,7.792,0,0,0,7.521-7.456,7.632,7.632,0,0,0-7.631-7.823.035.035,0,0,1-.027-.011.039.039,0,0,1-.012-.029q0-.067,0-.134A11.314,11.314,0,0,0,37.014,5.2a.806.806,0,1,0-1.356.871A9.705,9.705,0,0,1,37.2,11.334c0,.038,0,.076,0,.114a1.651,1.651,0,0,0,1.658,1.672h0a6.021,6.021,0,0,1,6.011,6.174,6.146,6.146,0,0,1-5.931,5.883,5.972,5.972,0,0,1-3.491-1.064,1.368,1.368,0,0,0-1.192-.178,22.267,22.267,0,0,1-6.753.978,22.266,22.266,0,0,1-6.753-.978,1.369,1.369,0,0,0-1.192.178,5.963,5.963,0,0,1-3.491,1.064,6.146,6.146,0,0,1-5.931-5.883,6.021,6.021,0,0,1,6.019-6.174h0a1.651,1.651,0,0,0,1.65-1.673q0-.057,0-.114a9.721,9.721,0,0,1,9.7-9.722,9.577,9.577,0,0,1,6.047,2.121.806.806,0,1,0,1.007-1.258,11.3,11.3,0,0,0-18.363,8.859c0,.045,0,.09,0,.134a.04.04,0,0,1-.012.03.044.044,0,0,1-.036.011,7.632,7.632,0,0,0-7.622,7.823,7.792,7.792,0,0,0,7.521,7.456,7.557,7.557,0,0,0,4.328-1.281,23.507,23.507,0,0,0,6.323,1.005V29.47H7.9a.806.806,0,0,0-.806.806V35.5c0,.018,0,.036,0,.054H1.88A1.882,1.882,0,0,0,0,37.437v3.8a1.868,1.868,0,0,0,.339,1.074A1.868,1.868,0,0,0,0,43.381v3.8A1.868,1.868,0,0,0,.339,48.25,1.868,1.868,0,0,0,0,49.325v3.8A1.882,1.882,0,0,0,1.88,55H6.79a.806.806,0,0,0,0-1.611H1.88a.269.269,0,0,1-.269-.269v-3.8a.269.269,0,0,1,.269-.269H13.7a.269.269,0,0,1,.269.269v3.8a.269.269,0,0,1-.269.269H10.448a.806.806,0,1,0,0,1.611H13.7a1.882,1.882,0,0,0,1.88-1.88v-3.8a1.868,1.868,0,0,0-.339-1.074,1.868,1.868,0,0,0,.339-1.074v-3.8a1.868,1.868,0,0,0-.339-1.074,1.868,1.868,0,0,0,.339-1.074v-3.8a1.882,1.882,0,0,0-1.88-1.88h-5c0-.018,0-.036,0-.054V31.081H26.694v4.475h-5.1a1.882,1.882,0,0,0-1.88,1.88v3.8a1.868,1.868,0,0,0,.339,1.074,1.868,1.868,0,0,0-.339,1.074v3.8a1.868,1.868,0,0,0,.339,1.074,1.868,1.868,0,0,0-.339,1.074v3.8A1.882,1.882,0,0,0,21.592,55H33.408a1.882,1.882,0,0,0,1.88-1.88v-3.8a1.868,1.868,0,0,0-.339-1.074,1.868,1.868,0,0,0,.339-1.074v-3.8a1.868,1.868,0,0,0-.339-1.074,1.868,1.868,0,0,0,.339-1.074v-3.8a1.882,1.882,0,0,0-1.88-1.88h-5.1V31.081H46.3V35.5c0,.018,0,.036,0,.054h-5a1.882,1.882,0,0,0-1.88,1.88v3.8a1.868,1.868,0,0,0,.339,1.074,1.868,1.868,0,0,0-.339,1.074v3.8a1.868,1.868,0,0,0,.339,1.074,1.868,1.868,0,0,0-.339,1.074v3.8A1.882,1.882,0,0,0,41.3,55H53.12A1.882,1.882,0,0,0,55,53.12v-3.8a1.868,1.868,0,0,0-.339-1.074A1.868,1.868,0,0,0,55,47.176v-3.8a1.868,1.868,0,0,0-.339-1.074A1.868,1.868,0,0,0,55,41.232Zm-41.035,9.74a.269.269,0,0,1-.269.269H1.88a.269.269,0,0,1-.269-.269v-3.8a.269.269,0,0,1,.269-.269H13.7a.269.269,0,0,1,.269.269ZM13.7,37.168a.269.269,0,0,1,.269.269v3.8a.269.269,0,0,1-.269.269H1.88a.269.269,0,0,1-.269-.269v-3.8a.269.269,0,0,1,.269-.269ZM33.677,53.12a.269.269,0,0,1-.269.269H21.592a.269.269,0,0,1-.269-.269v-3.8a.269.269,0,0,1,.269-.269H33.408a.269.269,0,0,1,.269.269Zm0-5.944a.269.269,0,0,1-.269.269H21.592a.269.269,0,0,1-.269-.269v-3.8a.269.269,0,0,1,.269-.269H33.408a.269.269,0,0,1,.269.269Zm-.269-10.008a.269.269,0,0,1,.269.269v3.8a.269.269,0,0,1-.269.269H21.592a.269.269,0,0,1-.269-.269v-3.8a.269.269,0,0,1,.269-.269ZM53.389,53.12a.269.269,0,0,1-.269.269H41.3a.269.269,0,0,1-.269-.269v-3.8a.269.269,0,0,1,.269-.269H53.12a.269.269,0,0,1,.269.269Zm0-5.944a.269.269,0,0,1-.269.269H41.3a.269.269,0,0,1-.269-.269v-3.8a.269.269,0,0,1,.269-.269H53.12a.269.269,0,0,1,.269.269Z" transform="translate(0 0)" fill="#fff"/>
        <path id="Path_880460" data-name="Path 880460" d="M393.5,355.306v1.074a.806.806,0,0,0,1.611,0v-1.074a.806.806,0,0,0-1.611,0Z" transform="translate(-351.229 -316.419)" fill="#fff"/>
        <path id="Path_880461" data-name="Path 880461" d="M394.306,409a.806.806,0,0,0-.806.806v1.074a.806.806,0,0,0,1.611,0v-1.074A.806.806,0,0,0,394.306,409Z" transform="translate(-351.229 -365.064)" fill="#fff"/>
        <path id="Path_880462" data-name="Path 880462" d="M394.306,463.5a.806.806,0,0,0-.806.806v1.074a.806.806,0,0,0,1.611,0v-1.074A.806.806,0,0,0,394.306,463.5Z" transform="translate(-351.229 -413.71)" fill="#fff"/>
      </g>
    </g>
  </g>
</svg>
