<svg xmlns="http://www.w3.org/2000/svg" width="130" height="137.885" viewBox="0 0 130 137.885">
  <g id="Group_1102709" data-name="Group 1102709" transform="translate(-280.01 -5846.501)">
    <path id="Path_873448" data-name="Path 873448" d="M130,133.973A3.976,3.976,0,0,0,126.024,130H3.976A3.976,3.976,0,0,0,0,133.973v73.452c0,.055,0,.109,0,.163a7.565,7.565,0,0,0,3.453,6.532l57.4,29.89a7.6,7.6,0,0,0,8.277,0l57.4-29.89A7.565,7.565,0,0,0,130,207.589c0-.054,0-.109,0-.163Z" transform="translate(280.01 5739.148)" fill="#fff"/>
    <path id="Path_873449" data-name="Path 873449" d="M121.194,83.7A3.707,3.707,0,0,0,117.487,80H3.707A3.707,3.707,0,0,0,0,83.7V169c0,.051,0,.1,0,.152a7.053,7.053,0,0,0,3.219,6.09l53.516,27.865a7.083,7.083,0,0,0,7.716,0l53.516-27.865a7.053,7.053,0,0,0,3.219-6.09c0-.051,0-.1,0-.152Z" transform="translate(284.343 5774.085)" fill="#6018ec"/>
    <path id="Path_873665" data-name="Path 873665" d="M108.068,12.3A3.305,3.305,0,0,0,104.763,9H3.305A3.305,3.305,0,0,0,0,12.3v89.87c0,.046,0,.091,0,.136a6.289,6.289,0,0,0,2.87,5.43l47.72,24.847a6.316,6.316,0,0,0,6.881,0l47.72-24.847a6.289,6.289,0,0,0,2.87-5.43c0-.045,0-.09,0-.136Z" transform="translate(290.843 5838.004)" fill="none" stroke="#fff" stroke-width="1"/>
    <g id="Group_1103475" data-name="Group 1103475" transform="translate(317.408 5879.088)">
      <path id="Path_880477" data-name="Path 880477" d="M48,28H60.419v1.774H48Z" transform="translate(-5.419 -3.161)" fill="#fff"/>
      <path id="Path_880478" data-name="Path 880478" d="M48,32H60.419v1.774H48Z" transform="translate(-5.419 -3.613)" fill="#fff"/>
      <path id="Path_880479" data-name="Path 880479" d="M52.29,55.887a2.658,2.658,0,0,0-2.5,1.774H40.238L37.577,55H31v1.774h5.842L39.5,59.435H49.792a2.657,2.657,0,1,0,2.5-3.548Zm0,3.548a.887.887,0,1,1,.887-.887A.888.888,0,0,1,52.29,59.435Z" transform="translate(-3.5 -6.21)" fill="#fff"/>
      <path id="Path_880480" data-name="Path 880480" d="M56.516,47.887a2.658,2.658,0,0,0-2.5,1.774h-7.78L43.577,47H37v1.774h5.842L45.5,51.435h8.514a2.657,2.657,0,1,0,2.5-3.548Zm0,3.548a.887.887,0,1,1,.887-.887A.888.888,0,0,1,56.516,51.435Z" transform="translate(-4.177 -5.306)" fill="#fff"/>
      <path id="Path_880481" data-name="Path 880481" d="M56.968,39.887a2.658,2.658,0,0,0-2.5,1.774H50.238L47.577,39H41v1.774h5.842L49.5,43.435H54.47a2.657,2.657,0,1,0,2.5-3.548Zm0,3.548a.887.887,0,1,1,.887-.887A.888.888,0,0,1,56.968,43.435Z" transform="translate(-4.629 -4.403)" fill="#fff"/>
      <path id="Path_880482" data-name="Path 880482" d="M40.238,3.548h9.554a2.661,2.661,0,1,0,0-1.774H39.5L36.842,4.435H31V6.21h6.577ZM52.29,1.774a.887.887,0,1,1-.887.887A.888.888,0,0,1,52.29,1.774Z" transform="translate(-3.5)" fill="#fff"/>
      <path id="Path_880483" data-name="Path 880483" d="M52.339,14.517a2.658,2.658,0,0,0-2.5,1.774H44.875l-2.661,2.661H37.258V15.566l-.8-.161a4.51,4.51,0,0,1-2.749-1.774H39.4l2.661-2.661h7.78a2.661,2.661,0,1,0,0-1.774H41.327l-2.661,2.661H32.919a4.389,4.389,0,0,1-.1-.887v-.532L18.629,2.867,4.435,10.437v.532A4.536,4.536,0,0,1,.8,15.4l-.8.161V20.9A38.374,38.374,0,0,0,14.909,51.387a6.061,6.061,0,0,0,7.439,0,38.746,38.746,0,0,0,13.688-20.9h4.77V25.162H36.988a38.348,38.348,0,0,0,.27-4.262v-.174h5.69l2.661-2.661h4.231a2.657,2.657,0,1,0,2.5-3.548Zm0-5.323a.887.887,0,1,1-.887.887A.888.888,0,0,1,52.339,9.195ZM39.032,28.711H28.387V26.937H39.032Zm-21.29,7.1V46.826A33.069,33.069,0,0,1,5.323,20.9V19.176a9.973,9.973,0,0,0,4-5.313l8.422-4.491V19.84h1.774V9.372l8.421,4.491a9.974,9.974,0,0,0,4,5.327V20.9a33.6,33.6,0,0,1-.3,4.262H27.867l-3.548-3.548H10.645v3.548H7.1v5.323h3.548v3.548H24.319l3.548-3.548h2.661A32.879,32.879,0,0,1,19.516,46.832V35.808Zm5.323-10.645H12.419V23.388H23.065Zm0,1.774v1.774H8.871V26.937ZM12.419,30.485H23.065v1.774H12.419Zm12.419-5.842,1.774,1.774v2.814L24.839,31Zm8.6.52A35.294,35.294,0,0,0,33.71,20.9v-2.71l-.437-.257a8.161,8.161,0,0,1-3.728-4.9l-.1-.373L18.629,6.888,7.814,12.656l-.1.373a8.179,8.179,0,0,1-3.729,4.892l-.438.257V20.9A34.851,34.851,0,0,0,17.087,48.585a2.511,2.511,0,0,0,3.083,0,34.664,34.664,0,0,0,12.2-18.1H34.2a36.97,36.97,0,0,1-12.946,19.5,4.4,4.4,0,0,1-5.26,0A36.612,36.612,0,0,1,1.774,20.9V16.984a6.323,6.323,0,0,0,4.412-5.471L18.629,4.877l12.442,6.636a6.334,6.334,0,0,0,4.412,5.464V20.9a36.487,36.487,0,0,1-.279,4.262Zm18.9-7.1a.887.887,0,1,1,.887-.887A.888.888,0,0,1,52.339,18.066Z" transform="translate(0 -0.324)" fill="#fff"/>
    </g>
  </g>
</svg>
