<svg xmlns="http://www.w3.org/2000/svg" width="130" height="137.885" viewBox="0 0 130 137.885">
  <g id="Group_1102711" data-name="Group 1102711" transform="translate(-280.01 -5846.501)">
    <path id="Path_873448" data-name="Path 873448" d="M130,133.973A3.976,3.976,0,0,0,126.024,130H3.976A3.976,3.976,0,0,0,0,133.973v73.452c0,.055,0,.109,0,.163a7.565,7.565,0,0,0,3.453,6.532l57.4,29.89a7.6,7.6,0,0,0,8.277,0l57.4-29.89A7.565,7.565,0,0,0,130,207.589c0-.054,0-.109,0-.163Z" transform="translate(280.01 5739.148)" fill="#fff"/>
    <path id="Path_873449" data-name="Path 873449" d="M121.194,83.7A3.707,3.707,0,0,0,117.487,80H3.707A3.707,3.707,0,0,0,0,83.7V169c0,.051,0,.1,0,.152a7.053,7.053,0,0,0,3.219,6.09l53.516,27.865a7.083,7.083,0,0,0,7.716,0l53.516-27.865a7.053,7.053,0,0,0,3.219-6.09c0-.051,0-.1,0-.152Z" transform="translate(284.343 5774.085)" fill="#6018ec"/>
    <path id="Path_873665" data-name="Path 873665" d="M108.068,12.3A3.305,3.305,0,0,0,104.763,9H3.305A3.305,3.305,0,0,0,0,12.3v89.87c0,.046,0,.091,0,.136a6.289,6.289,0,0,0,2.87,5.43l47.72,24.847a6.316,6.316,0,0,0,6.881,0l47.72-24.847a6.289,6.289,0,0,0,2.87-5.43c0-.045,0-.09,0-.136Z" transform="translate(290.843 5838.004)" fill="none" stroke="#fff" stroke-width="1"/>
    <g id="Group_1103476" data-name="Group 1103476" transform="translate(313.076 5877.088)">
      <path id="Path_880484" data-name="Path 880484" d="M60,53H59V26.164A14.985,14.985,0,1,0,33.051,15H10a5.006,5.006,0,0,0-5,5V53H4a3,3,0,0,0-3,3,7.008,7.008,0,0,0,7,7H56a7.008,7.008,0,0,0,7-7A3,3,0,0,0,60,53ZM48,3A13,13,0,1,1,35,16,13.015,13.015,0,0,1,48,3Zm0,28a14.912,14.912,0,0,0,5-.875V49H11V21H33.875A15.012,15.012,0,0,0,48,31ZM7,20a3,3,0,0,1,3-3H33.051a14.953,14.953,0,0,0,.252,2H11a2,2,0,0,0-2,2V49a2,2,0,0,0,2,2H53a2,2,0,0,0,2-2V29.256a14.925,14.925,0,0,0,2-1.285V53H7ZM38,55v1a1,1,0,0,1-1,1H27a1,1,0,0,1-1-1V55Zm18,6H8a5.006,5.006,0,0,1-5-5,1,1,0,0,1,1-1H24v1a3,3,0,0,0,3,3H37a3,3,0,0,0,3-3V55H60a1,1,0,0,1,1,1A5.006,5.006,0,0,1,56,61Z" fill="#fff"/>
      <circle id="Ellipse_11738" data-name="Ellipse 11738" cx="1" cy="1" r="1" transform="translate(55 57)" fill="#fff"/>
      <circle id="Ellipse_11739" data-name="Ellipse 11739" cx="1" cy="1" r="1" transform="translate(51 57)" fill="#fff"/>
      <circle id="Ellipse_11740" data-name="Ellipse 11740" cx="1" cy="1" r="1" transform="translate(47 57)" fill="#fff"/>
      <path id="Path_880485" data-name="Path 880485" d="M22.628,46.343a4.61,4.61,0,0,0,4.744,0,19.931,19.931,0,0,0,9.628-17V27H36a7.408,7.408,0,0,1-4.356-1.422A12.109,12.109,0,0,0,25,23a12.114,12.114,0,0,0-6.646,2.578A7.4,7.4,0,0,1,14,27H13v2.337A19.931,19.931,0,0,0,22.628,46.343ZM15,28.946A9.408,9.408,0,0,0,19.523,27.2,10.222,10.222,0,0,1,25,25a10.2,10.2,0,0,1,5.473,2.2A9.425,9.425,0,0,0,35,28.947v.391a17.92,17.92,0,0,1-8.657,15.29,2.656,2.656,0,0,1-2.686,0A17.921,17.921,0,0,1,15,29.339Z" fill="#fff"/>
      <path id="Path_880486" data-name="Path 880486" d="M24.472,42.781,25,43.11l.528-.329A16.023,16.023,0,0,0,32.86,31.424l.108-.805-.765-.271a11.571,11.571,0,0,1-2.9-1.527A8.234,8.234,0,0,0,25,27,8.263,8.263,0,0,0,20.7,28.82a11.552,11.552,0,0,1-2.9,1.527l-.765.271.108.805a16.028,16.028,0,0,0,7.333,11.358Zm-2.606-12.34A6.541,6.541,0,0,1,25,29a6.523,6.523,0,0,1,3.131,1.441,13.625,13.625,0,0,0,2.621,1.485A14.043,14.043,0,0,1,25,40.737a14.041,14.041,0,0,1-5.751-8.812,13.559,13.559,0,0,0,2.616-1.484Z" fill="#fff"/>
      <path id="Path_880487" data-name="Path 880487" d="M41,45h2v2H41Z" fill="#fff"/>
      <path id="Path_880488" data-name="Path 880488" d="M49,45h2v2H49Z" fill="#fff"/>
      <path id="Path_880489" data-name="Path 880489" d="M45,45h2v2H45Z" fill="#fff"/>
      <path id="Path_880490" data-name="Path 880490" d="M41,41H51v2H41Z" fill="#fff"/>
      <path id="Path_880491" data-name="Path 880491" d="M41,37H51v2H41Z" fill="#fff"/>
      <path id="Path_880492" data-name="Path 880492" d="M41,33H51v2H41Z" fill="#fff"/>
      <path id="Path_880493" data-name="Path 880493" d="M42.582,23H40v2h4.3a9.751,9.751,0,0,0,3.381,1.948l.317.106.316-.1A9.767,9.767,0,0,0,51.7,25H56V23H53.418a9.766,9.766,0,0,0,.994-2H57V19H54.9a9.863,9.863,0,0,0,.1-1.325V17h2V15H54.816a2.991,2.991,0,0,0-1.955-1.859,4.938,4.938,0,0,0-2.148-5.33L51.9,5.447l-1.789-.895L48.84,7.085a4.188,4.188,0,0,0-1.679,0L45.9,4.553l-1.789.895,1.182,2.364a4.93,4.93,0,0,0-2.148,5.329A2.993,2.993,0,0,0,41.185,15H39v2h2v.676A9.836,9.836,0,0,0,41.1,19H39v2h2.588a9.766,9.766,0,0,0,.994,2ZM48,17.471A11.068,11.068,0,0,0,46.477,15h3.045A11.124,11.124,0,0,0,48,17.471Zm4.294-2.412A.991.991,0,0,1,53,16v1.676a7.76,7.76,0,0,1-4,6.791V22a9.039,9.039,0,0,1,3.294-6.941ZM48,9a2.948,2.948,0,0,1,2.806,4H45.194A2.948,2.948,0,0,1,48,9Zm-5,7a.991.991,0,0,1,.706-.941A9.039,9.039,0,0,1,47,22v2.467a7.759,7.759,0,0,1-4-6.791Z" fill="#fff"/>
    </g>
  </g>
</svg>
