<svg xmlns="http://www.w3.org/2000/svg" width="130" height="137.885" viewBox="0 0 130 137.885">
  <g id="Group_1102707" data-name="Group 1102707" transform="translate(-280.01 -5846.501)">
    <path id="Path_873448" data-name="Path 873448" d="M130,133.973A3.976,3.976,0,0,0,126.024,130H3.976A3.976,3.976,0,0,0,0,133.973v73.452c0,.055,0,.109,0,.163a7.565,7.565,0,0,0,3.453,6.532l57.4,29.89a7.6,7.6,0,0,0,8.277,0l57.4-29.89A7.565,7.565,0,0,0,130,207.589c0-.054,0-.109,0-.163Z" transform="translate(280.01 5739.148)" fill="#fff"/>
    <path id="Path_873449" data-name="Path 873449" d="M121.194,83.7A3.707,3.707,0,0,0,117.487,80H3.707A3.707,3.707,0,0,0,0,83.7V169c0,.051,0,.1,0,.152a7.053,7.053,0,0,0,3.219,6.09l53.516,27.865a7.083,7.083,0,0,0,7.716,0l53.516-27.865a7.053,7.053,0,0,0,3.219-6.09c0-.051,0-.1,0-.152Z" transform="translate(284.343 5774.085)" fill="#6018ec"/>
    <path id="Path_873665" data-name="Path 873665" d="M108.068,12.3A3.305,3.305,0,0,0,104.763,9H3.305A3.305,3.305,0,0,0,0,12.3v89.87c0,.046,0,.091,0,.136a6.289,6.289,0,0,0,2.87,5.43l47.72,24.847a6.316,6.316,0,0,0,6.881,0l47.72-24.847a6.289,6.289,0,0,0,2.87-5.43c0-.045,0-.09,0-.136Z" transform="translate(290.843 5838.004)" fill="none" stroke="#fff" stroke-width="1"/>
    <g id="Group_1103474" data-name="Group 1103474" transform="translate(317.38 5871.805)">
      <path id="Path_880463" data-name="Path 880463" d="M30.971,8.317l.288.832a43.536,43.536,0,0,1,2.394,13.845l.006.585,8.179,3.408a1.778,1.778,0,0,0,1.362,0l8.177-3.407.006-.585A43.536,43.536,0,0,1,53.777,9.149l.288-.832L42.518,4.242ZM49.62,22.392,43.4,24.981V20.034H41.631v4.948l-6.216-2.59a45.3,45.3,0,0,0-2.2-12.987l8.416-2.971V18.26H43.4V6.435L51.82,9.4A45.31,45.31,0,0,0,49.62,22.392Z" transform="translate(-3.524 -0.483)" fill="#fff"/>
      <path id="Path_880464" data-name="Path 880464" d="M38.994,0,22.728,5.741l.389.876a40.108,40.108,0,0,1,2.508,7.616H2.659A2.662,2.662,0,0,0,0,16.892V52.341A2.662,2.662,0,0,0,2.659,55H48.742A2.662,2.662,0,0,0,51.4,52.341V22.962A39.964,39.964,0,0,1,54.87,6.618l.389-.876ZM2.659,16.006H25.974a40.107,40.107,0,0,1,.57,5.317H1.772V16.892A.887.887,0,0,1,2.659,16.006Zm46.97,36.335a.887.887,0,0,1-.886.886H2.659a.887.887,0,0,1-.886-.886V23.1H26.587v2.364l10.362,4.317a5.314,5.314,0,0,0,4.091,0L49.629,26.2Zm0-29.38v1.315l-9.272,3.863a3.561,3.561,0,0,1-2.726,0l-9.272-3.862V22.962A41.723,41.723,0,0,0,25.117,6.778l13.877-4.9,13.877,4.9A41.723,41.723,0,0,0,49.629,22.961Z" fill="#fff"/>
      <path id="Path_880465" data-name="Path 880465" d="M4,20.061H5.772v1.772H4Z" transform="translate(-0.455 -2.282)" fill="#fff"/>
      <path id="Path_880466" data-name="Path 880466" d="M12,20.061h1.772v1.772H12Z" transform="translate(-1.365 -2.282)" fill="#fff"/>
      <path id="Path_880467" data-name="Path 880467" d="M8,20.061H9.772v1.772H8Z" transform="translate(-0.91 -2.282)" fill="#fff"/>
      <path id="Path_880468" data-name="Path 880468" d="M15.521,28.061A11.521,11.521,0,1,0,27.042,39.582,11.534,11.534,0,0,0,15.521,28.061Zm0,21.269c-.953,0-1.967-1.353-2.667-3.545h5.334C17.488,47.977,16.474,49.33,15.521,49.33ZM12.4,44.013a21.976,21.976,0,0,1-.408-3.545h7.053a22.076,22.076,0,0,1-.408,3.545ZM5.818,40.468h4.405a24.3,24.3,0,0,0,.362,3.545H6.848a9.659,9.659,0,0,1-1.031-3.545Zm9.7-10.635c.953,0,1.967,1.353,2.667,3.545H12.853C13.554,31.186,14.568,29.833,15.521,29.833Zm3.119,5.317a21.976,21.976,0,0,1,.408,3.545H11.995a22.076,22.076,0,0,1,.408-3.545ZM10.223,38.7H5.818a9.66,9.66,0,0,1,1.032-3.545h3.736A24.17,24.17,0,0,0,10.223,38.7Zm10.6,1.772h4.405a9.66,9.66,0,0,1-1.032,3.545H20.456a24.2,24.2,0,0,0,.362-3.545Zm0-1.772a24.3,24.3,0,0,0-.362-3.545h3.736A9.677,9.677,0,0,1,25.224,38.7Zm2.216-5.317H20.046a12.248,12.248,0,0,0-1.233-2.961A9.784,9.784,0,0,1,23.035,33.378ZM12.229,30.417A12.283,12.283,0,0,0,11,33.378H8.007A9.782,9.782,0,0,1,12.229,30.417ZM8.007,45.785H11a12.248,12.248,0,0,0,1.233,2.961A9.8,9.8,0,0,1,8.007,45.785Zm10.806,2.96a12.283,12.283,0,0,0,1.233-2.961h2.989A9.774,9.774,0,0,1,18.812,48.745Z" transform="translate(-0.455 -3.193)" fill="#fff"/>
      <path id="Path_880469" data-name="Path 880469" d="M4,56.061H5.772v1.772H4Z" transform="translate(-0.455 -6.378)" fill="#fff"/>
      <path id="Path_880470" data-name="Path 880470" d="M8,56.061H26.611v1.772H8Z" transform="translate(-0.91 -6.378)" fill="#fff"/>
      <path id="Path_880471" data-name="Path 880471" d="M32,41.378H51.5V36.061H32Zm1.772-3.545H49.724v1.772H33.772Z" transform="translate(-3.641 -4.103)" fill="#fff"/>
      <path id="Path_880472" data-name="Path 880472" d="M32,48.061h1.772v1.772H32Z" transform="translate(-3.641 -5.468)" fill="#fff"/>
      <path id="Path_880473" data-name="Path 880473" d="M36,48.061H51.952v1.772H36Z" transform="translate(-4.096 -5.468)" fill="#fff"/>
      <path id="Path_880474" data-name="Path 880474" d="M32,52.061H51.5v1.772H32Z" transform="translate(-3.641 -5.923)" fill="#fff"/>
      <path id="Path_880475" data-name="Path 880475" d="M32,56.061H51.5v1.772H32Z" transform="translate(-3.641 -6.378)" fill="#fff"/>
      <path id="Path_880476" data-name="Path 880476" d="M32,44.061H51.5v1.772H32Z" transform="translate(-3.641 -5.013)" fill="#fff"/>
    </g>
  </g>
</svg>
